G04 #@! TF.GenerationSoftware,KiCad,Pcbnew,(6.0.8)*
G04 #@! TF.CreationDate,2023-03-13T18:38:54-05:00*
G04 #@! TF.ProjectId,comb_v2_electrodes,636f6d62-5f76-4325-9f65-6c656374726f,rev?*
G04 #@! TF.SameCoordinates,Original*
G04 #@! TF.FileFunction,Copper,L1,Top*
G04 #@! TF.FilePolarity,Positive*
%FSLAX46Y46*%
G04 Gerber Fmt 4.6, Leading zero omitted, Abs format (unit mm)*
G04 Created by KiCad (PCBNEW (6.0.8)) date 2023-03-13 18:38:54*
%MOMM*%
%LPD*%
G01*
G04 APERTURE LIST*
G04 #@! TA.AperFunction,SMDPad,CuDef*
%ADD10C,8.000000*%
G04 #@! TD*
G04 #@! TA.AperFunction,ViaPad*
%ADD11C,0.800000*%
G04 #@! TD*
G04 APERTURE END LIST*
D10*
X275000000Y-129500000D03*
X230000000Y-54500000D03*
X275000000Y-69500000D03*
X230000000Y-84500000D03*
X275000000Y-99500000D03*
X260000000Y-129500000D03*
X260000000Y-54500000D03*
X245000000Y-84500000D03*
X230000000Y-114500000D03*
X215000000Y-84500000D03*
X230000000Y-69500000D03*
X215000000Y-114500000D03*
X215000000Y-99500000D03*
X215000000Y-129500000D03*
X260000000Y-99500000D03*
X230000000Y-129500000D03*
X275000000Y-84500000D03*
X260000000Y-84500000D03*
X275000000Y-114500000D03*
X260000000Y-69500000D03*
X230000000Y-99500000D03*
X245000000Y-129500000D03*
X245000000Y-54500000D03*
X260000000Y-114500000D03*
X215000000Y-69500000D03*
X275000000Y-54500000D03*
X245000000Y-114500000D03*
X215000000Y-54500000D03*
X245000000Y-69500000D03*
X245000000Y-99500000D03*
D11*
X275000000Y-54500000D03*
X260000000Y-54500000D03*
X245000000Y-54500000D03*
X230000000Y-54500000D03*
X215000000Y-54954500D03*
X275000000Y-69500000D03*
X260000000Y-69500000D03*
X245000000Y-69500000D03*
X230000000Y-69500000D03*
X215000000Y-69934500D03*
X275000000Y-84500000D03*
X260000000Y-84500000D03*
X245000000Y-84500000D03*
X230000000Y-84500000D03*
X215000000Y-85304500D03*
X275000000Y-99500000D03*
X260000000Y-99500000D03*
X245000000Y-99500000D03*
X230000000Y-99500000D03*
X215000000Y-99994500D03*
X275000000Y-114500000D03*
X260000000Y-114500000D03*
X245000000Y-114500000D03*
X230000000Y-114500000D03*
X215000000Y-114774500D03*
X275000000Y-129500000D03*
X260000000Y-129500000D03*
X245060000Y-129650000D03*
X230100000Y-130200000D03*
X214960000Y-131450000D03*
M02*
