G04 #@! TF.GenerationSoftware,KiCad,Pcbnew,(6.0.8)*
G04 #@! TF.CreationDate,2023-03-13T18:38:55-05:00*
G04 #@! TF.ProjectId,comb_v2_electrodes,636f6d62-5f76-4325-9f65-6c656374726f,rev?*
G04 #@! TF.SameCoordinates,Original*
G04 #@! TF.FileFunction,Profile,NP*
%FSLAX46Y46*%
G04 Gerber Fmt 4.6, Leading zero omitted, Abs format (unit mm)*
G04 Created by KiCad (PCBNEW (6.0.8)) date 2023-03-13 18:38:55*
%MOMM*%
%LPD*%
G01*
G04 APERTURE LIST*
G04 #@! TA.AperFunction,Profile*
%ADD10C,0.100000*%
G04 #@! TD*
G04 APERTURE END LIST*
D10*
X190000000Y-106000000D02*
X190000000Y-108500000D01*
X280000000Y-97000000D02*
X280000000Y-102000000D01*
X190000000Y-123500000D02*
G75*
G03*
X191500000Y-125000000I1500000J0D01*
G01*
X280000000Y-52000000D02*
G75*
G03*
X278000000Y-50000000I-2000000J0D01*
G01*
X179500000Y-50000000D02*
X278000000Y-50000000D01*
X191500000Y-110000000D02*
X278000000Y-110000000D01*
X280000000Y-97000000D02*
G75*
G03*
X278000000Y-95000000I-2000000J0D01*
G01*
X190000000Y-61000000D02*
X190000000Y-63000000D01*
X278000000Y-104000000D02*
G75*
G03*
X280000000Y-102000000I0J2000000D01*
G01*
X280000000Y-82000000D02*
X280000000Y-87000000D01*
X278000000Y-134000000D02*
G75*
G03*
X280000000Y-132000000I0J2000000D01*
G01*
X27250000Y-134000000D02*
X180850000Y-134000000D01*
X177500000Y-116500000D02*
X177500000Y-52000000D01*
X179500000Y-50000000D02*
G75*
G03*
X177500000Y-52000000I0J-2000000D01*
G01*
X280000000Y-112000000D02*
X280000000Y-117000000D01*
X192000000Y-80000000D02*
X278000000Y-80000000D01*
X280000000Y-112000000D02*
G75*
G03*
X278000000Y-110000000I-2000000J0D01*
G01*
X278000000Y-74000000D02*
G75*
G03*
X280000000Y-72000000I0J2000000D01*
G01*
X278000000Y-119000000D02*
G75*
G03*
X280000000Y-117000000I0J2000000D01*
G01*
X190000000Y-91000000D02*
X190000000Y-93000000D01*
X278000000Y-134000000D02*
X180850000Y-134000000D01*
X278000000Y-119000000D02*
X191500000Y-119000000D01*
X175500000Y-118500000D02*
X27250000Y-118500000D01*
X190000000Y-120500000D02*
X190000000Y-123500000D01*
X280000000Y-82000000D02*
G75*
G03*
X278000000Y-80000000I-2000000J0D01*
G01*
X191500000Y-125000000D02*
X278000000Y-125000000D01*
X191500000Y-119000000D02*
G75*
G03*
X190000000Y-120500000I0J-1500000D01*
G01*
X278000000Y-89000000D02*
G75*
G03*
X280000000Y-87000000I0J2000000D01*
G01*
X190000000Y-93000000D02*
G75*
G03*
X192000000Y-95000000I2000000J0D01*
G01*
X278000000Y-74000000D02*
X192000000Y-74000000D01*
X280000000Y-127000000D02*
G75*
G03*
X278000000Y-125000000I-2000000J0D01*
G01*
X190000000Y-63000000D02*
G75*
G03*
X192000000Y-65000000I2000000J0D01*
G01*
X278000000Y-104000000D02*
X192000000Y-104000000D01*
X278000000Y-59000000D02*
G75*
G03*
X280000000Y-57000000I0J2000000D01*
G01*
X192000000Y-104000000D02*
G75*
G03*
X190000000Y-106000000I0J-2000000D01*
G01*
X192000000Y-89000000D02*
G75*
G03*
X190000000Y-91000000I0J-2000000D01*
G01*
X192000000Y-95000000D02*
X278000000Y-95000000D01*
X280000000Y-127000000D02*
X280000000Y-132000000D01*
X192000000Y-74000000D02*
G75*
G03*
X190000000Y-76000000I0J-2000000D01*
G01*
X190000000Y-76000000D02*
X190000000Y-78000000D01*
X190000000Y-78000000D02*
G75*
G03*
X192000000Y-80000000I2000000J0D01*
G01*
X280000000Y-52000000D02*
X280000000Y-57000000D01*
X190000000Y-108500000D02*
G75*
G03*
X191500000Y-110000000I1500000J0D01*
G01*
X175500000Y-118500000D02*
G75*
G03*
X177500000Y-116500000I0J2000000D01*
G01*
X192000000Y-59000000D02*
G75*
G03*
X190000000Y-61000000I0J-2000000D01*
G01*
X278000000Y-59000000D02*
X192000000Y-59000000D01*
X278000000Y-89000000D02*
X192000000Y-89000000D01*
X192000000Y-65000000D02*
X278000000Y-65000000D01*
X280000000Y-67000000D02*
G75*
G03*
X278000000Y-65000000I-2000000J0D01*
G01*
X280000000Y-67000000D02*
X280000000Y-72000000D01*
X23500000Y-118500000D02*
X23500000Y-134000000D01*
X23500000Y-134000000D02*
X27250000Y-134000000D01*
X27250000Y-118500000D02*
X23500000Y-118500000D01*
M02*
