G04 #@! TF.GenerationSoftware,KiCad,Pcbnew,(6.0.8)*
G04 #@! TF.CreationDate,2023-03-13T18:38:54-05:00*
G04 #@! TF.ProjectId,comb_v2_electrodes,636f6d62-5f76-4325-9f65-6c656374726f,rev?*
G04 #@! TF.SameCoordinates,Original*
G04 #@! TF.FileFunction,OtherDrawing,Comment*
%FSLAX46Y46*%
G04 Gerber Fmt 4.6, Leading zero omitted, Abs format (unit mm)*
G04 Created by KiCad (PCBNEW (6.0.8)) date 2023-03-13 18:38:54*
%MOMM*%
%LPD*%
G01*
G04 APERTURE LIST*
%ADD10C,0.150000*%
G04 APERTURE END LIST*
D10*
X23510000Y-118190000D02*
X23510000Y-110443000D01*
X27574000Y-111522500D02*
X28082000Y-111141500D01*
X27574000Y-111522500D02*
X28082000Y-111903500D01*
X20208000Y-111586000D02*
X23256000Y-111586000D01*
X27320000Y-118190000D02*
X27320000Y-110443000D01*
X23256000Y-111586000D02*
X22748000Y-111205000D01*
X30622000Y-111522500D02*
X27574000Y-111522500D01*
X23256000Y-111586000D02*
X22748000Y-111967000D01*
X25946761Y-117340142D02*
X25994380Y-117197285D01*
X25994380Y-116959190D01*
X25946761Y-116863952D01*
X25899142Y-116816333D01*
X25803904Y-116768714D01*
X25708666Y-116768714D01*
X25613428Y-116816333D01*
X25565809Y-116863952D01*
X25518190Y-116959190D01*
X25470571Y-117149666D01*
X25422952Y-117244904D01*
X25375333Y-117292523D01*
X25280095Y-117340142D01*
X25184857Y-117340142D01*
X25089619Y-117292523D01*
X25042000Y-117244904D01*
X24994380Y-117149666D01*
X24994380Y-116911571D01*
X25042000Y-116768714D01*
X25327714Y-116483000D02*
X25327714Y-116102047D01*
X24994380Y-116340142D02*
X25851523Y-116340142D01*
X25946761Y-116292523D01*
X25994380Y-116197285D01*
X25994380Y-116102047D01*
X25994380Y-115768714D02*
X25327714Y-115768714D01*
X24994380Y-115768714D02*
X25042000Y-115816333D01*
X25089619Y-115768714D01*
X25042000Y-115721095D01*
X24994380Y-115768714D01*
X25089619Y-115768714D01*
X25327714Y-115435380D02*
X25327714Y-115054428D01*
X25994380Y-115292523D02*
X25137238Y-115292523D01*
X25042000Y-115244904D01*
X24994380Y-115149666D01*
X24994380Y-115054428D01*
X25327714Y-114863952D02*
X25327714Y-114483000D01*
X25994380Y-114721095D02*
X25137238Y-114721095D01*
X25042000Y-114673476D01*
X24994380Y-114578238D01*
X24994380Y-114483000D01*
X25327714Y-114149666D02*
X25994380Y-114149666D01*
X25422952Y-114149666D02*
X25375333Y-114102047D01*
X25327714Y-114006809D01*
X25327714Y-113863952D01*
X25375333Y-113768714D01*
X25470571Y-113721095D01*
X25994380Y-113721095D01*
X25946761Y-112863952D02*
X25994380Y-112959190D01*
X25994380Y-113149666D01*
X25946761Y-113244904D01*
X25851523Y-113292523D01*
X25470571Y-113292523D01*
X25375333Y-113244904D01*
X25327714Y-113149666D01*
X25327714Y-112959190D01*
X25375333Y-112863952D01*
X25470571Y-112816333D01*
X25565809Y-112816333D01*
X25661047Y-113292523D01*
X25994380Y-112387761D02*
X25327714Y-112387761D01*
X25518190Y-112387761D02*
X25422952Y-112340142D01*
X25375333Y-112292523D01*
X25327714Y-112197285D01*
X25327714Y-112102047D01*
X24994380Y-111149666D02*
X24994380Y-110578238D01*
X25994380Y-110863952D02*
X24994380Y-110863952D01*
X24994380Y-110054428D02*
X24994380Y-109863952D01*
X25042000Y-109768714D01*
X25137238Y-109673476D01*
X25327714Y-109625857D01*
X25661047Y-109625857D01*
X25851523Y-109673476D01*
X25946761Y-109768714D01*
X25994380Y-109863952D01*
X25994380Y-110054428D01*
X25946761Y-110149666D01*
X25851523Y-110244904D01*
X25661047Y-110292523D01*
X25327714Y-110292523D01*
X25137238Y-110244904D01*
X25042000Y-110149666D01*
X24994380Y-110054428D01*
X25994380Y-109197285D02*
X24994380Y-109197285D01*
X24994380Y-108816333D01*
X25042000Y-108721095D01*
X25089619Y-108673476D01*
X25184857Y-108625857D01*
X25327714Y-108625857D01*
X25422952Y-108673476D01*
X25470571Y-108721095D01*
X25518190Y-108816333D01*
X25518190Y-109197285D01*
X19319142Y-110482714D02*
X19319142Y-111149380D01*
X19081047Y-110101761D02*
X18842952Y-110816047D01*
X19462000Y-110816047D01*
X19842952Y-111149380D02*
X19842952Y-110482714D01*
X19842952Y-110577952D02*
X19890571Y-110530333D01*
X19985809Y-110482714D01*
X20128666Y-110482714D01*
X20223904Y-110530333D01*
X20271523Y-110625571D01*
X20271523Y-111149380D01*
X20271523Y-110625571D02*
X20319142Y-110530333D01*
X20414380Y-110482714D01*
X20557238Y-110482714D01*
X20652476Y-110530333D01*
X20700095Y-110625571D01*
X20700095Y-111149380D01*
X21176285Y-111149380D02*
X21176285Y-110482714D01*
X21176285Y-110577952D02*
X21223904Y-110530333D01*
X21319142Y-110482714D01*
X21462000Y-110482714D01*
X21557238Y-110530333D01*
X21604857Y-110625571D01*
X21604857Y-111149380D01*
X21604857Y-110625571D02*
X21652476Y-110530333D01*
X21747714Y-110482714D01*
X21890571Y-110482714D01*
X21985809Y-110530333D01*
X22033428Y-110625571D01*
X22033428Y-111149380D01*
M02*
