G04 #@! TF.GenerationSoftware,KiCad,Pcbnew,(6.0.8)*
G04 #@! TF.CreationDate,2022-11-26T10:26:50-06:00*
G04 #@! TF.ProjectId,photo_switching,70686f74-6f5f-4737-9769-746368696e67,rev?*
G04 #@! TF.SameCoordinates,Original*
G04 #@! TF.FileFunction,Copper,L2,Bot*
G04 #@! TF.FilePolarity,Positive*
%FSLAX46Y46*%
G04 Gerber Fmt 4.6, Leading zero omitted, Abs format (unit mm)*
G04 Created by KiCad (PCBNEW (6.0.8)) date 2022-11-26 10:26:50*
%MOMM*%
%LPD*%
G01*
G04 APERTURE LIST*
G04 #@! TA.AperFunction,ComponentPad*
%ADD10O,1.700000X1.700000*%
G04 #@! TD*
G04 #@! TA.AperFunction,ComponentPad*
%ADD11R,1.700000X1.700000*%
G04 #@! TD*
G04 #@! TA.AperFunction,ComponentPad*
%ADD12C,2.200000*%
G04 #@! TD*
G04 #@! TA.AperFunction,ViaPad*
%ADD13C,0.500000*%
G04 #@! TD*
G04 #@! TA.AperFunction,Conductor*
%ADD14C,0.150000*%
G04 #@! TD*
G04 #@! TA.AperFunction,Conductor*
%ADD15C,0.200000*%
G04 #@! TD*
G04 APERTURE END LIST*
D10*
X88925000Y-92583000D03*
X88925000Y-90043000D03*
X88925000Y-87503000D03*
X88925000Y-84963000D03*
X88925000Y-82423000D03*
X88925000Y-79883000D03*
D11*
X88925000Y-77343000D03*
D12*
X150622000Y-106807000D03*
D11*
X150515000Y-75580000D03*
D10*
X147975000Y-75580000D03*
X150515000Y-78120000D03*
X147975000Y-78120000D03*
X150515000Y-80660000D03*
X147975000Y-80660000D03*
X150515000Y-83200000D03*
X147975000Y-83200000D03*
X150515000Y-85740000D03*
X147975000Y-85740000D03*
X150515000Y-88280000D03*
X147975000Y-88280000D03*
X150515000Y-90820000D03*
X147975000Y-90820000D03*
X150515000Y-93360000D03*
X147975000Y-93360000D03*
D12*
X150368000Y-65659000D03*
X88011000Y-106807000D03*
X88392000Y-65913000D03*
D10*
X88925000Y-99334000D03*
D11*
X88925000Y-96794000D03*
D13*
X116168000Y-102249000D03*
X116168000Y-97423000D03*
X116295000Y-92978000D03*
X116168000Y-87136000D03*
X116168000Y-81675000D03*
X116168000Y-77357000D03*
X116168000Y-72150000D03*
X125185000Y-67070000D03*
X125312000Y-72150000D03*
X125185000Y-77230000D03*
X125312000Y-82437000D03*
X125312000Y-87644000D03*
X125312000Y-92978000D03*
X125312000Y-97931000D03*
X125312000Y-103011000D03*
X134202000Y-103265000D03*
X134329000Y-98312000D03*
X134329000Y-93105000D03*
X134202000Y-87517000D03*
X134202000Y-72150000D03*
X134329000Y-67197000D03*
X100420000Y-108980000D03*
X91530000Y-108853000D03*
X86069000Y-94502000D03*
X92710000Y-77851000D03*
X92710000Y-86233000D03*
X92710000Y-98933000D03*
X95631000Y-77216000D03*
X95631000Y-68072000D03*
X95631000Y-100076000D03*
X95631000Y-87884000D03*
X92075000Y-91821000D03*
X90551000Y-84709000D03*
X91948000Y-84709000D03*
X92329000Y-104267000D03*
X138328000Y-97832000D03*
X98044000Y-66421000D03*
X129032000Y-78359000D03*
X143510000Y-66294000D03*
X129286000Y-97917000D03*
X142240000Y-98044000D03*
X138228000Y-87632000D03*
X111252000Y-98425000D03*
X96878000Y-84632000D03*
X111125000Y-73025000D03*
X144278000Y-107882000D03*
X96928000Y-96432000D03*
X111125000Y-78105000D03*
X145034000Y-101981000D03*
X98078000Y-74182000D03*
X111252000Y-83185000D03*
X129286000Y-92964000D03*
X111252000Y-103251000D03*
X101278000Y-73832000D03*
X120528000Y-92982000D03*
X111252000Y-93472000D03*
X138528000Y-82282000D03*
X129286000Y-87630000D03*
X129032000Y-72898000D03*
X100278000Y-85032000D03*
X129032000Y-75946000D03*
X92678000Y-64832000D03*
X111252000Y-88265000D03*
X96139000Y-89916000D03*
X129286000Y-82423000D03*
X129032000Y-67945000D03*
X142875000Y-72136000D03*
X96878000Y-82682000D03*
X120528000Y-87682000D03*
X149928000Y-99532000D03*
X124128000Y-108432000D03*
X97028000Y-102616000D03*
X120478000Y-82132000D03*
X110998000Y-68072000D03*
X143637000Y-86106000D03*
X87078000Y-69732000D03*
X147447000Y-104394000D03*
X140462000Y-96393000D03*
X96266000Y-79248000D03*
X143637000Y-82296000D03*
X96012000Y-69342000D03*
X120478000Y-97832000D03*
X143510000Y-91440000D03*
X97028000Y-105029000D03*
X140208000Y-75946000D03*
X96531000Y-93382000D03*
X120728000Y-72082000D03*
X148528000Y-68682000D03*
X138278000Y-72332000D03*
X110678000Y-108632000D03*
X146478000Y-64782000D03*
X129286000Y-102870000D03*
X120178000Y-77832000D03*
X138078000Y-92982000D03*
X120728000Y-102682000D03*
X92197701Y-69845701D03*
X91313000Y-77851000D03*
X91948000Y-95250000D03*
X143764000Y-73279000D03*
X145034000Y-73279000D03*
X118999000Y-102232000D03*
X119126000Y-81661000D03*
X119126000Y-86614000D03*
X136779000Y-81280000D03*
X119126000Y-92075000D03*
X137033000Y-75819000D03*
X119126000Y-71374000D03*
X119126000Y-76581000D03*
X136652000Y-91694000D03*
X119126000Y-97155000D03*
X136779000Y-86360000D03*
X137160000Y-70612000D03*
X137033000Y-78613000D03*
X137287000Y-66802000D03*
X119126000Y-67437000D03*
X136652000Y-96774000D03*
X136652000Y-101727000D03*
X131318000Y-66548000D03*
X131318000Y-86233000D03*
X131318000Y-75946000D03*
X112828000Y-97232000D03*
X112649000Y-67818000D03*
X112828000Y-87232000D03*
X131191000Y-101346000D03*
X117983000Y-106172000D03*
X131445000Y-70739000D03*
X112828000Y-102232000D03*
X131318000Y-91694000D03*
X130937000Y-106172000D03*
X131318000Y-78486000D03*
X112649000Y-70866000D03*
X131445000Y-96520000D03*
X112776000Y-82232000D03*
X113411000Y-75946000D03*
X131318000Y-81280000D03*
X112828000Y-92232000D03*
X96828000Y-69554698D03*
X97028000Y-79502000D03*
X144145000Y-81153000D03*
X144780000Y-80645000D03*
X145542000Y-97155000D03*
X144018000Y-97155000D03*
X98171000Y-79502000D03*
X96901000Y-90424000D03*
X98171000Y-90297000D03*
X96012000Y-102616000D03*
X143510000Y-90043000D03*
X143510000Y-87884000D03*
D14*
X97028000Y-102616000D02*
X97028000Y-105029000D01*
X96266000Y-79248000D02*
X96266000Y-82070000D01*
X96266000Y-82070000D02*
X96878000Y-82682000D01*
X93091000Y-86614000D02*
X93091000Y-98552000D01*
X92710000Y-86233000D02*
X93091000Y-86614000D01*
X93091000Y-98552000D02*
X92710000Y-98933000D01*
X88925000Y-79883000D02*
X90678000Y-79883000D01*
X92710000Y-77851000D02*
X92710000Y-86233000D01*
X90678000Y-79883000D02*
X92710000Y-77851000D01*
X95631000Y-68072000D02*
X95283500Y-68419500D01*
X95283500Y-68419500D02*
X95283500Y-76868500D01*
X95631000Y-87884000D02*
X95631000Y-100076000D01*
X95283500Y-76868500D02*
X95631000Y-77216000D01*
X95631000Y-77216000D02*
X95631000Y-87884000D01*
X91948000Y-91694000D02*
X92075000Y-91821000D01*
X92583000Y-93472000D02*
X92583000Y-96393000D01*
X92075000Y-91821000D02*
X92075000Y-92964000D01*
X92202000Y-104140000D02*
X92329000Y-104267000D01*
X92202000Y-96774000D02*
X92202000Y-104140000D01*
X92075000Y-92964000D02*
X92583000Y-93472000D01*
X92583000Y-96393000D02*
X92202000Y-96774000D01*
X90551000Y-84709000D02*
X91948000Y-84709000D01*
X91948000Y-84709000D02*
X91948000Y-91694000D01*
X144018000Y-85598000D02*
X144018000Y-85725000D01*
X144018000Y-82677000D02*
X144018000Y-85598000D01*
X143510000Y-71501000D02*
X142875000Y-72136000D01*
X111252000Y-93472000D02*
X111252000Y-88265000D01*
X143510000Y-66294000D02*
X143510000Y-71501000D01*
X129286000Y-82423000D02*
X129286000Y-78613000D01*
X129286000Y-87630000D02*
X129286000Y-82423000D01*
X129286000Y-78613000D02*
X129032000Y-78359000D01*
X96012000Y-68453000D02*
X96012000Y-69342000D01*
X142875000Y-72136000D02*
X142875000Y-73279000D01*
X98044000Y-66421000D02*
X96012000Y-68453000D01*
X145034000Y-101981000D02*
X147447000Y-104394000D01*
X142875000Y-73279000D02*
X140208000Y-75946000D01*
X129286000Y-97917000D02*
X129286000Y-92964000D01*
X111252000Y-78232000D02*
X111125000Y-78105000D01*
X129032000Y-75946000D02*
X129032000Y-72898000D01*
X129286000Y-102870000D02*
X129286000Y-97917000D01*
X144018000Y-85725000D02*
X143637000Y-86106000D01*
X111252000Y-88265000D02*
X111252000Y-83185000D01*
X129286000Y-92964000D02*
X129286000Y-87630000D01*
X111125000Y-68199000D02*
X110998000Y-68072000D01*
X111252000Y-103251000D02*
X111252000Y-98425000D01*
X111125000Y-73025000D02*
X111125000Y-68199000D01*
X111252000Y-98425000D02*
X111252000Y-93472000D01*
X143637000Y-82296000D02*
X144018000Y-82677000D01*
X111125000Y-78105000D02*
X111125000Y-73025000D01*
X129032000Y-72898000D02*
X129032000Y-67945000D01*
X111252000Y-83185000D02*
X111252000Y-78232000D01*
X92197701Y-69845701D02*
X92197701Y-76966299D01*
X92197701Y-76966299D02*
X91313000Y-77851000D01*
X91592000Y-95250000D02*
X91948000Y-95250000D01*
X88925000Y-92583000D02*
X91592000Y-95250000D01*
X147975000Y-78120000D02*
X143764000Y-73909000D01*
X143764000Y-73909000D02*
X143764000Y-73279000D01*
X149440000Y-77045000D02*
X147919720Y-77045000D01*
X145034000Y-74159280D02*
X145034000Y-73279000D01*
X150515000Y-78120000D02*
X149440000Y-77045000D01*
X147919720Y-77045000D02*
X145034000Y-74159280D01*
D15*
X137287000Y-70485000D02*
X137160000Y-70612000D01*
X136652000Y-96774000D02*
X136652000Y-101727000D01*
X88925000Y-96794000D02*
X87825000Y-97894000D01*
X87825000Y-101795000D02*
X93472000Y-107442000D01*
X136652000Y-91694000D02*
X136652000Y-96774000D01*
X119126000Y-97155000D02*
X119126000Y-92075000D01*
X137033000Y-102108000D02*
X136652000Y-101727000D01*
X119126000Y-76581000D02*
X119126000Y-71374000D01*
X118999000Y-102232000D02*
X119126000Y-102105000D01*
X136779000Y-81280000D02*
X136779000Y-86360000D01*
X137160000Y-75692000D02*
X137033000Y-75819000D01*
X118745000Y-106680000D02*
X118999000Y-106426000D01*
X137033000Y-81026000D02*
X136779000Y-81280000D01*
X118999000Y-106426000D02*
X118999000Y-102232000D01*
X119126000Y-67437000D02*
X119126000Y-71374000D01*
X136779000Y-86360000D02*
X136779000Y-91567000D01*
X118745000Y-106680000D02*
X135890000Y-106680000D01*
X137160000Y-70612000D02*
X137160000Y-75692000D01*
X117983000Y-107442000D02*
X118745000Y-106680000D01*
X119126000Y-102105000D02*
X119126000Y-97155000D01*
X137033000Y-105537000D02*
X137033000Y-102108000D01*
X119126000Y-92075000D02*
X119126000Y-86614000D01*
X119126000Y-81661000D02*
X119126000Y-76581000D01*
X135890000Y-106680000D02*
X137033000Y-105537000D01*
X119126000Y-86614000D02*
X119126000Y-81661000D01*
X87825000Y-97894000D02*
X87825000Y-101795000D01*
X137287000Y-66802000D02*
X137287000Y-70485000D01*
X93472000Y-107442000D02*
X117983000Y-107442000D01*
X136779000Y-91567000D02*
X136652000Y-91694000D01*
X137033000Y-78613000D02*
X137033000Y-81026000D01*
X117824501Y-106330499D02*
X117983000Y-106172000D01*
X131318000Y-86233000D02*
X131318000Y-91694000D01*
X88925000Y-101752000D02*
X93503499Y-106330499D01*
X131445000Y-70739000D02*
X131318000Y-70866000D01*
X131318000Y-78486000D02*
X131318000Y-81280000D01*
D14*
X112828000Y-97232000D02*
X112828000Y-102232000D01*
D15*
X131318000Y-70866000D02*
X131318000Y-75946000D01*
X131318000Y-91694000D02*
X131318000Y-96393000D01*
X112649000Y-67818000D02*
X112649000Y-70866000D01*
D14*
X113411000Y-75946000D02*
X112776000Y-76581000D01*
X112776000Y-76581000D02*
X112776000Y-82232000D01*
D15*
X131318000Y-81280000D02*
X131318000Y-86233000D01*
X112828000Y-106120000D02*
X112828000Y-102232000D01*
X131445000Y-96520000D02*
X131191000Y-96774000D01*
X130937000Y-106172000D02*
X130937000Y-101600000D01*
X131318000Y-70612000D02*
X131445000Y-70739000D01*
D14*
X112776000Y-87180000D02*
X112828000Y-87232000D01*
D15*
X112617501Y-106330499D02*
X117824501Y-106330499D01*
D14*
X112776000Y-82232000D02*
X112776000Y-87180000D01*
D15*
X112649000Y-75184000D02*
X113411000Y-75946000D01*
X112649000Y-70866000D02*
X112649000Y-75184000D01*
X112617501Y-106330499D02*
X112828000Y-106120000D01*
X88925000Y-99334000D02*
X88925000Y-101752000D01*
X131318000Y-66548000D02*
X131318000Y-70612000D01*
D14*
X112828000Y-87232000D02*
X112828000Y-92232000D01*
D15*
X131191000Y-96774000D02*
X131191000Y-101346000D01*
X131318000Y-96393000D02*
X131445000Y-96520000D01*
X93503499Y-106330499D02*
X112617501Y-106330499D01*
X130937000Y-101600000D02*
X131191000Y-101346000D01*
D14*
X112828000Y-92232000D02*
X112828000Y-97232000D01*
X97155000Y-69881698D02*
X96828000Y-69554698D01*
X97028000Y-79502000D02*
X97155000Y-79375000D01*
X97155000Y-79375000D02*
X97155000Y-69881698D01*
X144145000Y-81153000D02*
X146192000Y-83200000D01*
X146192000Y-83200000D02*
X147975000Y-83200000D01*
X150515000Y-83200000D02*
X149440000Y-82125000D01*
X146260000Y-82125000D02*
X144780000Y-80645000D01*
X149440000Y-82125000D02*
X146260000Y-82125000D01*
X147975000Y-93360000D02*
X145542000Y-95793000D01*
X145542000Y-95793000D02*
X145542000Y-97155000D01*
X144018000Y-95796720D02*
X147529720Y-92285000D01*
X149440000Y-92285000D02*
X150515000Y-93360000D01*
X144018000Y-97155000D02*
X144018000Y-95796720D01*
X147529720Y-92285000D02*
X149440000Y-92285000D01*
X98171000Y-89154000D02*
X96901000Y-90424000D01*
X98171000Y-79502000D02*
X98171000Y-89154000D01*
X98171000Y-100457000D02*
X98171000Y-90297000D01*
X96012000Y-102616000D02*
X98171000Y-100457000D01*
X145273000Y-88280000D02*
X143510000Y-90043000D01*
X147975000Y-88280000D02*
X145273000Y-88280000D01*
X144443000Y-87205000D02*
X143764000Y-87884000D01*
X143764000Y-87884000D02*
X143510000Y-87884000D01*
X149440000Y-87205000D02*
X144443000Y-87205000D01*
X150515000Y-88280000D02*
X149440000Y-87205000D01*
G04 #@! TA.AperFunction,Conductor*
G36*
X147520121Y-62760502D02*
G01*
X147566614Y-62814158D01*
X147578000Y-62866500D01*
X147578000Y-68232000D01*
X153193500Y-68232000D01*
X153261621Y-68252002D01*
X153308114Y-68305658D01*
X153319500Y-68358000D01*
X153319500Y-104106000D01*
X153299498Y-104174121D01*
X153245842Y-104220614D01*
X153193500Y-104232000D01*
X148578000Y-104232000D01*
X148578000Y-109597500D01*
X148557998Y-109665621D01*
X148504342Y-109712114D01*
X148452000Y-109723500D01*
X90704000Y-109723500D01*
X90635879Y-109703498D01*
X90589386Y-109649842D01*
X90578000Y-109597500D01*
X90578000Y-105712739D01*
X90598002Y-105644618D01*
X90651658Y-105598125D01*
X90721932Y-105588021D01*
X90786512Y-105617515D01*
X90793095Y-105623644D01*
X93007685Y-107838234D01*
X93018552Y-107850625D01*
X93038013Y-107875987D01*
X93044563Y-107881013D01*
X93069925Y-107900474D01*
X93069928Y-107900477D01*
X93131728Y-107947898D01*
X93165124Y-107973524D01*
X93313149Y-108034838D01*
X93321336Y-108035916D01*
X93321337Y-108035916D01*
X93332542Y-108037391D01*
X93363738Y-108041498D01*
X93432115Y-108050500D01*
X93432118Y-108050500D01*
X93432126Y-108050501D01*
X93463811Y-108054672D01*
X93472000Y-108055750D01*
X93503693Y-108051578D01*
X93520136Y-108050500D01*
X117934864Y-108050500D01*
X117951307Y-108051578D01*
X117983000Y-108055750D01*
X117991189Y-108054672D01*
X118022874Y-108050501D01*
X118022884Y-108050500D01*
X118022885Y-108050500D01*
X118022901Y-108050498D01*
X118122457Y-108037391D01*
X118133664Y-108035916D01*
X118133666Y-108035915D01*
X118141851Y-108034838D01*
X118289876Y-107973524D01*
X118323273Y-107947898D01*
X118385072Y-107900477D01*
X118385075Y-107900474D01*
X118410434Y-107881015D01*
X118416987Y-107875987D01*
X118422017Y-107869432D01*
X118436452Y-107850621D01*
X118447319Y-107838230D01*
X118960144Y-107325405D01*
X119022456Y-107291379D01*
X119049239Y-107288500D01*
X135841864Y-107288500D01*
X135858307Y-107289578D01*
X135890000Y-107293750D01*
X135898189Y-107292672D01*
X135929874Y-107288501D01*
X135929884Y-107288500D01*
X135929885Y-107288500D01*
X136029457Y-107275391D01*
X136040664Y-107273916D01*
X136040666Y-107273915D01*
X136048851Y-107272838D01*
X136196876Y-107211524D01*
X136292072Y-107138477D01*
X136292075Y-107138474D01*
X136323987Y-107113987D01*
X136329017Y-107107432D01*
X136343452Y-107088621D01*
X136354319Y-107076230D01*
X137429234Y-106001315D01*
X137441625Y-105990448D01*
X137460437Y-105976013D01*
X137466987Y-105970987D01*
X137491474Y-105939075D01*
X137491480Y-105939069D01*
X137559496Y-105850429D01*
X137559497Y-105850427D01*
X137564524Y-105843876D01*
X137625838Y-105695851D01*
X137633128Y-105640477D01*
X137641500Y-105576885D01*
X137641500Y-105576880D01*
X137646750Y-105537000D01*
X137642578Y-105505307D01*
X137641500Y-105488864D01*
X137641500Y-102156136D01*
X137642578Y-102139690D01*
X137645672Y-102116188D01*
X137646750Y-102108000D01*
X137641500Y-102068122D01*
X137641500Y-102068115D01*
X137625838Y-101949150D01*
X137564524Y-101801125D01*
X137502154Y-101719843D01*
X137502151Y-101719839D01*
X137491514Y-101705976D01*
X137491507Y-101705967D01*
X137491477Y-101705928D01*
X137491474Y-101705925D01*
X137466987Y-101674013D01*
X137460437Y-101668987D01*
X137460434Y-101668984D01*
X137446464Y-101658265D01*
X137404596Y-101600928D01*
X137397952Y-101572344D01*
X137397116Y-101564892D01*
X137396331Y-101557892D01*
X137389006Y-101536856D01*
X137342686Y-101403846D01*
X137340368Y-101397189D01*
X137279645Y-101300013D01*
X137260500Y-101233245D01*
X137260500Y-97266890D01*
X137281552Y-97197163D01*
X137311987Y-97151355D01*
X137330891Y-97122902D01*
X137391319Y-96963825D01*
X137415001Y-96795313D01*
X137415299Y-96774000D01*
X137396331Y-96604892D01*
X137340368Y-96444189D01*
X137279645Y-96347013D01*
X137260500Y-96280245D01*
X137260500Y-92186890D01*
X137281552Y-92117163D01*
X137311987Y-92071355D01*
X137330891Y-92042902D01*
X137391319Y-91883825D01*
X137415001Y-91715313D01*
X137415194Y-91701500D01*
X137415244Y-91697961D01*
X137415244Y-91697955D01*
X137415299Y-91694000D01*
X137396331Y-91524892D01*
X137394014Y-91518238D01*
X137392454Y-91511373D01*
X137393083Y-91511230D01*
X137387500Y-91478223D01*
X137387500Y-90032343D01*
X142746775Y-90032343D01*
X142763381Y-90201699D01*
X142817094Y-90363167D01*
X142820741Y-90369189D01*
X142820742Y-90369191D01*
X142895975Y-90493414D01*
X142905246Y-90508723D01*
X143023455Y-90631132D01*
X143165846Y-90724310D01*
X143172450Y-90726766D01*
X143172452Y-90726767D01*
X143221686Y-90745077D01*
X143325341Y-90783626D01*
X143494015Y-90806132D01*
X143501026Y-90805494D01*
X143501030Y-90805494D01*
X143656462Y-90791348D01*
X143663483Y-90790709D01*
X143670185Y-90788531D01*
X143670187Y-90788531D01*
X143818623Y-90740301D01*
X143818626Y-90740300D01*
X143825322Y-90738124D01*
X143971490Y-90650990D01*
X143976584Y-90646139D01*
X143976588Y-90646136D01*
X144067472Y-90559588D01*
X144094721Y-90533639D01*
X144121447Y-90493414D01*
X144184990Y-90397773D01*
X144188891Y-90391902D01*
X144249319Y-90232825D01*
X144253694Y-90201699D01*
X144260450Y-90153624D01*
X144289738Y-90088950D01*
X144296129Y-90082065D01*
X145477789Y-88900405D01*
X145540101Y-88866379D01*
X145566884Y-88863500D01*
X146668634Y-88863500D01*
X146736755Y-88883502D01*
X146776067Y-88923665D01*
X146791722Y-88949212D01*
X146874987Y-89085088D01*
X147021250Y-89253938D01*
X147193126Y-89396632D01*
X147263595Y-89437811D01*
X147266445Y-89439476D01*
X147315169Y-89491114D01*
X147328240Y-89560897D01*
X147301509Y-89626669D01*
X147261055Y-89660027D01*
X147248607Y-89666507D01*
X147244474Y-89669610D01*
X147244471Y-89669612D01*
X147080524Y-89792707D01*
X147069965Y-89800635D01*
X146915629Y-89962138D01*
X146789743Y-90146680D01*
X146695688Y-90349305D01*
X146635989Y-90564570D01*
X146612251Y-90786695D01*
X146612548Y-90791848D01*
X146612548Y-90791851D01*
X146623901Y-90988741D01*
X146625110Y-91009715D01*
X146626247Y-91014761D01*
X146626248Y-91014767D01*
X146647207Y-91107767D01*
X146674222Y-91227639D01*
X146758266Y-91434616D01*
X146874987Y-91625088D01*
X146878367Y-91628990D01*
X146990015Y-91757879D01*
X147021250Y-91793938D01*
X147020684Y-91794429D01*
X147053334Y-91852749D01*
X147049019Y-91923615D01*
X147019599Y-91969928D01*
X143638293Y-95351234D01*
X143625903Y-95362101D01*
X143601843Y-95380563D01*
X143596820Y-95387109D01*
X143559405Y-95435869D01*
X143515272Y-95493385D01*
X143508314Y-95502453D01*
X143449519Y-95644396D01*
X143429465Y-95796720D01*
X143430543Y-95804908D01*
X143433422Y-95826776D01*
X143434500Y-95843223D01*
X143434500Y-96623054D01*
X143414411Y-96691309D01*
X143334304Y-96815610D01*
X143276103Y-96975516D01*
X143254775Y-97144343D01*
X143271381Y-97313699D01*
X143325094Y-97475167D01*
X143328741Y-97481189D01*
X143328742Y-97481191D01*
X143397519Y-97594754D01*
X143413246Y-97620723D01*
X143531455Y-97743132D01*
X143673846Y-97836310D01*
X143680450Y-97838766D01*
X143680452Y-97838767D01*
X143716844Y-97852301D01*
X143833341Y-97895626D01*
X144002015Y-97918132D01*
X144009026Y-97917494D01*
X144009030Y-97917494D01*
X144164462Y-97903348D01*
X144171483Y-97902709D01*
X144178185Y-97900531D01*
X144178187Y-97900531D01*
X144326623Y-97852301D01*
X144326626Y-97852300D01*
X144333322Y-97850124D01*
X144479490Y-97762990D01*
X144484584Y-97758139D01*
X144484588Y-97758136D01*
X144553896Y-97692134D01*
X144602721Y-97645639D01*
X144675747Y-97535726D01*
X144730104Y-97490057D01*
X144800523Y-97481025D01*
X144864647Y-97511499D01*
X144888470Y-97540184D01*
X144921519Y-97594754D01*
X144937246Y-97620723D01*
X145055455Y-97743132D01*
X145197846Y-97836310D01*
X145204450Y-97838766D01*
X145204452Y-97838767D01*
X145240844Y-97852301D01*
X145357341Y-97895626D01*
X145526015Y-97918132D01*
X145533026Y-97917494D01*
X145533030Y-97917494D01*
X145688462Y-97903348D01*
X145695483Y-97902709D01*
X145702185Y-97900531D01*
X145702187Y-97900531D01*
X145850623Y-97852301D01*
X145850626Y-97852300D01*
X145857322Y-97850124D01*
X146003490Y-97762990D01*
X146008584Y-97758139D01*
X146008588Y-97758136D01*
X146077896Y-97692134D01*
X146126721Y-97645639D01*
X146147385Y-97614538D01*
X146199746Y-97535727D01*
X146220891Y-97503902D01*
X146281319Y-97344825D01*
X146305001Y-97176313D01*
X146305299Y-97155000D01*
X146286331Y-96985892D01*
X146278647Y-96963825D01*
X146247635Y-96874773D01*
X146230368Y-96825189D01*
X146224383Y-96815610D01*
X146144646Y-96688007D01*
X146125500Y-96621237D01*
X146125500Y-96086883D01*
X146145502Y-96018762D01*
X146162405Y-95997788D01*
X147462121Y-94698073D01*
X147524433Y-94664047D01*
X147586365Y-94666170D01*
X147589865Y-94667187D01*
X147594692Y-94669030D01*
X147813597Y-94713567D01*
X147818772Y-94713757D01*
X147818774Y-94713757D01*
X148031673Y-94721564D01*
X148031677Y-94721564D01*
X148036837Y-94721753D01*
X148041957Y-94721097D01*
X148041959Y-94721097D01*
X148253288Y-94694025D01*
X148253289Y-94694025D01*
X148258416Y-94693368D01*
X148263366Y-94691883D01*
X148467429Y-94630661D01*
X148467434Y-94630659D01*
X148472384Y-94629174D01*
X148672994Y-94530896D01*
X148854860Y-94401173D01*
X149013096Y-94243489D01*
X149143453Y-94062077D01*
X149144776Y-94063028D01*
X149191645Y-94019857D01*
X149261580Y-94007625D01*
X149327026Y-94035144D01*
X149354875Y-94066994D01*
X149414987Y-94165088D01*
X149561250Y-94333938D01*
X149733126Y-94476632D01*
X149926000Y-94589338D01*
X150134692Y-94669030D01*
X150139760Y-94670061D01*
X150139763Y-94670062D01*
X150247017Y-94691883D01*
X150353597Y-94713567D01*
X150358772Y-94713757D01*
X150358774Y-94713757D01*
X150571673Y-94721564D01*
X150571677Y-94721564D01*
X150576837Y-94721753D01*
X150581957Y-94721097D01*
X150581959Y-94721097D01*
X150793288Y-94694025D01*
X150793289Y-94694025D01*
X150798416Y-94693368D01*
X150803366Y-94691883D01*
X151007429Y-94630661D01*
X151007434Y-94630659D01*
X151012384Y-94629174D01*
X151212994Y-94530896D01*
X151394860Y-94401173D01*
X151553096Y-94243489D01*
X151683453Y-94062077D01*
X151704320Y-94019857D01*
X151780136Y-93866453D01*
X151780137Y-93866451D01*
X151782430Y-93861811D01*
X151847370Y-93648069D01*
X151876529Y-93426590D01*
X151877213Y-93398615D01*
X151878074Y-93363365D01*
X151878074Y-93363361D01*
X151878156Y-93360000D01*
X151859852Y-93137361D01*
X151805431Y-92920702D01*
X151716354Y-92715840D01*
X151624797Y-92574314D01*
X151597822Y-92532617D01*
X151597820Y-92532614D01*
X151595014Y-92528277D01*
X151444670Y-92363051D01*
X151440619Y-92359852D01*
X151440615Y-92359848D01*
X151273414Y-92227800D01*
X151273410Y-92227798D01*
X151269359Y-92224598D01*
X151228053Y-92201796D01*
X151178084Y-92151364D01*
X151163312Y-92081921D01*
X151188428Y-92015516D01*
X151215780Y-91988909D01*
X151320273Y-91914375D01*
X151394860Y-91861173D01*
X151403314Y-91852749D01*
X151498516Y-91757879D01*
X151553096Y-91703489D01*
X151559915Y-91694000D01*
X151680435Y-91526277D01*
X151683453Y-91522077D01*
X151730385Y-91427118D01*
X151780136Y-91326453D01*
X151780137Y-91326451D01*
X151782430Y-91321811D01*
X151823632Y-91186200D01*
X151845865Y-91113023D01*
X151845865Y-91113021D01*
X151847370Y-91108069D01*
X151876529Y-90886590D01*
X151876611Y-90883240D01*
X151878074Y-90823365D01*
X151878074Y-90823361D01*
X151878156Y-90820000D01*
X151859852Y-90597361D01*
X151805431Y-90380702D01*
X151716354Y-90175840D01*
X151618997Y-90025349D01*
X151597822Y-89992617D01*
X151597820Y-89992614D01*
X151595014Y-89988277D01*
X151444670Y-89823051D01*
X151440619Y-89819852D01*
X151440615Y-89819848D01*
X151273414Y-89687800D01*
X151273410Y-89687798D01*
X151269359Y-89684598D01*
X151228053Y-89661796D01*
X151178084Y-89611364D01*
X151163312Y-89541921D01*
X151188428Y-89475516D01*
X151215780Y-89448909D01*
X151279315Y-89403590D01*
X151394860Y-89321173D01*
X151402106Y-89313953D01*
X151476209Y-89240107D01*
X151553096Y-89163489D01*
X151559915Y-89154000D01*
X151680435Y-88986277D01*
X151683453Y-88982077D01*
X151704320Y-88939857D01*
X151780136Y-88786453D01*
X151780137Y-88786451D01*
X151782430Y-88781811D01*
X151823632Y-88646200D01*
X151845865Y-88573023D01*
X151845865Y-88573021D01*
X151847370Y-88568069D01*
X151876529Y-88346590D01*
X151876611Y-88343240D01*
X151878074Y-88283365D01*
X151878074Y-88283361D01*
X151878156Y-88280000D01*
X151859852Y-88057361D01*
X151805431Y-87840702D01*
X151716354Y-87635840D01*
X151663532Y-87554189D01*
X151597822Y-87452617D01*
X151597820Y-87452614D01*
X151595014Y-87448277D01*
X151444670Y-87283051D01*
X151440619Y-87279852D01*
X151440615Y-87279848D01*
X151273414Y-87147800D01*
X151273410Y-87147798D01*
X151269359Y-87144598D01*
X151228053Y-87121796D01*
X151178084Y-87071364D01*
X151163312Y-87001921D01*
X151188428Y-86935516D01*
X151215780Y-86908909D01*
X151279001Y-86863814D01*
X151394860Y-86781173D01*
X151553096Y-86623489D01*
X151559915Y-86614000D01*
X151680435Y-86446277D01*
X151683453Y-86442077D01*
X151689588Y-86429665D01*
X151780136Y-86246453D01*
X151780137Y-86246451D01*
X151782430Y-86241811D01*
X151847370Y-86028069D01*
X151876529Y-85806590D01*
X151877292Y-85775375D01*
X151878074Y-85743365D01*
X151878074Y-85743361D01*
X151878156Y-85740000D01*
X151859852Y-85517361D01*
X151805431Y-85300702D01*
X151716354Y-85095840D01*
X151676906Y-85034862D01*
X151597822Y-84912617D01*
X151597820Y-84912614D01*
X151595014Y-84908277D01*
X151444670Y-84743051D01*
X151440619Y-84739852D01*
X151440615Y-84739848D01*
X151273414Y-84607800D01*
X151273410Y-84607798D01*
X151269359Y-84604598D01*
X151228053Y-84581796D01*
X151178084Y-84531364D01*
X151163312Y-84461921D01*
X151188428Y-84395516D01*
X151215780Y-84368909D01*
X151259603Y-84337650D01*
X151394860Y-84241173D01*
X151553096Y-84083489D01*
X151597254Y-84022037D01*
X151680435Y-83906277D01*
X151683453Y-83902077D01*
X151704320Y-83859857D01*
X151780136Y-83706453D01*
X151780137Y-83706451D01*
X151782430Y-83701811D01*
X151847370Y-83488069D01*
X151876529Y-83266590D01*
X151876611Y-83263240D01*
X151878074Y-83203365D01*
X151878074Y-83203361D01*
X151878156Y-83200000D01*
X151859852Y-82977361D01*
X151805431Y-82760702D01*
X151716354Y-82555840D01*
X151671328Y-82486240D01*
X151597822Y-82372617D01*
X151597820Y-82372614D01*
X151595014Y-82368277D01*
X151444670Y-82203051D01*
X151440619Y-82199852D01*
X151440615Y-82199848D01*
X151273414Y-82067800D01*
X151273410Y-82067798D01*
X151269359Y-82064598D01*
X151228053Y-82041796D01*
X151178084Y-81991364D01*
X151163312Y-81921921D01*
X151188428Y-81855516D01*
X151215780Y-81828909D01*
X151300737Y-81768310D01*
X151394860Y-81701173D01*
X151409863Y-81686223D01*
X151483643Y-81612700D01*
X151553096Y-81543489D01*
X151623591Y-81445385D01*
X151680435Y-81366277D01*
X151683453Y-81362077D01*
X151689588Y-81349665D01*
X151780136Y-81166453D01*
X151780137Y-81166451D01*
X151782430Y-81161811D01*
X151847370Y-80948069D01*
X151876529Y-80726590D01*
X151876611Y-80723240D01*
X151878074Y-80663365D01*
X151878074Y-80663361D01*
X151878156Y-80660000D01*
X151859852Y-80437361D01*
X151805431Y-80220702D01*
X151716354Y-80015840D01*
X151640618Y-79898770D01*
X151597822Y-79832617D01*
X151597820Y-79832614D01*
X151595014Y-79828277D01*
X151444670Y-79663051D01*
X151440619Y-79659852D01*
X151440615Y-79659848D01*
X151273414Y-79527800D01*
X151273410Y-79527798D01*
X151269359Y-79524598D01*
X151228053Y-79501796D01*
X151178084Y-79451364D01*
X151163312Y-79381921D01*
X151188428Y-79315516D01*
X151215780Y-79288909D01*
X151259603Y-79257650D01*
X151394860Y-79161173D01*
X151553096Y-79003489D01*
X151578761Y-78967773D01*
X151680435Y-78826277D01*
X151683453Y-78822077D01*
X151687650Y-78813586D01*
X151780136Y-78626453D01*
X151780137Y-78626451D01*
X151782430Y-78621811D01*
X151826931Y-78475343D01*
X151845865Y-78413023D01*
X151845865Y-78413021D01*
X151847370Y-78408069D01*
X151876529Y-78186590D01*
X151878156Y-78120000D01*
X151859852Y-77897361D01*
X151805431Y-77680702D01*
X151716354Y-77475840D01*
X151595014Y-77288277D01*
X151576885Y-77268353D01*
X151447798Y-77126488D01*
X151416746Y-77062642D01*
X151425141Y-76992143D01*
X151470317Y-76937375D01*
X151496761Y-76923706D01*
X151603297Y-76883767D01*
X151611705Y-76880615D01*
X151728261Y-76793261D01*
X151815615Y-76676705D01*
X151866745Y-76540316D01*
X151873500Y-76478134D01*
X151873500Y-74681866D01*
X151866745Y-74619684D01*
X151815615Y-74483295D01*
X151728261Y-74366739D01*
X151611705Y-74279385D01*
X151475316Y-74228255D01*
X151413134Y-74221500D01*
X149616866Y-74221500D01*
X149554684Y-74228255D01*
X149418295Y-74279385D01*
X149301739Y-74366739D01*
X149214385Y-74483295D01*
X149211233Y-74491703D01*
X149169919Y-74601907D01*
X149127277Y-74658671D01*
X149060716Y-74683371D01*
X148991367Y-74668163D01*
X148958743Y-74642476D01*
X148908151Y-74586875D01*
X148908142Y-74586866D01*
X148904670Y-74583051D01*
X148900619Y-74579852D01*
X148900615Y-74579848D01*
X148733414Y-74447800D01*
X148733410Y-74447798D01*
X148729359Y-74444598D01*
X148533789Y-74336638D01*
X148528920Y-74334914D01*
X148528916Y-74334912D01*
X148328087Y-74263795D01*
X148328083Y-74263794D01*
X148323212Y-74262069D01*
X148318119Y-74261162D01*
X148318116Y-74261161D01*
X148108373Y-74223800D01*
X148108367Y-74223799D01*
X148103284Y-74222894D01*
X148029452Y-74221992D01*
X147885081Y-74220228D01*
X147885079Y-74220228D01*
X147879911Y-74220165D01*
X147659091Y-74253955D01*
X147446756Y-74323357D01*
X147248607Y-74426507D01*
X147244474Y-74429610D01*
X147244471Y-74429612D01*
X147074100Y-74557530D01*
X147069965Y-74560635D01*
X147030525Y-74601907D01*
X146976280Y-74658671D01*
X146915629Y-74722138D01*
X146912715Y-74726410D01*
X146912714Y-74726411D01*
X146801148Y-74889961D01*
X146746237Y-74934964D01*
X146675712Y-74943135D01*
X146607965Y-74908052D01*
X145654405Y-73954492D01*
X145620379Y-73892180D01*
X145617500Y-73865397D01*
X145617500Y-73809518D01*
X145638552Y-73739791D01*
X145708990Y-73633773D01*
X145712891Y-73627902D01*
X145773319Y-73468825D01*
X145797001Y-73300313D01*
X145797299Y-73279000D01*
X145778331Y-73109892D01*
X145722368Y-72949189D01*
X145716383Y-72939610D01*
X145669084Y-72863918D01*
X145632192Y-72804879D01*
X145608036Y-72780553D01*
X145517248Y-72689129D01*
X145512286Y-72684132D01*
X145496039Y-72673821D01*
X145457406Y-72649304D01*
X145368608Y-72592951D01*
X145208300Y-72535868D01*
X145039329Y-72515720D01*
X145032326Y-72516456D01*
X145032325Y-72516456D01*
X144877101Y-72532770D01*
X144877097Y-72532771D01*
X144870093Y-72533507D01*
X144863422Y-72535778D01*
X144715673Y-72586075D01*
X144715670Y-72586076D01*
X144709003Y-72588346D01*
X144703005Y-72592036D01*
X144703003Y-72592037D01*
X144570065Y-72673821D01*
X144570063Y-72673823D01*
X144564066Y-72677512D01*
X144486993Y-72752988D01*
X144424331Y-72786358D01*
X144353572Y-72780553D01*
X144309431Y-72751748D01*
X144247248Y-72689129D01*
X144242286Y-72684132D01*
X144226039Y-72673821D01*
X144187406Y-72649304D01*
X144098608Y-72592951D01*
X143938300Y-72535868D01*
X143769329Y-72515720D01*
X143762326Y-72516456D01*
X143762325Y-72516456D01*
X143607101Y-72532770D01*
X143607097Y-72532771D01*
X143600093Y-72533507D01*
X143593422Y-72535778D01*
X143445673Y-72586075D01*
X143445670Y-72586076D01*
X143439003Y-72588346D01*
X143433005Y-72592036D01*
X143433003Y-72592037D01*
X143300065Y-72673821D01*
X143300063Y-72673823D01*
X143294066Y-72677512D01*
X143172486Y-72796573D01*
X143168675Y-72802487D01*
X143168673Y-72802489D01*
X143084121Y-72933687D01*
X143080304Y-72939610D01*
X143022103Y-73099516D01*
X143000775Y-73268343D01*
X143017381Y-73437699D01*
X143071094Y-73599167D01*
X143074741Y-73605189D01*
X143074742Y-73605191D01*
X143159246Y-73744723D01*
X143157677Y-73745673D01*
X143180044Y-73803217D01*
X143180500Y-73813928D01*
X143180500Y-73862497D01*
X143179422Y-73878944D01*
X143175465Y-73909000D01*
X143180500Y-73947244D01*
X143195519Y-74061324D01*
X143254314Y-74203267D01*
X143347843Y-74325157D01*
X143354389Y-74330180D01*
X143371902Y-74343618D01*
X143384293Y-74354486D01*
X146640130Y-77610323D01*
X146674156Y-77672635D01*
X146672452Y-77733090D01*
X146635989Y-77864570D01*
X146612251Y-78086695D01*
X146612548Y-78091848D01*
X146612548Y-78091851D01*
X146622687Y-78267687D01*
X146625110Y-78309715D01*
X146626247Y-78314761D01*
X146626248Y-78314767D01*
X146641292Y-78381518D01*
X146674222Y-78527639D01*
X146722595Y-78646768D01*
X146739149Y-78687535D01*
X146758266Y-78734616D01*
X146795787Y-78795845D01*
X146872291Y-78920688D01*
X146874987Y-78925088D01*
X147021250Y-79093938D01*
X147193126Y-79236632D01*
X147237557Y-79262595D01*
X147266445Y-79279476D01*
X147315169Y-79331114D01*
X147328240Y-79400897D01*
X147301509Y-79466669D01*
X147261055Y-79500027D01*
X147248607Y-79506507D01*
X147244474Y-79509610D01*
X147244471Y-79509612D01*
X147080524Y-79632707D01*
X147069965Y-79640635D01*
X146915629Y-79802138D01*
X146912720Y-79806403D01*
X146912714Y-79806411D01*
X146827556Y-79931249D01*
X146789743Y-79986680D01*
X146775828Y-80016657D01*
X146698471Y-80183310D01*
X146695688Y-80189305D01*
X146635989Y-80404570D01*
X146612251Y-80626695D01*
X146612548Y-80631848D01*
X146612548Y-80631851D01*
X146622445Y-80803489D01*
X146625110Y-80849715D01*
X146626247Y-80854761D01*
X146626248Y-80854767D01*
X146645594Y-80940610D01*
X146674222Y-81067639D01*
X146758266Y-81274616D01*
X146783434Y-81315687D01*
X146804256Y-81349665D01*
X146822794Y-81418199D01*
X146801338Y-81485876D01*
X146746698Y-81531208D01*
X146696823Y-81541500D01*
X146553883Y-81541500D01*
X146485762Y-81521498D01*
X146464788Y-81504595D01*
X145566682Y-80606489D01*
X145532656Y-80544177D01*
X145530562Y-80531440D01*
X145525116Y-80482890D01*
X145524331Y-80475892D01*
X145521061Y-80466500D01*
X145491689Y-80382157D01*
X145468368Y-80315189D01*
X145462383Y-80305610D01*
X145439226Y-80268552D01*
X145378192Y-80170879D01*
X145258286Y-80050132D01*
X145242039Y-80039821D01*
X145186572Y-80004621D01*
X145114608Y-79958951D01*
X144954300Y-79901868D01*
X144785329Y-79881720D01*
X144778326Y-79882456D01*
X144778325Y-79882456D01*
X144623101Y-79898770D01*
X144623097Y-79898771D01*
X144616093Y-79899507D01*
X144609422Y-79901778D01*
X144461673Y-79952075D01*
X144461670Y-79952076D01*
X144455003Y-79954346D01*
X144449005Y-79958036D01*
X144449003Y-79958037D01*
X144316065Y-80039821D01*
X144316063Y-80039823D01*
X144310066Y-80043512D01*
X144188486Y-80162573D01*
X144184675Y-80168487D01*
X144184673Y-80168489D01*
X144120186Y-80268552D01*
X144096304Y-80305610D01*
X144093895Y-80312230D01*
X144093892Y-80312235D01*
X144089251Y-80324986D01*
X144047156Y-80382157D01*
X143994494Y-80403046D01*
X143994980Y-80405257D01*
X143988094Y-80406771D01*
X143981093Y-80407507D01*
X143908140Y-80432342D01*
X143826673Y-80460075D01*
X143826670Y-80460076D01*
X143820003Y-80462346D01*
X143814005Y-80466036D01*
X143814003Y-80466037D01*
X143681065Y-80547821D01*
X143681063Y-80547823D01*
X143675066Y-80551512D01*
X143670033Y-80556441D01*
X143560847Y-80663365D01*
X143553486Y-80670573D01*
X143549675Y-80676487D01*
X143549673Y-80676489D01*
X143465121Y-80807687D01*
X143461304Y-80813610D01*
X143403103Y-80973516D01*
X143381775Y-81142343D01*
X143398381Y-81311699D01*
X143400605Y-81318384D01*
X143400605Y-81318385D01*
X143413596Y-81357438D01*
X143452094Y-81473167D01*
X143455741Y-81479189D01*
X143455742Y-81479191D01*
X143524961Y-81593484D01*
X143540246Y-81618723D01*
X143658455Y-81741132D01*
X143800846Y-81834310D01*
X143807450Y-81836766D01*
X143807452Y-81836767D01*
X143953731Y-81891168D01*
X143953733Y-81891169D01*
X143960341Y-81893626D01*
X143967326Y-81894558D01*
X143967330Y-81894559D01*
X144008368Y-81900034D01*
X144033572Y-81903397D01*
X144098448Y-81932232D01*
X144106002Y-81939195D01*
X145746514Y-83579707D01*
X145757381Y-83592097D01*
X145775843Y-83616157D01*
X145806446Y-83639639D01*
X145806447Y-83639640D01*
X145890188Y-83703897D01*
X145897732Y-83709686D01*
X145968704Y-83739083D01*
X146032046Y-83765321D01*
X146032049Y-83765322D01*
X146039676Y-83768481D01*
X146192000Y-83788535D01*
X146200188Y-83787457D01*
X146222056Y-83784578D01*
X146238503Y-83783500D01*
X146668634Y-83783500D01*
X146736755Y-83803502D01*
X146776067Y-83843665D01*
X146795357Y-83875144D01*
X146874987Y-84005088D01*
X147021250Y-84173938D01*
X147193126Y-84316632D01*
X147263595Y-84357811D01*
X147266445Y-84359476D01*
X147315169Y-84411114D01*
X147328240Y-84480897D01*
X147301509Y-84546669D01*
X147261055Y-84580027D01*
X147248607Y-84586507D01*
X147244474Y-84589610D01*
X147244471Y-84589612D01*
X147080524Y-84712707D01*
X147069965Y-84720635D01*
X146915629Y-84882138D01*
X146789743Y-85066680D01*
X146695688Y-85269305D01*
X146635989Y-85484570D01*
X146612251Y-85706695D01*
X146612548Y-85711848D01*
X146612548Y-85711851D01*
X146617978Y-85806016D01*
X146625110Y-85929715D01*
X146626247Y-85934761D01*
X146626248Y-85934767D01*
X146645594Y-86020610D01*
X146674222Y-86147639D01*
X146719125Y-86258223D01*
X146741442Y-86313182D01*
X146758266Y-86354616D01*
X146785088Y-86398385D01*
X146804256Y-86429665D01*
X146822794Y-86498199D01*
X146801338Y-86565876D01*
X146746698Y-86611208D01*
X146696823Y-86621500D01*
X144489503Y-86621500D01*
X144473056Y-86620422D01*
X144451188Y-86617543D01*
X144443000Y-86616465D01*
X144404756Y-86621500D01*
X144290676Y-86636519D01*
X144148733Y-86695314D01*
X144026843Y-86788843D01*
X144021820Y-86795389D01*
X144008382Y-86812902D01*
X143997514Y-86825293D01*
X143725454Y-87097353D01*
X143663142Y-87131379D01*
X143621441Y-87133372D01*
X143553319Y-87125250D01*
X143515329Y-87120720D01*
X143508326Y-87121456D01*
X143508325Y-87121456D01*
X143353101Y-87137770D01*
X143353097Y-87137771D01*
X143346093Y-87138507D01*
X143339422Y-87140778D01*
X143191673Y-87191075D01*
X143191670Y-87191076D01*
X143185003Y-87193346D01*
X143179005Y-87197036D01*
X143179003Y-87197037D01*
X143046065Y-87278821D01*
X143046063Y-87278823D01*
X143040066Y-87282512D01*
X142918486Y-87401573D01*
X142914675Y-87407487D01*
X142914673Y-87407489D01*
X142905434Y-87421825D01*
X142826304Y-87544610D01*
X142822818Y-87554189D01*
X142772371Y-87692791D01*
X142768103Y-87704516D01*
X142746775Y-87873343D01*
X142763381Y-88042699D01*
X142817094Y-88204167D01*
X142820741Y-88210189D01*
X142820742Y-88210191D01*
X142901320Y-88343240D01*
X142905246Y-88349723D01*
X143023455Y-88472132D01*
X143029351Y-88475990D01*
X143137548Y-88546792D01*
X143165846Y-88565310D01*
X143172450Y-88567766D01*
X143172452Y-88567767D01*
X143215136Y-88583641D01*
X143325341Y-88624626D01*
X143494015Y-88647132D01*
X143501026Y-88646494D01*
X143501030Y-88646494D01*
X143656462Y-88632348D01*
X143663483Y-88631709D01*
X143670185Y-88629531D01*
X143670187Y-88629531D01*
X143805179Y-88585669D01*
X143876146Y-88583641D01*
X143936944Y-88620304D01*
X143968270Y-88684016D01*
X143960177Y-88754550D01*
X143933210Y-88794597D01*
X143471741Y-89256066D01*
X143409429Y-89290092D01*
X143395818Y-89292281D01*
X143379532Y-89293992D01*
X143353094Y-89296771D01*
X143353093Y-89296771D01*
X143346093Y-89297507D01*
X143276574Y-89321173D01*
X143191673Y-89350075D01*
X143191670Y-89350076D01*
X143185003Y-89352346D01*
X143179005Y-89356036D01*
X143179003Y-89356037D01*
X143046065Y-89437821D01*
X143046063Y-89437823D01*
X143040066Y-89441512D01*
X143005343Y-89475516D01*
X142927448Y-89551797D01*
X142918486Y-89560573D01*
X142914675Y-89566487D01*
X142914673Y-89566489D01*
X142836493Y-89687800D01*
X142826304Y-89703610D01*
X142823894Y-89710232D01*
X142772137Y-89852434D01*
X142768103Y-89863516D01*
X142746775Y-90032343D01*
X137387500Y-90032343D01*
X137387500Y-86852890D01*
X137408552Y-86783163D01*
X137428672Y-86752880D01*
X137457891Y-86708902D01*
X137518319Y-86549825D01*
X137542001Y-86381313D01*
X137542299Y-86360000D01*
X137523331Y-86190892D01*
X137506513Y-86142596D01*
X137479105Y-86063892D01*
X137467368Y-86030189D01*
X137406645Y-85933013D01*
X137387500Y-85866245D01*
X137387500Y-81772890D01*
X137408552Y-81703163D01*
X137438987Y-81657355D01*
X137457891Y-81628902D01*
X137518319Y-81469825D01*
X137526904Y-81408735D01*
X137551716Y-81349568D01*
X137564524Y-81332876D01*
X137605839Y-81233132D01*
X137625838Y-81184850D01*
X137641500Y-81065885D01*
X137641500Y-81065878D01*
X137646750Y-81026000D01*
X137642578Y-80994307D01*
X137641500Y-80977864D01*
X137641500Y-79105890D01*
X137662552Y-79036163D01*
X137669877Y-79025138D01*
X137711891Y-78961902D01*
X137772319Y-78802825D01*
X137773399Y-78795144D01*
X137778164Y-78761233D01*
X137796001Y-78634313D01*
X137796299Y-78613000D01*
X137777331Y-78443892D01*
X137721368Y-78283189D01*
X137715383Y-78273610D01*
X137692954Y-78237717D01*
X137631192Y-78138879D01*
X137612445Y-78120000D01*
X137533821Y-78040825D01*
X137511286Y-78018132D01*
X137495039Y-78007821D01*
X137456406Y-77983304D01*
X137367608Y-77926951D01*
X137207300Y-77869868D01*
X137038329Y-77849720D01*
X137031326Y-77850456D01*
X137031325Y-77850456D01*
X136876101Y-77866770D01*
X136876097Y-77866771D01*
X136869093Y-77867507D01*
X136862422Y-77869778D01*
X136714673Y-77920075D01*
X136714670Y-77920076D01*
X136708003Y-77922346D01*
X136702005Y-77926036D01*
X136702003Y-77926037D01*
X136569065Y-78007821D01*
X136569063Y-78007823D01*
X136563066Y-78011512D01*
X136492510Y-78080607D01*
X136448847Y-78123365D01*
X136441486Y-78130573D01*
X136437675Y-78136487D01*
X136437673Y-78136489D01*
X136368044Y-78244531D01*
X136349304Y-78273610D01*
X136291103Y-78433516D01*
X136269775Y-78602343D01*
X136286381Y-78771699D01*
X136340094Y-78933167D01*
X136343741Y-78939189D01*
X136343742Y-78939191D01*
X136406276Y-79042447D01*
X136424500Y-79107718D01*
X136424500Y-80537077D01*
X136404498Y-80605198D01*
X136364523Y-80644394D01*
X136344608Y-80656646D01*
X136309066Y-80678512D01*
X136304034Y-80683439D01*
X136304031Y-80683442D01*
X136198440Y-80786846D01*
X136187486Y-80797573D01*
X136183675Y-80803487D01*
X136183673Y-80803489D01*
X136149227Y-80856938D01*
X136095304Y-80940610D01*
X136037103Y-81100516D01*
X136015775Y-81269343D01*
X136032381Y-81438699D01*
X136034605Y-81445384D01*
X136034605Y-81445385D01*
X136050076Y-81491892D01*
X136086094Y-81600167D01*
X136089741Y-81606189D01*
X136089742Y-81606191D01*
X136152276Y-81709447D01*
X136170500Y-81774718D01*
X136170500Y-85866846D01*
X136150411Y-85935101D01*
X136095304Y-86020610D01*
X136037103Y-86180516D01*
X136015775Y-86349343D01*
X136032381Y-86518699D01*
X136086094Y-86680167D01*
X136089741Y-86686189D01*
X136089742Y-86686191D01*
X136152276Y-86789447D01*
X136170500Y-86854718D01*
X136170500Y-91050873D01*
X136150498Y-91118994D01*
X136132658Y-91140896D01*
X136072054Y-91200245D01*
X136060486Y-91211573D01*
X136056675Y-91217487D01*
X136056673Y-91217489D01*
X135995672Y-91312144D01*
X135968304Y-91354610D01*
X135910103Y-91514516D01*
X135888775Y-91683343D01*
X135905381Y-91852699D01*
X135907605Y-91859384D01*
X135907605Y-91859385D01*
X135932040Y-91932839D01*
X135959094Y-92014167D01*
X135962741Y-92020189D01*
X135962742Y-92020191D01*
X136025276Y-92123447D01*
X136043500Y-92188718D01*
X136043500Y-96280846D01*
X136023411Y-96349101D01*
X135968304Y-96434610D01*
X135910103Y-96594516D01*
X135888775Y-96763343D01*
X135905381Y-96932699D01*
X135907605Y-96939384D01*
X135907605Y-96939385D01*
X135923076Y-96985892D01*
X135959094Y-97094167D01*
X135962741Y-97100189D01*
X135962742Y-97100191D01*
X136025276Y-97203447D01*
X136043500Y-97268718D01*
X136043500Y-101233846D01*
X136023411Y-101302101D01*
X135968304Y-101387610D01*
X135910103Y-101547516D01*
X135888775Y-101716343D01*
X135905381Y-101885699D01*
X135907605Y-101892384D01*
X135907605Y-101892385D01*
X135909883Y-101899232D01*
X135959094Y-102047167D01*
X135962741Y-102053189D01*
X135962742Y-102053191D01*
X136008441Y-102128648D01*
X136047246Y-102192723D01*
X136165455Y-102315132D01*
X136307846Y-102408310D01*
X136314446Y-102410765D01*
X136314457Y-102410770D01*
X136342420Y-102421169D01*
X136399296Y-102463661D01*
X136424170Y-102530158D01*
X136424500Y-102539266D01*
X136424500Y-105232761D01*
X136404498Y-105300882D01*
X136387595Y-105321856D01*
X135674856Y-106034595D01*
X135612544Y-106068621D01*
X135585761Y-106071500D01*
X131794766Y-106071500D01*
X131726645Y-106051498D01*
X131680152Y-105997842D01*
X131675775Y-105986938D01*
X131625368Y-105842189D01*
X131564645Y-105745013D01*
X131545500Y-105678245D01*
X131545500Y-102089347D01*
X131565502Y-102021226D01*
X131606983Y-101981118D01*
X131646441Y-101957597D01*
X131646448Y-101957592D01*
X131652490Y-101953990D01*
X131657584Y-101949139D01*
X131657588Y-101949136D01*
X131745644Y-101865281D01*
X131775721Y-101836639D01*
X131780753Y-101829066D01*
X131853323Y-101719839D01*
X131869891Y-101694902D01*
X131930319Y-101535825D01*
X131954001Y-101367313D01*
X131954299Y-101346000D01*
X131935331Y-101176892D01*
X131879368Y-101016189D01*
X131818645Y-100919013D01*
X131799500Y-100852245D01*
X131799500Y-97263347D01*
X131819502Y-97195226D01*
X131860983Y-97155118D01*
X131900441Y-97131597D01*
X131900448Y-97131592D01*
X131906490Y-97127990D01*
X131911584Y-97123139D01*
X131911588Y-97123136D01*
X131992696Y-97045897D01*
X132029721Y-97010639D01*
X132056447Y-96970414D01*
X132103740Y-96899232D01*
X132123891Y-96868902D01*
X132184319Y-96709825D01*
X132208001Y-96541313D01*
X132208299Y-96520000D01*
X132189331Y-96350892D01*
X132133368Y-96190189D01*
X132043192Y-96045879D01*
X131963093Y-95965219D01*
X131929287Y-95902789D01*
X131926500Y-95876436D01*
X131926500Y-92186890D01*
X131947552Y-92117163D01*
X131977987Y-92071355D01*
X131996891Y-92042902D01*
X132057319Y-91883825D01*
X132081001Y-91715313D01*
X132081194Y-91701500D01*
X132081244Y-91697961D01*
X132081244Y-91697955D01*
X132081299Y-91694000D01*
X132062331Y-91524892D01*
X132057574Y-91511230D01*
X132030893Y-91434616D01*
X132006368Y-91364189D01*
X131945645Y-91267013D01*
X131926500Y-91200245D01*
X131926500Y-86725890D01*
X131947552Y-86656163D01*
X131959097Y-86638787D01*
X131996891Y-86581902D01*
X132057319Y-86422825D01*
X132081001Y-86254313D01*
X132081118Y-86245964D01*
X132081244Y-86236961D01*
X132081244Y-86236955D01*
X132081299Y-86233000D01*
X132062331Y-86063892D01*
X132006368Y-85903189D01*
X131945645Y-85806013D01*
X131926500Y-85739245D01*
X131926500Y-81772890D01*
X131947552Y-81703163D01*
X131977987Y-81657355D01*
X131996891Y-81628902D01*
X132057319Y-81469825D01*
X132081001Y-81301313D01*
X132081299Y-81280000D01*
X132062331Y-81110892D01*
X132051057Y-81078516D01*
X132021733Y-80994310D01*
X132006368Y-80950189D01*
X131945645Y-80853013D01*
X131926500Y-80786245D01*
X131926500Y-78978890D01*
X131947552Y-78909163D01*
X131996891Y-78834902D01*
X132057319Y-78675825D01*
X132081001Y-78507313D01*
X132081299Y-78486000D01*
X132062331Y-78316892D01*
X132006368Y-78156189D01*
X132000383Y-78146610D01*
X131938397Y-78047414D01*
X131916192Y-78011879D01*
X131796286Y-77891132D01*
X131780039Y-77880821D01*
X131731031Y-77849720D01*
X131652608Y-77799951D01*
X131492300Y-77742868D01*
X131323329Y-77722720D01*
X131316326Y-77723456D01*
X131316325Y-77723456D01*
X131161101Y-77739770D01*
X131161097Y-77739771D01*
X131154093Y-77740507D01*
X131147422Y-77742778D01*
X130999673Y-77793075D01*
X130999670Y-77793076D01*
X130993003Y-77795346D01*
X130987005Y-77799036D01*
X130987003Y-77799037D01*
X130854065Y-77880821D01*
X130854063Y-77880823D01*
X130848066Y-77884512D01*
X130726486Y-78003573D01*
X130722675Y-78009487D01*
X130722673Y-78009489D01*
X130639286Y-78138879D01*
X130634304Y-78146610D01*
X130576103Y-78306516D01*
X130554775Y-78475343D01*
X130571381Y-78644699D01*
X130625094Y-78806167D01*
X130628741Y-78812189D01*
X130628742Y-78812191D01*
X130691276Y-78915447D01*
X130709500Y-78980718D01*
X130709500Y-80786846D01*
X130689411Y-80855101D01*
X130634304Y-80940610D01*
X130576103Y-81100516D01*
X130554775Y-81269343D01*
X130571381Y-81438699D01*
X130573605Y-81445384D01*
X130573605Y-81445385D01*
X130589076Y-81491892D01*
X130625094Y-81600167D01*
X130628741Y-81606189D01*
X130628742Y-81606191D01*
X130691276Y-81709447D01*
X130709500Y-81774718D01*
X130709500Y-85739846D01*
X130689411Y-85808101D01*
X130634304Y-85893610D01*
X130576103Y-86053516D01*
X130554775Y-86222343D01*
X130571381Y-86391699D01*
X130573605Y-86398384D01*
X130573605Y-86398385D01*
X130588139Y-86442077D01*
X130625094Y-86553167D01*
X130628741Y-86559189D01*
X130628742Y-86559191D01*
X130691276Y-86662447D01*
X130709500Y-86727718D01*
X130709500Y-91200846D01*
X130689411Y-91269101D01*
X130634304Y-91354610D01*
X130576103Y-91514516D01*
X130554775Y-91683343D01*
X130571381Y-91852699D01*
X130573605Y-91859384D01*
X130573605Y-91859385D01*
X130598040Y-91932839D01*
X130625094Y-92014167D01*
X130628741Y-92020189D01*
X130628742Y-92020191D01*
X130691276Y-92123447D01*
X130709500Y-92188718D01*
X130709500Y-96302387D01*
X130705968Y-96332012D01*
X130705512Y-96333897D01*
X130703103Y-96340516D01*
X130702220Y-96347507D01*
X130696830Y-96390170D01*
X130671787Y-96451080D01*
X130659476Y-96467124D01*
X130602770Y-96604025D01*
X130598162Y-96615150D01*
X130582500Y-96734115D01*
X130582500Y-96734120D01*
X130577250Y-96774000D01*
X130580571Y-96799223D01*
X130581422Y-96805690D01*
X130582500Y-96822136D01*
X130582500Y-100852846D01*
X130562411Y-100921101D01*
X130507304Y-101006610D01*
X130449103Y-101166516D01*
X130448220Y-101173506D01*
X130442830Y-101216170D01*
X130417787Y-101277080D01*
X130405476Y-101293124D01*
X130352871Y-101420124D01*
X130344162Y-101441150D01*
X130328500Y-101560115D01*
X130328500Y-101560120D01*
X130323250Y-101600000D01*
X130324328Y-101608188D01*
X130327422Y-101631690D01*
X130328500Y-101648136D01*
X130328500Y-105678846D01*
X130308411Y-105747101D01*
X130253304Y-105832610D01*
X130243836Y-105858624D01*
X130196530Y-105988595D01*
X130154436Y-106045766D01*
X130088114Y-106071104D01*
X130078129Y-106071500D01*
X119733500Y-106071500D01*
X119665379Y-106051498D01*
X119618886Y-105997842D01*
X119607500Y-105945500D01*
X119607500Y-102724890D01*
X119628552Y-102655163D01*
X119628618Y-102655064D01*
X119677891Y-102580902D01*
X119738319Y-102421825D01*
X119762001Y-102253313D01*
X119762299Y-102232000D01*
X119743331Y-102062892D01*
X119741014Y-102056238D01*
X119739454Y-102049373D01*
X119740083Y-102049230D01*
X119734500Y-102016223D01*
X119734500Y-97647890D01*
X119755552Y-97578163D01*
X119780785Y-97540184D01*
X119804891Y-97503902D01*
X119865319Y-97344825D01*
X119889001Y-97176313D01*
X119889299Y-97155000D01*
X119870331Y-96985892D01*
X119862647Y-96963825D01*
X119831635Y-96874773D01*
X119814368Y-96825189D01*
X119753645Y-96728013D01*
X119734500Y-96661245D01*
X119734500Y-92567890D01*
X119755552Y-92498163D01*
X119800990Y-92429773D01*
X119804891Y-92423902D01*
X119865319Y-92264825D01*
X119889001Y-92096313D01*
X119889299Y-92075000D01*
X119870331Y-91905892D01*
X119866961Y-91896213D01*
X119837057Y-91810343D01*
X119814368Y-91745189D01*
X119753645Y-91648013D01*
X119734500Y-91581245D01*
X119734500Y-87106890D01*
X119755552Y-87037163D01*
X119800990Y-86968773D01*
X119804891Y-86962902D01*
X119865319Y-86803825D01*
X119889001Y-86635313D01*
X119889299Y-86614000D01*
X119870331Y-86444892D01*
X119865029Y-86429665D01*
X119836431Y-86347546D01*
X119814368Y-86284189D01*
X119753645Y-86187013D01*
X119734500Y-86120245D01*
X119734500Y-82153890D01*
X119755552Y-82084163D01*
X119768551Y-82064598D01*
X119804891Y-82009902D01*
X119865319Y-81850825D01*
X119889001Y-81682313D01*
X119889299Y-81661000D01*
X119870331Y-81491892D01*
X119862647Y-81469825D01*
X119816686Y-81337846D01*
X119814368Y-81331189D01*
X119753645Y-81234013D01*
X119734500Y-81167245D01*
X119734500Y-77073890D01*
X119755552Y-77004163D01*
X119780709Y-76966299D01*
X119804891Y-76929902D01*
X119865319Y-76770825D01*
X119889001Y-76602313D01*
X119889299Y-76581000D01*
X119870331Y-76411892D01*
X119862896Y-76390540D01*
X119836415Y-76314498D01*
X119814368Y-76251189D01*
X119753645Y-76154013D01*
X119734500Y-76087245D01*
X119734500Y-75935343D01*
X130554775Y-75935343D01*
X130571381Y-76104699D01*
X130573605Y-76111384D01*
X130573605Y-76111385D01*
X130588480Y-76156102D01*
X130625094Y-76266167D01*
X130628741Y-76272189D01*
X130628742Y-76272191D01*
X130709319Y-76405238D01*
X130713246Y-76411723D01*
X130831455Y-76534132D01*
X130886791Y-76570343D01*
X130941622Y-76606223D01*
X130973846Y-76627310D01*
X130980450Y-76629766D01*
X130980452Y-76629767D01*
X131016844Y-76643301D01*
X131133341Y-76686626D01*
X131302015Y-76709132D01*
X131309026Y-76708494D01*
X131309030Y-76708494D01*
X131464462Y-76694348D01*
X131471483Y-76693709D01*
X131478185Y-76691531D01*
X131478187Y-76691531D01*
X131626623Y-76643301D01*
X131626626Y-76643300D01*
X131633322Y-76641124D01*
X131779490Y-76553990D01*
X131784584Y-76549139D01*
X131784588Y-76549136D01*
X131876614Y-76461500D01*
X131902721Y-76436639D01*
X131906738Y-76430594D01*
X131983871Y-76314498D01*
X131996891Y-76294902D01*
X132057319Y-76135825D01*
X132081001Y-75967313D01*
X132081299Y-75946000D01*
X132065859Y-75808343D01*
X136269775Y-75808343D01*
X136286381Y-75977699D01*
X136340094Y-76139167D01*
X136343741Y-76145189D01*
X136343742Y-76145191D01*
X136412961Y-76259484D01*
X136428246Y-76284723D01*
X136546455Y-76407132D01*
X136598972Y-76441498D01*
X136660149Y-76481531D01*
X136688846Y-76500310D01*
X136695450Y-76502766D01*
X136695452Y-76502767D01*
X136731844Y-76516301D01*
X136848341Y-76559626D01*
X137017015Y-76582132D01*
X137024026Y-76581494D01*
X137024030Y-76581494D01*
X137179462Y-76567348D01*
X137186483Y-76566709D01*
X137193185Y-76564531D01*
X137193187Y-76564531D01*
X137341623Y-76516301D01*
X137341626Y-76516300D01*
X137348322Y-76514124D01*
X137494490Y-76426990D01*
X137499584Y-76422139D01*
X137499588Y-76422136D01*
X137566833Y-76358099D01*
X137617721Y-76309639D01*
X137627513Y-76294902D01*
X137707990Y-76173773D01*
X137711891Y-76167902D01*
X137772319Y-76008825D01*
X137796001Y-75840313D01*
X137796299Y-75819000D01*
X137777331Y-75649892D01*
X137775014Y-75643238D01*
X137773454Y-75636373D01*
X137774083Y-75636230D01*
X137768500Y-75603223D01*
X137768500Y-71104890D01*
X137789552Y-71035163D01*
X137838891Y-70960902D01*
X137899319Y-70801825D01*
X137923001Y-70633313D01*
X137923299Y-70612000D01*
X137904331Y-70442892D01*
X137902014Y-70436238D01*
X137900454Y-70429373D01*
X137901083Y-70429230D01*
X137895500Y-70396223D01*
X137895500Y-67294890D01*
X137916552Y-67225163D01*
X137965891Y-67150902D01*
X138026319Y-66991825D01*
X138050001Y-66823313D01*
X138050299Y-66802000D01*
X138031331Y-66632892D01*
X137975368Y-66472189D01*
X137969383Y-66462610D01*
X137937502Y-66411591D01*
X137885192Y-66327879D01*
X137765286Y-66207132D01*
X137749039Y-66196821D01*
X137687222Y-66157591D01*
X137621608Y-66115951D01*
X137461300Y-66058868D01*
X137292329Y-66038720D01*
X137285326Y-66039456D01*
X137285325Y-66039456D01*
X137130101Y-66055770D01*
X137130097Y-66055771D01*
X137123093Y-66056507D01*
X137116422Y-66058778D01*
X136968673Y-66109075D01*
X136968670Y-66109076D01*
X136962003Y-66111346D01*
X136956005Y-66115036D01*
X136956003Y-66115037D01*
X136823065Y-66196821D01*
X136823063Y-66196823D01*
X136817066Y-66200512D01*
X136695486Y-66319573D01*
X136691675Y-66325487D01*
X136691673Y-66325489D01*
X136649130Y-66391502D01*
X136603304Y-66462610D01*
X136600894Y-66469232D01*
X136550614Y-66607376D01*
X136545103Y-66622516D01*
X136523775Y-66791343D01*
X136540381Y-66960699D01*
X136594094Y-67122167D01*
X136597741Y-67128189D01*
X136597742Y-67128191D01*
X136660276Y-67231447D01*
X136678500Y-67296718D01*
X136678500Y-69968873D01*
X136658498Y-70036994D01*
X136640658Y-70058896D01*
X136576435Y-70121789D01*
X136568486Y-70129573D01*
X136564675Y-70135487D01*
X136564673Y-70135489D01*
X136496262Y-70241641D01*
X136476304Y-70272610D01*
X136418103Y-70432516D01*
X136396775Y-70601343D01*
X136413381Y-70770699D01*
X136467094Y-70932167D01*
X136470741Y-70938189D01*
X136470742Y-70938191D01*
X136533276Y-71041447D01*
X136551500Y-71106718D01*
X136551500Y-75175873D01*
X136531498Y-75243994D01*
X136513658Y-75265896D01*
X136441486Y-75336573D01*
X136437675Y-75342487D01*
X136437673Y-75342489D01*
X136432103Y-75351132D01*
X136349304Y-75479610D01*
X136291103Y-75639516D01*
X136269775Y-75808343D01*
X132065859Y-75808343D01*
X132062331Y-75776892D01*
X132006368Y-75616189D01*
X131945645Y-75519013D01*
X131926500Y-75452245D01*
X131926500Y-71381939D01*
X131946502Y-71313818D01*
X131965608Y-71290693D01*
X131969208Y-71287264D01*
X132029721Y-71229639D01*
X132039513Y-71214902D01*
X132076806Y-71158771D01*
X132123891Y-71087902D01*
X132184319Y-70928825D01*
X132208001Y-70760313D01*
X132208299Y-70739000D01*
X132189331Y-70569892D01*
X132133368Y-70409189D01*
X132043192Y-70264879D01*
X131963093Y-70184219D01*
X131929287Y-70121789D01*
X131926500Y-70095436D01*
X131926500Y-67040890D01*
X131947552Y-66971163D01*
X131959161Y-66953690D01*
X131996891Y-66896902D01*
X132057319Y-66737825D01*
X132081001Y-66569313D01*
X132081299Y-66548000D01*
X132062331Y-66378892D01*
X132006368Y-66218189D01*
X132002582Y-66212129D01*
X131944843Y-66119730D01*
X131916192Y-66073879D01*
X131900458Y-66058034D01*
X131801248Y-65958129D01*
X131796286Y-65953132D01*
X131780039Y-65942821D01*
X131730532Y-65911403D01*
X131652608Y-65861951D01*
X131492300Y-65804868D01*
X131323329Y-65784720D01*
X131316326Y-65785456D01*
X131316325Y-65785456D01*
X131161101Y-65801770D01*
X131161097Y-65801771D01*
X131154093Y-65802507D01*
X131147422Y-65804778D01*
X130999673Y-65855075D01*
X130999670Y-65855076D01*
X130993003Y-65857346D01*
X130987005Y-65861036D01*
X130987003Y-65861037D01*
X130854065Y-65942821D01*
X130854063Y-65942823D01*
X130848066Y-65946512D01*
X130843033Y-65951441D01*
X130734185Y-66058034D01*
X130726486Y-66065573D01*
X130722675Y-66071487D01*
X130722673Y-66071489D01*
X130639523Y-66200512D01*
X130634304Y-66208610D01*
X130576103Y-66368516D01*
X130554775Y-66537343D01*
X130571381Y-66706699D01*
X130625094Y-66868167D01*
X130628741Y-66874189D01*
X130628742Y-66874191D01*
X130691276Y-66977447D01*
X130709500Y-67042718D01*
X130709500Y-70521387D01*
X130705968Y-70551010D01*
X130705510Y-70552901D01*
X130703103Y-70559516D01*
X130702220Y-70566502D01*
X130702220Y-70566504D01*
X130697819Y-70601343D01*
X130681775Y-70728343D01*
X130698381Y-70897699D01*
X130703060Y-70911763D01*
X130709500Y-70951531D01*
X130709500Y-75452846D01*
X130689411Y-75521101D01*
X130634304Y-75606610D01*
X130576103Y-75766516D01*
X130554775Y-75935343D01*
X119734500Y-75935343D01*
X119734500Y-71866890D01*
X119755552Y-71797163D01*
X119800990Y-71728773D01*
X119804891Y-71722902D01*
X119865319Y-71563825D01*
X119889001Y-71395313D01*
X119889299Y-71374000D01*
X119870331Y-71204892D01*
X119814368Y-71044189D01*
X119753645Y-70947013D01*
X119734500Y-70880245D01*
X119734500Y-67929890D01*
X119755552Y-67860163D01*
X119785987Y-67814355D01*
X119804891Y-67785902D01*
X119865319Y-67626825D01*
X119889001Y-67458313D01*
X119889299Y-67437000D01*
X119870331Y-67267892D01*
X119866486Y-67256849D01*
X119831635Y-67156773D01*
X119814368Y-67107189D01*
X119808383Y-67097610D01*
X119781068Y-67053898D01*
X119724192Y-66962879D01*
X119604286Y-66842132D01*
X119588039Y-66831821D01*
X119537736Y-66799898D01*
X119460608Y-66750951D01*
X119300300Y-66693868D01*
X119131329Y-66673720D01*
X119124326Y-66674456D01*
X119124325Y-66674456D01*
X118969101Y-66690770D01*
X118969097Y-66690771D01*
X118962093Y-66691507D01*
X118955422Y-66693778D01*
X118807673Y-66744075D01*
X118807670Y-66744076D01*
X118801003Y-66746346D01*
X118795005Y-66750036D01*
X118795003Y-66750037D01*
X118662065Y-66831821D01*
X118662063Y-66831823D01*
X118656066Y-66835512D01*
X118534486Y-66954573D01*
X118530675Y-66960487D01*
X118530673Y-66960489D01*
X118458957Y-67071770D01*
X118442304Y-67097610D01*
X118407401Y-67193505D01*
X118395879Y-67225163D01*
X118384103Y-67257516D01*
X118362775Y-67426343D01*
X118379381Y-67595699D01*
X118381605Y-67602384D01*
X118381605Y-67602385D01*
X118397076Y-67648892D01*
X118433094Y-67757167D01*
X118436741Y-67763189D01*
X118436742Y-67763191D01*
X118499276Y-67866447D01*
X118517500Y-67931718D01*
X118517500Y-70880846D01*
X118497411Y-70949101D01*
X118442304Y-71034610D01*
X118384103Y-71194516D01*
X118362775Y-71363343D01*
X118379381Y-71532699D01*
X118433094Y-71694167D01*
X118436741Y-71700189D01*
X118436742Y-71700191D01*
X118499276Y-71803447D01*
X118517500Y-71868718D01*
X118517500Y-76087846D01*
X118497411Y-76156101D01*
X118442304Y-76241610D01*
X118384103Y-76401516D01*
X118362775Y-76570343D01*
X118379381Y-76739699D01*
X118433094Y-76901167D01*
X118436741Y-76907189D01*
X118436742Y-76907191D01*
X118499276Y-77010447D01*
X118517500Y-77075718D01*
X118517500Y-81167846D01*
X118497411Y-81236101D01*
X118442304Y-81321610D01*
X118384103Y-81481516D01*
X118362775Y-81650343D01*
X118379381Y-81819699D01*
X118433094Y-81981167D01*
X118436741Y-81987189D01*
X118436742Y-81987191D01*
X118499276Y-82090447D01*
X118517500Y-82155718D01*
X118517500Y-86120846D01*
X118497411Y-86189101D01*
X118442304Y-86274610D01*
X118384103Y-86434516D01*
X118362775Y-86603343D01*
X118379381Y-86772699D01*
X118433094Y-86934167D01*
X118436741Y-86940189D01*
X118436742Y-86940191D01*
X118499276Y-87043447D01*
X118517500Y-87108718D01*
X118517500Y-91581846D01*
X118497411Y-91650101D01*
X118442304Y-91735610D01*
X118384103Y-91895516D01*
X118362775Y-92064343D01*
X118379381Y-92233699D01*
X118433094Y-92395167D01*
X118436741Y-92401189D01*
X118436742Y-92401191D01*
X118499276Y-92504447D01*
X118517500Y-92569718D01*
X118517500Y-96661846D01*
X118497411Y-96730101D01*
X118442304Y-96815610D01*
X118384103Y-96975516D01*
X118362775Y-97144343D01*
X118379381Y-97313699D01*
X118433094Y-97475167D01*
X118436741Y-97481189D01*
X118436742Y-97481191D01*
X118499276Y-97584447D01*
X118517500Y-97649718D01*
X118517500Y-101588873D01*
X118497498Y-101656994D01*
X118479658Y-101678896D01*
X118434259Y-101723355D01*
X118407486Y-101749573D01*
X118403675Y-101755487D01*
X118403673Y-101755489D01*
X118319758Y-101885699D01*
X118315304Y-101892610D01*
X118257103Y-102052516D01*
X118235775Y-102221343D01*
X118252381Y-102390699D01*
X118306094Y-102552167D01*
X118309741Y-102558189D01*
X118309742Y-102558191D01*
X118372276Y-102661447D01*
X118390500Y-102726718D01*
X118390500Y-105333291D01*
X118370498Y-105401412D01*
X118316842Y-105447905D01*
X118246568Y-105458009D01*
X118222239Y-105451992D01*
X118157300Y-105428868D01*
X117988329Y-105408720D01*
X117981326Y-105409456D01*
X117981325Y-105409456D01*
X117826101Y-105425770D01*
X117826097Y-105425771D01*
X117819093Y-105426507D01*
X117812422Y-105428778D01*
X117664673Y-105479075D01*
X117664670Y-105479076D01*
X117658003Y-105481346D01*
X117652005Y-105485036D01*
X117652003Y-105485037D01*
X117519065Y-105566821D01*
X117519063Y-105566823D01*
X117513066Y-105570512D01*
X117506558Y-105576885D01*
X117395112Y-105686022D01*
X117332447Y-105719393D01*
X117306954Y-105721999D01*
X113562500Y-105721999D01*
X113494379Y-105701997D01*
X113447886Y-105648341D01*
X113436500Y-105595999D01*
X113436500Y-102724890D01*
X113457552Y-102655163D01*
X113457618Y-102655064D01*
X113506891Y-102580902D01*
X113567319Y-102421825D01*
X113591001Y-102253313D01*
X113591299Y-102232000D01*
X113572331Y-102062892D01*
X113567574Y-102049230D01*
X113530065Y-101941521D01*
X113516368Y-101902189D01*
X113510383Y-101892610D01*
X113430646Y-101765007D01*
X113411500Y-101698237D01*
X113411500Y-97762518D01*
X113432552Y-97692791D01*
X113480434Y-97620723D01*
X113506891Y-97580902D01*
X113567319Y-97421825D01*
X113591001Y-97253313D01*
X113591118Y-97244964D01*
X113591244Y-97235961D01*
X113591244Y-97235955D01*
X113591299Y-97232000D01*
X113572331Y-97062892D01*
X113554135Y-97010639D01*
X113518686Y-96908846D01*
X113516368Y-96902189D01*
X113510383Y-96892610D01*
X113435726Y-96773136D01*
X113430646Y-96765007D01*
X113411500Y-96698237D01*
X113411500Y-92762518D01*
X113432552Y-92692791D01*
X113502990Y-92586773D01*
X113506891Y-92580902D01*
X113567319Y-92421825D01*
X113591001Y-92253313D01*
X113591299Y-92232000D01*
X113572331Y-92062892D01*
X113516368Y-91902189D01*
X113510383Y-91892610D01*
X113448724Y-91793938D01*
X113430646Y-91765007D01*
X113411500Y-91698237D01*
X113411500Y-87762518D01*
X113432552Y-87692791D01*
X113502990Y-87586773D01*
X113506891Y-87580902D01*
X113567319Y-87421825D01*
X113591001Y-87253313D01*
X113591299Y-87232000D01*
X113572331Y-87062892D01*
X113565560Y-87043447D01*
X113518686Y-86908846D01*
X113516368Y-86902189D01*
X113512634Y-86896213D01*
X113429928Y-86763857D01*
X113429926Y-86763854D01*
X113426192Y-86757879D01*
X113396093Y-86727568D01*
X113362287Y-86665140D01*
X113359500Y-86638787D01*
X113359500Y-82762518D01*
X113380552Y-82692791D01*
X113450990Y-82586773D01*
X113454891Y-82580902D01*
X113515319Y-82421825D01*
X113539001Y-82253313D01*
X113539299Y-82232000D01*
X113520331Y-82062892D01*
X113464368Y-81902189D01*
X113458383Y-81892610D01*
X113378646Y-81765007D01*
X113359500Y-81698237D01*
X113359500Y-76874883D01*
X113379502Y-76806762D01*
X113396405Y-76785788D01*
X113448623Y-76733570D01*
X113510935Y-76699544D01*
X113526298Y-76697184D01*
X113564483Y-76693709D01*
X113571185Y-76691531D01*
X113571187Y-76691531D01*
X113719623Y-76643301D01*
X113719626Y-76643300D01*
X113726322Y-76641124D01*
X113872490Y-76553990D01*
X113877584Y-76549139D01*
X113877588Y-76549136D01*
X113969614Y-76461500D01*
X113995721Y-76436639D01*
X113999738Y-76430594D01*
X114076871Y-76314498D01*
X114089891Y-76294902D01*
X114150319Y-76135825D01*
X114174001Y-75967313D01*
X114174299Y-75946000D01*
X114155331Y-75776892D01*
X114099368Y-75616189D01*
X114093383Y-75606610D01*
X114039950Y-75521102D01*
X114009192Y-75471879D01*
X113889286Y-75351132D01*
X113876238Y-75342851D01*
X113817199Y-75305384D01*
X113745608Y-75259951D01*
X113717416Y-75249912D01*
X113591935Y-75205230D01*
X113591930Y-75205229D01*
X113585300Y-75202868D01*
X113578312Y-75202035D01*
X113578309Y-75202034D01*
X113564040Y-75200333D01*
X113498767Y-75172406D01*
X113489863Y-75164314D01*
X113294405Y-74968856D01*
X113260379Y-74906544D01*
X113257500Y-74879761D01*
X113257500Y-71358890D01*
X113278552Y-71289163D01*
X113314871Y-71234498D01*
X113327891Y-71214902D01*
X113388319Y-71055825D01*
X113412001Y-70887313D01*
X113412299Y-70866000D01*
X113393331Y-70696892D01*
X113337368Y-70536189D01*
X113276645Y-70439013D01*
X113257500Y-70372245D01*
X113257500Y-68310890D01*
X113278552Y-68241163D01*
X113323990Y-68172773D01*
X113327891Y-68166902D01*
X113388319Y-68007825D01*
X113412001Y-67839313D01*
X113412299Y-67818000D01*
X113393331Y-67648892D01*
X113385647Y-67626825D01*
X113350700Y-67526474D01*
X113337368Y-67488189D01*
X113333582Y-67482129D01*
X113275843Y-67389730D01*
X113247192Y-67343879D01*
X113231458Y-67328034D01*
X113168372Y-67264506D01*
X113127286Y-67223132D01*
X113119717Y-67218328D01*
X113022721Y-67156773D01*
X112983608Y-67131951D01*
X112823300Y-67074868D01*
X112654329Y-67054720D01*
X112647326Y-67055456D01*
X112647325Y-67055456D01*
X112492101Y-67071770D01*
X112492097Y-67071771D01*
X112485093Y-67072507D01*
X112478422Y-67074778D01*
X112330673Y-67125075D01*
X112330670Y-67125076D01*
X112324003Y-67127346D01*
X112318005Y-67131036D01*
X112318003Y-67131037D01*
X112185065Y-67212821D01*
X112185063Y-67212823D01*
X112179066Y-67216512D01*
X112133394Y-67261238D01*
X112065185Y-67328034D01*
X112057486Y-67335573D01*
X112053675Y-67341487D01*
X112053673Y-67341489D01*
X111970523Y-67470512D01*
X111965304Y-67478610D01*
X111907103Y-67638516D01*
X111885775Y-67807343D01*
X111902381Y-67976699D01*
X111956094Y-68138167D01*
X111959741Y-68144189D01*
X111959742Y-68144191D01*
X112022276Y-68247447D01*
X112040500Y-68312718D01*
X112040500Y-70372846D01*
X112020411Y-70441101D01*
X111965304Y-70526610D01*
X111907103Y-70686516D01*
X111885775Y-70855343D01*
X111902381Y-71024699D01*
X111956094Y-71186167D01*
X111959741Y-71192189D01*
X111959742Y-71192191D01*
X112022276Y-71295447D01*
X112040500Y-71360718D01*
X112040500Y-75135864D01*
X112039422Y-75152307D01*
X112035250Y-75184000D01*
X112040500Y-75223880D01*
X112040500Y-75223885D01*
X112051230Y-75305384D01*
X112056162Y-75342851D01*
X112117476Y-75490876D01*
X112122503Y-75497427D01*
X112122504Y-75497429D01*
X112190520Y-75586069D01*
X112190526Y-75586075D01*
X112215013Y-75617987D01*
X112221568Y-75623017D01*
X112240379Y-75637452D01*
X112252770Y-75648319D01*
X112479034Y-75874583D01*
X112513060Y-75936895D01*
X112507995Y-76007710D01*
X112479034Y-76052773D01*
X112396289Y-76135518D01*
X112383898Y-76146385D01*
X112359843Y-76164843D01*
X112300938Y-76241610D01*
X112266314Y-76286733D01*
X112207519Y-76428676D01*
X112187465Y-76581000D01*
X112188543Y-76589188D01*
X112191422Y-76611056D01*
X112192500Y-76627503D01*
X112192500Y-81700054D01*
X112172411Y-81768309D01*
X112134984Y-81826385D01*
X112114987Y-81857414D01*
X112092304Y-81892610D01*
X112034103Y-82052516D01*
X112012775Y-82221343D01*
X112029381Y-82390699D01*
X112083094Y-82552167D01*
X112086741Y-82558189D01*
X112086742Y-82558191D01*
X112171246Y-82697723D01*
X112169677Y-82698673D01*
X112192044Y-82756217D01*
X112192500Y-82766928D01*
X112192500Y-86780741D01*
X112172411Y-86848997D01*
X112144304Y-86892610D01*
X112086103Y-87052516D01*
X112064775Y-87221343D01*
X112081381Y-87390699D01*
X112135094Y-87552167D01*
X112138741Y-87558189D01*
X112138742Y-87558191D01*
X112223246Y-87697723D01*
X112221677Y-87698673D01*
X112244044Y-87756217D01*
X112244500Y-87766928D01*
X112244500Y-91700054D01*
X112224411Y-91768309D01*
X112197322Y-91810343D01*
X112149966Y-91883825D01*
X112144304Y-91892610D01*
X112086103Y-92052516D01*
X112064775Y-92221343D01*
X112081381Y-92390699D01*
X112083605Y-92397384D01*
X112083605Y-92397385D01*
X112091735Y-92421825D01*
X112135094Y-92552167D01*
X112138741Y-92558189D01*
X112138742Y-92558191D01*
X112223246Y-92697723D01*
X112221677Y-92698673D01*
X112244044Y-92756217D01*
X112244500Y-92766928D01*
X112244500Y-96700054D01*
X112224411Y-96768309D01*
X112144304Y-96892610D01*
X112086103Y-97052516D01*
X112064775Y-97221343D01*
X112081381Y-97390699D01*
X112083605Y-97397384D01*
X112083605Y-97397385D01*
X112108040Y-97470839D01*
X112135094Y-97552167D01*
X112138741Y-97558189D01*
X112138742Y-97558191D01*
X112223246Y-97697723D01*
X112221677Y-97698673D01*
X112244044Y-97756217D01*
X112244500Y-97766928D01*
X112244500Y-101700054D01*
X112224411Y-101768309D01*
X112185256Y-101829066D01*
X112148759Y-101885698D01*
X112144304Y-101892610D01*
X112086103Y-102052516D01*
X112064775Y-102221343D01*
X112081381Y-102390699D01*
X112135094Y-102552167D01*
X112138741Y-102558189D01*
X112138742Y-102558191D01*
X112201276Y-102661447D01*
X112219500Y-102726718D01*
X112219500Y-105595999D01*
X112199498Y-105664120D01*
X112145842Y-105710613D01*
X112093500Y-105721999D01*
X93807738Y-105721999D01*
X93739617Y-105701997D01*
X93718643Y-105685094D01*
X92937732Y-104904183D01*
X92903706Y-104841871D01*
X92908771Y-104771056D01*
X92921879Y-104745361D01*
X93003990Y-104621773D01*
X93007891Y-104615902D01*
X93068319Y-104456825D01*
X93092001Y-104288313D01*
X93092299Y-104267000D01*
X93073331Y-104097892D01*
X93017368Y-103937189D01*
X92927192Y-103792879D01*
X92822094Y-103687044D01*
X92788287Y-103624613D01*
X92785500Y-103598260D01*
X92785500Y-99797591D01*
X92805502Y-99729470D01*
X92859158Y-99682977D01*
X92872558Y-99677760D01*
X92949221Y-99652851D01*
X93018623Y-99630301D01*
X93018626Y-99630300D01*
X93025322Y-99628124D01*
X93171490Y-99540990D01*
X93176584Y-99536139D01*
X93176588Y-99536136D01*
X93243833Y-99472099D01*
X93294721Y-99423639D01*
X93307831Y-99403908D01*
X93354277Y-99334000D01*
X93388891Y-99281902D01*
X93449319Y-99122825D01*
X93450930Y-99111361D01*
X93459535Y-99050136D01*
X93488823Y-98985462D01*
X93495214Y-98978577D01*
X93500611Y-98973180D01*
X93507157Y-98968157D01*
X93554069Y-98907020D01*
X93600686Y-98846268D01*
X93635166Y-98763025D01*
X93659481Y-98704324D01*
X93674500Y-98590244D01*
X93674500Y-98590242D01*
X93679535Y-98552000D01*
X93675578Y-98521944D01*
X93674500Y-98505497D01*
X93674500Y-86660501D01*
X93675578Y-86644053D01*
X93676272Y-86638787D01*
X93679535Y-86614000D01*
X93674284Y-86574115D01*
X93659481Y-86461676D01*
X93610735Y-86343993D01*
X93600686Y-86319732D01*
X93564083Y-86272030D01*
X93545117Y-86247314D01*
X93537093Y-86236857D01*
X93507157Y-86197843D01*
X93500610Y-86192819D01*
X93495972Y-86188181D01*
X93461948Y-86125868D01*
X93459854Y-86113132D01*
X93456097Y-86079632D01*
X93454331Y-86063892D01*
X93398368Y-85903189D01*
X93392383Y-85893610D01*
X93312646Y-85766007D01*
X93293500Y-85699237D01*
X93293500Y-78381518D01*
X93314552Y-78311791D01*
X93343855Y-78267687D01*
X93388891Y-78199902D01*
X93449319Y-78040825D01*
X93473001Y-77872313D01*
X93473299Y-77851000D01*
X93454331Y-77681892D01*
X93451108Y-77672635D01*
X93415635Y-77570773D01*
X93398368Y-77521189D01*
X93392383Y-77511610D01*
X93345761Y-77437001D01*
X93308192Y-77376879D01*
X93188286Y-77256132D01*
X93172039Y-77245821D01*
X93051489Y-77169318D01*
X93044608Y-77164951D01*
X93001992Y-77149776D01*
X92890937Y-77110231D01*
X92890934Y-77110230D01*
X92884300Y-77107868D01*
X92880809Y-77107452D01*
X92820270Y-77073108D01*
X92787260Y-77010252D01*
X92786338Y-76982745D01*
X92785158Y-76982745D01*
X92785158Y-76974487D01*
X92786236Y-76966299D01*
X92782279Y-76936243D01*
X92781201Y-76919796D01*
X92781201Y-76868500D01*
X94694965Y-76868500D01*
X94700000Y-76906744D01*
X94715019Y-77020824D01*
X94773814Y-77162767D01*
X94849290Y-77261129D01*
X94854833Y-77268353D01*
X94880269Y-77332762D01*
X94884381Y-77374699D01*
X94938094Y-77536167D01*
X94941741Y-77542189D01*
X94941742Y-77542191D01*
X95026246Y-77681723D01*
X95024677Y-77682673D01*
X95047044Y-77740217D01*
X95047500Y-77750928D01*
X95047500Y-87352054D01*
X95027411Y-87420309D01*
X94947304Y-87544610D01*
X94943818Y-87554189D01*
X94893371Y-87692791D01*
X94889103Y-87704516D01*
X94867775Y-87873343D01*
X94884381Y-88042699D01*
X94938094Y-88204167D01*
X94941741Y-88210189D01*
X94941742Y-88210191D01*
X95026246Y-88349723D01*
X95024677Y-88350673D01*
X95047044Y-88408217D01*
X95047500Y-88418928D01*
X95047500Y-99544054D01*
X95027411Y-99612309D01*
X94947304Y-99736610D01*
X94889103Y-99896516D01*
X94867775Y-100065343D01*
X94884381Y-100234699D01*
X94938094Y-100396167D01*
X94941741Y-100402189D01*
X94941742Y-100402191D01*
X95003943Y-100504896D01*
X95026246Y-100541723D01*
X95144455Y-100664132D01*
X95286846Y-100757310D01*
X95293450Y-100759766D01*
X95293452Y-100759767D01*
X95329844Y-100773301D01*
X95446341Y-100816626D01*
X95615015Y-100839132D01*
X95622026Y-100838494D01*
X95622030Y-100838494D01*
X95777462Y-100824348D01*
X95784483Y-100823709D01*
X95791185Y-100821531D01*
X95791187Y-100821531D01*
X95939623Y-100773301D01*
X95939626Y-100773300D01*
X95946322Y-100771124D01*
X96092490Y-100683990D01*
X96097584Y-100679139D01*
X96097588Y-100679136D01*
X96170897Y-100609324D01*
X96215721Y-100566639D01*
X96309891Y-100424902D01*
X96370319Y-100265825D01*
X96394001Y-100097313D01*
X96394299Y-100076000D01*
X96375331Y-99906892D01*
X96319368Y-99746189D01*
X96313383Y-99736610D01*
X96233646Y-99609007D01*
X96214500Y-99542237D01*
X96214500Y-91113459D01*
X96234502Y-91045338D01*
X96288158Y-90998845D01*
X96358432Y-90988741D01*
X96413732Y-91013237D01*
X96414455Y-91012132D01*
X96529127Y-91087171D01*
X96556846Y-91105310D01*
X96563450Y-91107766D01*
X96563452Y-91107767D01*
X96599844Y-91121301D01*
X96716341Y-91164626D01*
X96885015Y-91187132D01*
X96892026Y-91186494D01*
X96892030Y-91186494D01*
X97047462Y-91172348D01*
X97054483Y-91171709D01*
X97061185Y-91169531D01*
X97061187Y-91169531D01*
X97209623Y-91121301D01*
X97209626Y-91121300D01*
X97216322Y-91119124D01*
X97362490Y-91031990D01*
X97374607Y-91020451D01*
X97437732Y-90987958D01*
X97508403Y-90994751D01*
X97564182Y-91038673D01*
X97587500Y-91111696D01*
X97587500Y-100163117D01*
X97567498Y-100231238D01*
X97550595Y-100252212D01*
X95973741Y-101829066D01*
X95911429Y-101863092D01*
X95897818Y-101865281D01*
X95881532Y-101866992D01*
X95855094Y-101869771D01*
X95855093Y-101869771D01*
X95848093Y-101870507D01*
X95763713Y-101899232D01*
X95693673Y-101923075D01*
X95693670Y-101923076D01*
X95687003Y-101925346D01*
X95681005Y-101929036D01*
X95681003Y-101929037D01*
X95548065Y-102010821D01*
X95548063Y-102010823D01*
X95542066Y-102014512D01*
X95420486Y-102133573D01*
X95416675Y-102139487D01*
X95416673Y-102139489D01*
X95340798Y-102257223D01*
X95328304Y-102276610D01*
X95325894Y-102283232D01*
X95284346Y-102397385D01*
X95270103Y-102436516D01*
X95248775Y-102605343D01*
X95265381Y-102774699D01*
X95319094Y-102936167D01*
X95322741Y-102942189D01*
X95322742Y-102942191D01*
X95336497Y-102964902D01*
X95407246Y-103081723D01*
X95525455Y-103204132D01*
X95667846Y-103297310D01*
X95674450Y-103299766D01*
X95674452Y-103299767D01*
X95710844Y-103313301D01*
X95827341Y-103356626D01*
X95996015Y-103379132D01*
X96003026Y-103378494D01*
X96003030Y-103378494D01*
X96158462Y-103364348D01*
X96165483Y-103363709D01*
X96172185Y-103361531D01*
X96172187Y-103361531D01*
X96320623Y-103313301D01*
X96320626Y-103313300D01*
X96327322Y-103311124D01*
X96473490Y-103223990D01*
X96478584Y-103219139D01*
X96478588Y-103219136D01*
X96545833Y-103155099D01*
X96596721Y-103106639D01*
X96690891Y-102964902D01*
X96751319Y-102805825D01*
X96755694Y-102774699D01*
X96762450Y-102726623D01*
X96791738Y-102661949D01*
X96798129Y-102655064D01*
X98550707Y-100902486D01*
X98563098Y-100891618D01*
X98580611Y-100878180D01*
X98587157Y-100873157D01*
X98680686Y-100751267D01*
X98739481Y-100609324D01*
X98754500Y-100495244D01*
X98759535Y-100457000D01*
X98755578Y-100426944D01*
X98754500Y-100410497D01*
X98754500Y-90827518D01*
X98775552Y-90757791D01*
X98844116Y-90654594D01*
X98849891Y-90645902D01*
X98910319Y-90486825D01*
X98934001Y-90318313D01*
X98934299Y-90297000D01*
X98915331Y-90127892D01*
X98859368Y-89967189D01*
X98769192Y-89822879D01*
X98761708Y-89815342D01*
X98678027Y-89731075D01*
X98649286Y-89702132D01*
X98643662Y-89698563D01*
X98603193Y-89640415D01*
X98600580Y-89569466D01*
X98622738Y-89523788D01*
X98634069Y-89509021D01*
X98634070Y-89509020D01*
X98675656Y-89454824D01*
X98675658Y-89454821D01*
X98680686Y-89448268D01*
X98700993Y-89399242D01*
X98715571Y-89364048D01*
X98736321Y-89313953D01*
X98736321Y-89313952D01*
X98739481Y-89306324D01*
X98754500Y-89192244D01*
X98754500Y-89192242D01*
X98759535Y-89154000D01*
X98755578Y-89123944D01*
X98754500Y-89107497D01*
X98754500Y-80032518D01*
X98775552Y-79962791D01*
X98817598Y-79899507D01*
X98849891Y-79850902D01*
X98910319Y-79691825D01*
X98934001Y-79523313D01*
X98934299Y-79502000D01*
X98915331Y-79332892D01*
X98896730Y-79279476D01*
X98882329Y-79238124D01*
X98859368Y-79172189D01*
X98853383Y-79162610D01*
X98831420Y-79127464D01*
X98769192Y-79027879D01*
X98760161Y-79018784D01*
X98697132Y-78955314D01*
X98649286Y-78907132D01*
X98505608Y-78815951D01*
X98345300Y-78758868D01*
X98176329Y-78738720D01*
X98169326Y-78739456D01*
X98169325Y-78739456D01*
X98014101Y-78755770D01*
X98014097Y-78755771D01*
X98007093Y-78756507D01*
X98000422Y-78758778D01*
X97905105Y-78791226D01*
X97834172Y-78794244D01*
X97772869Y-78758433D01*
X97740657Y-78695165D01*
X97738500Y-78671948D01*
X97738500Y-69928201D01*
X97739578Y-69911754D01*
X97742457Y-69889886D01*
X97743535Y-69881698D01*
X97723481Y-69729374D01*
X97664686Y-69587431D01*
X97631392Y-69544041D01*
X97604379Y-69508836D01*
X97579127Y-69446178D01*
X97573116Y-69392589D01*
X97572331Y-69385590D01*
X97516368Y-69224887D01*
X97510383Y-69215308D01*
X97488420Y-69180162D01*
X97426192Y-69080577D01*
X97306286Y-68959830D01*
X97290039Y-68949519D01*
X97251406Y-68925002D01*
X97162608Y-68868649D01*
X97002300Y-68811566D01*
X96833329Y-68791418D01*
X96826326Y-68792154D01*
X96826325Y-68792154D01*
X96671101Y-68808468D01*
X96671097Y-68808469D01*
X96664093Y-68809205D01*
X96657422Y-68811476D01*
X96509673Y-68861773D01*
X96509670Y-68861774D01*
X96503003Y-68864044D01*
X96497005Y-68867734D01*
X96497003Y-68867735D01*
X96364065Y-68949519D01*
X96364063Y-68949521D01*
X96358066Y-68953210D01*
X96236486Y-69072271D01*
X96232675Y-69078185D01*
X96232673Y-69078187D01*
X96183140Y-69155047D01*
X96144304Y-69215308D01*
X96131374Y-69250833D01*
X96111401Y-69305708D01*
X96069307Y-69362879D01*
X96002985Y-69388217D01*
X95933494Y-69373676D01*
X95882895Y-69323874D01*
X95867000Y-69262613D01*
X95867000Y-68883445D01*
X95887002Y-68815324D01*
X95940633Y-68768972D01*
X95946322Y-68767124D01*
X95952373Y-68763517D01*
X95952375Y-68763516D01*
X96086444Y-68683594D01*
X96092490Y-68679990D01*
X96097584Y-68675139D01*
X96097588Y-68675136D01*
X96164833Y-68611099D01*
X96215721Y-68562639D01*
X96309891Y-68420902D01*
X96370319Y-68261825D01*
X96371700Y-68252002D01*
X96384585Y-68160314D01*
X96394001Y-68093313D01*
X96394299Y-68072000D01*
X96375331Y-67902892D01*
X96371486Y-67891849D01*
X96342057Y-67807343D01*
X96319368Y-67742189D01*
X96313383Y-67732610D01*
X96250449Y-67631897D01*
X96229192Y-67597879D01*
X96109286Y-67477132D01*
X96093039Y-67466821D01*
X96046048Y-67437000D01*
X95965608Y-67385951D01*
X95805300Y-67328868D01*
X95636329Y-67308720D01*
X95629326Y-67309456D01*
X95629325Y-67309456D01*
X95474101Y-67325770D01*
X95474097Y-67325771D01*
X95467093Y-67326507D01*
X95460422Y-67328778D01*
X95312673Y-67379075D01*
X95312670Y-67379076D01*
X95306003Y-67381346D01*
X95300005Y-67385036D01*
X95300003Y-67385037D01*
X95167065Y-67466821D01*
X95167063Y-67466823D01*
X95161066Y-67470512D01*
X95039486Y-67589573D01*
X95035675Y-67595487D01*
X95035673Y-67595489D01*
X94951121Y-67726687D01*
X94947304Y-67732610D01*
X94922649Y-67800349D01*
X94900879Y-67860163D01*
X94889103Y-67892516D01*
X94888220Y-67899504D01*
X94888220Y-67899505D01*
X94880907Y-67957391D01*
X94855864Y-68018301D01*
X94798307Y-68093312D01*
X94778843Y-68118678D01*
X94778841Y-68118682D01*
X94773814Y-68125233D01*
X94715019Y-68267176D01*
X94694965Y-68419500D01*
X94696043Y-68427688D01*
X94698922Y-68449556D01*
X94700000Y-68466003D01*
X94700000Y-76821997D01*
X94698922Y-76838444D01*
X94694965Y-76868500D01*
X92781201Y-76868500D01*
X92781201Y-70376219D01*
X92802253Y-70306492D01*
X92819472Y-70280575D01*
X92876592Y-70194603D01*
X92937020Y-70035526D01*
X92960702Y-69867014D01*
X92961000Y-69845701D01*
X92942032Y-69676593D01*
X92886069Y-69515890D01*
X92880084Y-69506311D01*
X92858121Y-69471165D01*
X92795893Y-69371580D01*
X92675987Y-69250833D01*
X92659740Y-69240522D01*
X92620009Y-69215308D01*
X92532309Y-69159652D01*
X92372001Y-69102569D01*
X92203030Y-69082421D01*
X92196027Y-69083157D01*
X92196026Y-69083157D01*
X92040802Y-69099471D01*
X92040798Y-69099472D01*
X92033794Y-69100208D01*
X92027123Y-69102479D01*
X91879374Y-69152776D01*
X91879371Y-69152777D01*
X91872704Y-69155047D01*
X91866706Y-69158737D01*
X91866704Y-69158738D01*
X91733766Y-69240522D01*
X91733764Y-69240524D01*
X91727767Y-69244213D01*
X91606187Y-69363274D01*
X91602376Y-69369188D01*
X91602374Y-69369190D01*
X91552758Y-69446178D01*
X91514005Y-69506311D01*
X91455804Y-69666217D01*
X91434476Y-69835044D01*
X91451082Y-70004400D01*
X91453306Y-70011085D01*
X91453306Y-70011086D01*
X91463628Y-70042115D01*
X91504795Y-70165868D01*
X91508442Y-70171890D01*
X91508443Y-70171892D01*
X91592947Y-70311424D01*
X91591378Y-70312374D01*
X91613745Y-70369918D01*
X91614201Y-70380629D01*
X91614201Y-76672416D01*
X91594199Y-76740537D01*
X91577296Y-76761511D01*
X91274741Y-77064066D01*
X91212429Y-77098092D01*
X91198818Y-77100281D01*
X91182532Y-77101992D01*
X91156094Y-77104771D01*
X91156093Y-77104771D01*
X91149093Y-77105507D01*
X91064512Y-77134300D01*
X90994673Y-77158075D01*
X90994670Y-77158076D01*
X90988003Y-77160346D01*
X90982005Y-77164036D01*
X90982003Y-77164037D01*
X90849065Y-77245821D01*
X90849063Y-77245823D01*
X90843066Y-77249512D01*
X90721486Y-77368573D01*
X90717675Y-77374487D01*
X90717673Y-77374489D01*
X90652356Y-77475840D01*
X90629304Y-77511610D01*
X90571103Y-77671516D01*
X90549775Y-77840343D01*
X90566381Y-78009699D01*
X90568605Y-78016384D01*
X90568605Y-78016385D01*
X90574413Y-78033845D01*
X90620094Y-78171167D01*
X90623741Y-78177189D01*
X90623742Y-78177191D01*
X90704319Y-78310238D01*
X90708246Y-78316723D01*
X90826455Y-78439132D01*
X90832351Y-78442990D01*
X90930647Y-78507313D01*
X90968846Y-78532310D01*
X90971256Y-78533206D01*
X91021749Y-78580557D01*
X91039059Y-78649411D01*
X91016396Y-78716694D01*
X91002251Y-78733556D01*
X90473212Y-79262595D01*
X90410900Y-79296621D01*
X90384117Y-79299500D01*
X90233808Y-79299500D01*
X90165687Y-79279498D01*
X90127461Y-79238124D01*
X90126354Y-79238840D01*
X90007822Y-79055617D01*
X90007820Y-79055614D01*
X90005014Y-79051277D01*
X90001532Y-79047450D01*
X89857798Y-78889488D01*
X89826746Y-78825642D01*
X89835141Y-78755143D01*
X89880317Y-78700375D01*
X89906761Y-78686706D01*
X90013297Y-78646767D01*
X90021705Y-78643615D01*
X90138261Y-78556261D01*
X90225615Y-78439705D01*
X90276745Y-78303316D01*
X90283500Y-78241134D01*
X90283500Y-76444866D01*
X90276745Y-76382684D01*
X90225615Y-76246295D01*
X90138261Y-76129739D01*
X90021705Y-76042385D01*
X89885316Y-75991255D01*
X89823134Y-75984500D01*
X88026866Y-75984500D01*
X87964684Y-75991255D01*
X87828295Y-76042385D01*
X87711739Y-76129739D01*
X87624385Y-76246295D01*
X87573255Y-76382684D01*
X87566500Y-76444866D01*
X87566500Y-78241134D01*
X87573255Y-78303316D01*
X87624385Y-78439705D01*
X87711739Y-78556261D01*
X87828295Y-78643615D01*
X87836704Y-78646767D01*
X87836705Y-78646768D01*
X87945451Y-78687535D01*
X88002216Y-78730176D01*
X88026916Y-78796738D01*
X88011709Y-78866087D01*
X87992316Y-78892568D01*
X87982813Y-78902512D01*
X87946178Y-78940849D01*
X87865629Y-79025138D01*
X87862715Y-79029410D01*
X87862714Y-79029411D01*
X87833295Y-79072538D01*
X87739743Y-79209680D01*
X87726021Y-79239242D01*
X87649842Y-79403357D01*
X87645688Y-79412305D01*
X87585989Y-79627570D01*
X87562251Y-79849695D01*
X87562548Y-79854848D01*
X87562548Y-79854851D01*
X87572792Y-80032518D01*
X87575110Y-80072715D01*
X87576247Y-80077761D01*
X87576248Y-80077767D01*
X87597351Y-80171406D01*
X87624222Y-80290639D01*
X87708266Y-80497616D01*
X87710965Y-80502020D01*
X87807775Y-80660000D01*
X87824987Y-80688088D01*
X87971250Y-80856938D01*
X88143126Y-80999632D01*
X88188250Y-81026000D01*
X88216445Y-81042476D01*
X88265169Y-81094114D01*
X88278240Y-81163897D01*
X88251509Y-81229669D01*
X88211055Y-81263027D01*
X88198607Y-81269507D01*
X88194474Y-81272610D01*
X88194471Y-81272612D01*
X88075315Y-81362077D01*
X88019965Y-81403635D01*
X88016393Y-81407373D01*
X87893030Y-81536465D01*
X87865629Y-81565138D01*
X87862715Y-81569410D01*
X87862714Y-81569411D01*
X87833184Y-81612700D01*
X87739743Y-81749680D01*
X87704138Y-81826385D01*
X87655006Y-81932232D01*
X87645688Y-81952305D01*
X87585989Y-82167570D01*
X87562251Y-82389695D01*
X87562548Y-82394848D01*
X87562548Y-82394851D01*
X87572896Y-82574314D01*
X87575110Y-82612715D01*
X87576247Y-82617761D01*
X87576248Y-82617767D01*
X87593156Y-82692791D01*
X87624222Y-82830639D01*
X87708266Y-83037616D01*
X87710965Y-83042020D01*
X87807775Y-83200000D01*
X87824987Y-83228088D01*
X87971250Y-83396938D01*
X88143126Y-83539632D01*
X88211706Y-83579707D01*
X88216445Y-83582476D01*
X88265169Y-83634114D01*
X88278240Y-83703897D01*
X88251509Y-83769669D01*
X88211055Y-83803027D01*
X88198607Y-83809507D01*
X88194474Y-83812610D01*
X88194471Y-83812612D01*
X88069721Y-83906277D01*
X88019965Y-83943635D01*
X88016393Y-83947373D01*
X87900352Y-84068803D01*
X87865629Y-84105138D01*
X87739743Y-84289680D01*
X87726021Y-84319242D01*
X87649842Y-84483357D01*
X87645688Y-84492305D01*
X87585989Y-84707570D01*
X87562251Y-84929695D01*
X87562548Y-84934848D01*
X87562548Y-84934851D01*
X87574812Y-85147547D01*
X87575110Y-85152715D01*
X87576247Y-85157761D01*
X87576248Y-85157767D01*
X87597351Y-85251406D01*
X87624222Y-85370639D01*
X87708266Y-85577616D01*
X87710965Y-85582020D01*
X87819344Y-85758879D01*
X87824987Y-85768088D01*
X87971250Y-85936938D01*
X88143126Y-86079632D01*
X88200455Y-86113132D01*
X88216955Y-86122774D01*
X88265679Y-86174412D01*
X88278750Y-86244195D01*
X88252019Y-86309967D01*
X88211562Y-86343327D01*
X88203457Y-86347546D01*
X88194738Y-86353036D01*
X88024433Y-86480905D01*
X88016726Y-86487748D01*
X87869590Y-86641717D01*
X87863104Y-86649727D01*
X87743098Y-86825649D01*
X87738000Y-86834623D01*
X87648338Y-87027783D01*
X87644775Y-87037470D01*
X87589389Y-87237183D01*
X87590912Y-87245607D01*
X87603292Y-87249000D01*
X90243344Y-87249000D01*
X90256875Y-87245027D01*
X90258180Y-87235947D01*
X90216214Y-87068875D01*
X90212894Y-87059124D01*
X90127972Y-86863814D01*
X90123105Y-86854739D01*
X90007426Y-86675926D01*
X90001136Y-86667757D01*
X89857806Y-86510240D01*
X89850273Y-86503215D01*
X89683139Y-86371222D01*
X89674556Y-86365520D01*
X89637602Y-86345120D01*
X89587631Y-86294687D01*
X89572859Y-86225245D01*
X89597975Y-86158839D01*
X89625327Y-86132232D01*
X89652104Y-86113132D01*
X89804860Y-86004173D01*
X89963096Y-85846489D01*
X89994174Y-85803240D01*
X90090435Y-85669277D01*
X90093453Y-85665077D01*
X90175417Y-85499234D01*
X90223530Y-85447027D01*
X90292231Y-85429120D01*
X90332294Y-85436964D01*
X90344211Y-85441396D01*
X90359739Y-85447171D01*
X90359741Y-85447172D01*
X90366341Y-85449626D01*
X90373320Y-85450557D01*
X90373323Y-85450558D01*
X90419425Y-85456709D01*
X90535015Y-85472132D01*
X90542026Y-85471494D01*
X90542030Y-85471494D01*
X90697462Y-85457348D01*
X90704483Y-85456709D01*
X90711185Y-85454531D01*
X90711187Y-85454531D01*
X90859623Y-85406301D01*
X90859626Y-85406300D01*
X90866322Y-85404124D01*
X91012490Y-85316990D01*
X91012528Y-85317054D01*
X91076034Y-85292884D01*
X91085860Y-85292500D01*
X91238500Y-85292500D01*
X91306621Y-85312502D01*
X91353114Y-85366158D01*
X91364500Y-85418500D01*
X91364500Y-91533037D01*
X91356901Y-91576131D01*
X91335513Y-91634893D01*
X91335512Y-91634898D01*
X91333103Y-91641516D01*
X91311775Y-91810343D01*
X91328381Y-91979699D01*
X91382094Y-92141167D01*
X91385741Y-92147189D01*
X91385742Y-92147191D01*
X91470246Y-92286723D01*
X91468677Y-92287673D01*
X91491044Y-92345217D01*
X91491500Y-92355928D01*
X91491500Y-92917497D01*
X91490422Y-92933944D01*
X91486465Y-92964000D01*
X91491500Y-93002244D01*
X91506519Y-93116324D01*
X91565314Y-93258267D01*
X91658843Y-93380157D01*
X91665389Y-93385180D01*
X91682898Y-93398615D01*
X91695290Y-93409483D01*
X91962596Y-93676790D01*
X91996621Y-93739102D01*
X91999500Y-93765885D01*
X91999500Y-94368416D01*
X91979498Y-94436537D01*
X91925842Y-94483030D01*
X91886670Y-94493726D01*
X91791101Y-94503770D01*
X91791097Y-94503771D01*
X91784093Y-94504507D01*
X91774490Y-94507776D01*
X91772497Y-94507861D01*
X91770545Y-94508290D01*
X91770470Y-94507947D01*
X91703558Y-94510795D01*
X91644788Y-94477594D01*
X90259740Y-93092547D01*
X90225715Y-93030235D01*
X90228277Y-92966823D01*
X90231623Y-92955812D01*
X90257370Y-92871069D01*
X90286529Y-92649590D01*
X90288156Y-92583000D01*
X90269852Y-92360361D01*
X90215431Y-92143702D01*
X90126354Y-91938840D01*
X90038701Y-91803349D01*
X90007822Y-91755617D01*
X90007820Y-91755614D01*
X90005014Y-91751277D01*
X89854670Y-91586051D01*
X89850619Y-91582852D01*
X89850615Y-91582848D01*
X89683414Y-91450800D01*
X89683410Y-91450798D01*
X89679359Y-91447598D01*
X89638053Y-91424796D01*
X89588084Y-91374364D01*
X89573312Y-91304921D01*
X89598428Y-91238516D01*
X89625780Y-91211909D01*
X89692068Y-91164626D01*
X89804860Y-91084173D01*
X89963096Y-90926489D01*
X89994174Y-90883240D01*
X90090435Y-90749277D01*
X90093453Y-90745077D01*
X90095814Y-90740301D01*
X90190136Y-90549453D01*
X90190137Y-90549451D01*
X90192430Y-90544811D01*
X90237104Y-90397773D01*
X90255865Y-90336023D01*
X90255865Y-90336021D01*
X90257370Y-90331069D01*
X90286529Y-90109590D01*
X90287033Y-90088950D01*
X90288074Y-90046365D01*
X90288074Y-90046361D01*
X90288156Y-90043000D01*
X90269852Y-89820361D01*
X90215431Y-89603702D01*
X90126354Y-89398840D01*
X90034749Y-89257240D01*
X90007822Y-89215617D01*
X90007820Y-89215614D01*
X90005014Y-89211277D01*
X89854670Y-89046051D01*
X89850619Y-89042852D01*
X89850615Y-89042848D01*
X89683414Y-88910800D01*
X89683410Y-88910798D01*
X89679359Y-88907598D01*
X89637569Y-88884529D01*
X89587598Y-88834097D01*
X89572826Y-88764654D01*
X89597942Y-88698248D01*
X89625294Y-88671641D01*
X89800328Y-88546792D01*
X89808200Y-88540139D01*
X89959052Y-88389812D01*
X89965730Y-88381965D01*
X90090003Y-88209020D01*
X90095313Y-88200183D01*
X90189670Y-88009267D01*
X90193469Y-87999672D01*
X90255377Y-87795910D01*
X90257555Y-87785837D01*
X90258986Y-87774962D01*
X90256775Y-87760778D01*
X90243617Y-87757000D01*
X87608225Y-87757000D01*
X87594694Y-87760973D01*
X87593257Y-87770966D01*
X87623565Y-87905446D01*
X87626645Y-87915275D01*
X87706770Y-88112603D01*
X87711413Y-88121794D01*
X87822694Y-88303388D01*
X87828777Y-88311699D01*
X87968213Y-88472667D01*
X87975580Y-88479883D01*
X88139434Y-88615916D01*
X88147881Y-88621831D01*
X88216969Y-88662203D01*
X88265693Y-88713842D01*
X88278764Y-88783625D01*
X88252033Y-88849396D01*
X88211584Y-88882752D01*
X88198607Y-88889507D01*
X88194474Y-88892610D01*
X88194471Y-88892612D01*
X88069721Y-88986277D01*
X88019965Y-89023635D01*
X88016393Y-89027373D01*
X87887561Y-89162188D01*
X87865629Y-89185138D01*
X87862715Y-89189410D01*
X87862714Y-89189411D01*
X87850404Y-89207457D01*
X87739743Y-89369680D01*
X87726021Y-89399242D01*
X87648388Y-89566489D01*
X87645688Y-89572305D01*
X87585989Y-89787570D01*
X87562251Y-90009695D01*
X87562548Y-90014848D01*
X87562548Y-90014851D01*
X87573322Y-90201699D01*
X87575110Y-90232715D01*
X87576247Y-90237761D01*
X87576248Y-90237767D01*
X87595282Y-90322223D01*
X87624222Y-90450639D01*
X87662461Y-90544811D01*
X87699079Y-90634990D01*
X87708266Y-90657616D01*
X87710965Y-90662020D01*
X87812382Y-90827518D01*
X87824987Y-90848088D01*
X87971250Y-91016938D01*
X88143126Y-91159632D01*
X88164887Y-91172348D01*
X88216445Y-91202476D01*
X88265169Y-91254114D01*
X88278240Y-91323897D01*
X88251509Y-91389669D01*
X88211055Y-91423027D01*
X88198607Y-91429507D01*
X88194474Y-91432610D01*
X88194471Y-91432612D01*
X88024100Y-91560530D01*
X88019965Y-91563635D01*
X88002562Y-91581846D01*
X87871282Y-91719223D01*
X87865629Y-91725138D01*
X87862715Y-91729410D01*
X87862714Y-91729411D01*
X87838432Y-91765007D01*
X87739743Y-91909680D01*
X87704138Y-91986385D01*
X87659792Y-92081921D01*
X87645688Y-92112305D01*
X87585989Y-92327570D01*
X87562251Y-92549695D01*
X87562548Y-92554848D01*
X87562548Y-92554851D01*
X87572223Y-92722639D01*
X87575110Y-92772715D01*
X87576247Y-92777761D01*
X87576248Y-92777767D01*
X87596119Y-92865939D01*
X87624222Y-92990639D01*
X87708266Y-93197616D01*
X87710965Y-93202020D01*
X87816116Y-93373611D01*
X87824987Y-93388088D01*
X87971250Y-93556938D01*
X88143126Y-93699632D01*
X88336000Y-93812338D01*
X88544692Y-93892030D01*
X88549760Y-93893061D01*
X88549763Y-93893062D01*
X88657003Y-93914880D01*
X88763597Y-93936567D01*
X88768772Y-93936757D01*
X88768774Y-93936757D01*
X88981673Y-93944564D01*
X88981677Y-93944564D01*
X88986837Y-93944753D01*
X88991957Y-93944097D01*
X88991959Y-93944097D01*
X89061153Y-93935233D01*
X89208416Y-93916368D01*
X89309220Y-93886125D01*
X89380214Y-93885707D01*
X89434522Y-93917715D01*
X91146517Y-95629711D01*
X91157385Y-95642102D01*
X91175843Y-95666157D01*
X91206443Y-95689637D01*
X91206446Y-95689640D01*
X91297733Y-95759686D01*
X91305362Y-95762846D01*
X91420686Y-95810615D01*
X91452779Y-95829936D01*
X91456562Y-95833065D01*
X91461455Y-95838132D01*
X91467351Y-95841990D01*
X91467352Y-95841991D01*
X91571425Y-95910094D01*
X91603846Y-95931310D01*
X91610450Y-95933766D01*
X91610452Y-95933767D01*
X91683594Y-95960968D01*
X91763341Y-95990626D01*
X91770326Y-95991558D01*
X91860763Y-96003625D01*
X91925640Y-96032461D01*
X91964628Y-96091794D01*
X91965349Y-96162787D01*
X91933194Y-96217613D01*
X91822293Y-96328514D01*
X91809902Y-96339382D01*
X91794902Y-96350892D01*
X91785843Y-96357843D01*
X91729521Y-96431244D01*
X91692314Y-96479733D01*
X91633519Y-96621676D01*
X91613465Y-96774000D01*
X91614543Y-96782188D01*
X91617422Y-96804056D01*
X91618500Y-96820503D01*
X91618500Y-103280761D01*
X91598498Y-103348882D01*
X91544842Y-103395375D01*
X91474568Y-103405479D01*
X91409988Y-103375985D01*
X91403405Y-103369856D01*
X89570405Y-101536856D01*
X89536379Y-101474544D01*
X89533500Y-101447761D01*
X89533500Y-100627319D01*
X89553502Y-100559198D01*
X89604068Y-100514168D01*
X89610754Y-100510893D01*
X89618353Y-100507170D01*
X89618357Y-100507168D01*
X89622994Y-100504896D01*
X89627198Y-100501898D01*
X89627202Y-100501895D01*
X89735142Y-100424902D01*
X89804860Y-100375173D01*
X89963096Y-100217489D01*
X90093453Y-100036077D01*
X90160589Y-99900238D01*
X90190136Y-99840453D01*
X90190137Y-99840451D01*
X90192430Y-99835811D01*
X90257370Y-99622069D01*
X90286529Y-99400590D01*
X90288156Y-99334000D01*
X90269852Y-99111361D01*
X90215431Y-98894702D01*
X90126354Y-98689840D01*
X90086906Y-98628862D01*
X90007822Y-98506617D01*
X90007820Y-98506614D01*
X90005014Y-98502277D01*
X90001532Y-98498450D01*
X89857798Y-98340488D01*
X89826746Y-98276642D01*
X89835141Y-98206143D01*
X89880317Y-98151375D01*
X89906761Y-98137706D01*
X90013297Y-98097767D01*
X90021705Y-98094615D01*
X90138261Y-98007261D01*
X90225615Y-97890705D01*
X90276745Y-97754316D01*
X90283500Y-97692134D01*
X90283500Y-95895866D01*
X90276745Y-95833684D01*
X90225615Y-95697295D01*
X90138261Y-95580739D01*
X90021705Y-95493385D01*
X89885316Y-95442255D01*
X89823134Y-95435500D01*
X88026866Y-95435500D01*
X87964684Y-95442255D01*
X87828295Y-95493385D01*
X87711739Y-95580739D01*
X87624385Y-95697295D01*
X87573255Y-95833684D01*
X87566500Y-95895866D01*
X87566500Y-97239760D01*
X87546498Y-97307881D01*
X87529595Y-97328855D01*
X87428768Y-97429682D01*
X87416378Y-97440549D01*
X87397566Y-97454984D01*
X87397562Y-97454988D01*
X87391013Y-97460013D01*
X87366526Y-97491925D01*
X87366523Y-97491928D01*
X87366517Y-97491936D01*
X87303306Y-97574314D01*
X87293476Y-97587124D01*
X87232162Y-97735149D01*
X87231111Y-97743132D01*
X87216500Y-97854115D01*
X87216500Y-97854120D01*
X87211250Y-97894000D01*
X87212397Y-97902709D01*
X87215422Y-97925690D01*
X87216500Y-97942136D01*
X87216500Y-101746864D01*
X87215422Y-101763307D01*
X87211250Y-101795000D01*
X87216500Y-101834880D01*
X87216500Y-101834885D01*
X87223190Y-101885699D01*
X87232162Y-101953851D01*
X87293476Y-102101876D01*
X87298503Y-102108427D01*
X87298504Y-102108429D01*
X87366520Y-102197069D01*
X87366526Y-102197075D01*
X87391013Y-102228987D01*
X87397568Y-102234017D01*
X87416379Y-102248452D01*
X87428770Y-102259319D01*
X89186356Y-104016905D01*
X89220382Y-104079217D01*
X89215317Y-104150032D01*
X89172770Y-104206868D01*
X89106250Y-104231679D01*
X89097261Y-104232000D01*
X85462500Y-104232000D01*
X85394379Y-104211998D01*
X85347886Y-104158342D01*
X85336500Y-104106000D01*
X85336500Y-68358000D01*
X85356502Y-68289879D01*
X85410158Y-68243386D01*
X85462500Y-68232000D01*
X90578000Y-68232000D01*
X90578000Y-62866500D01*
X90598002Y-62798379D01*
X90651658Y-62751886D01*
X90704000Y-62740500D01*
X147452000Y-62740500D01*
X147520121Y-62760502D01*
G37*
G04 #@! TD.AperFunction*
G04 #@! TA.AperFunction,Conductor*
G36*
X96423012Y-79968197D02*
G01*
X96431133Y-79975890D01*
X96541455Y-80090132D01*
X96547351Y-80093990D01*
X96665655Y-80171406D01*
X96683846Y-80183310D01*
X96690450Y-80185766D01*
X96690452Y-80185767D01*
X96726844Y-80199301D01*
X96843341Y-80242626D01*
X97012015Y-80265132D01*
X97019026Y-80264494D01*
X97019030Y-80264494D01*
X97174462Y-80250348D01*
X97181483Y-80249709D01*
X97188185Y-80247531D01*
X97188187Y-80247531D01*
X97336623Y-80199301D01*
X97336626Y-80199300D01*
X97343322Y-80197124D01*
X97396982Y-80165136D01*
X97465737Y-80147436D01*
X97533147Y-80169718D01*
X97577809Y-80224907D01*
X97587500Y-80273365D01*
X97587500Y-88860117D01*
X97567498Y-88928238D01*
X97550595Y-88949212D01*
X96862741Y-89637066D01*
X96800429Y-89671092D01*
X96786818Y-89673281D01*
X96770532Y-89674992D01*
X96744094Y-89677771D01*
X96744093Y-89677771D01*
X96737093Y-89678507D01*
X96663353Y-89703610D01*
X96582673Y-89731075D01*
X96582670Y-89731076D01*
X96576003Y-89733346D01*
X96570005Y-89737036D01*
X96570003Y-89737037D01*
X96437065Y-89818821D01*
X96437063Y-89818823D01*
X96431066Y-89822512D01*
X96426033Y-89827440D01*
X96420483Y-89831777D01*
X96419074Y-89829974D01*
X96365990Y-89858242D01*
X96295231Y-89852434D01*
X96238845Y-89809294D01*
X96214734Y-89742517D01*
X96214500Y-89734847D01*
X96214500Y-88414518D01*
X96235552Y-88344791D01*
X96278599Y-88280000D01*
X96309891Y-88232902D01*
X96370319Y-88073825D01*
X96371908Y-88062522D01*
X96380740Y-87999672D01*
X96394001Y-87905313D01*
X96394299Y-87884000D01*
X96375331Y-87714892D01*
X96319368Y-87554189D01*
X96313929Y-87545484D01*
X96233646Y-87417007D01*
X96214500Y-87350237D01*
X96214500Y-80063421D01*
X96234502Y-79995300D01*
X96288158Y-79948807D01*
X96358432Y-79938703D01*
X96423012Y-79968197D01*
G37*
G04 #@! TD.AperFunction*
G04 #@! TA.AperFunction,Conductor*
G36*
X96506551Y-77452511D02*
G01*
X96556450Y-77503015D01*
X96571500Y-77562732D01*
X96571500Y-78834391D01*
X96551498Y-78902512D01*
X96533658Y-78924414D01*
X96512087Y-78945538D01*
X96436486Y-79019573D01*
X96436085Y-79020195D01*
X96379588Y-79058932D01*
X96308623Y-79061049D01*
X96247779Y-79024463D01*
X96216373Y-78960791D01*
X96214500Y-78939148D01*
X96214500Y-77746518D01*
X96235552Y-77676791D01*
X96305990Y-77570773D01*
X96309891Y-77564902D01*
X96327712Y-77517988D01*
X96370601Y-77461410D01*
X96437269Y-77437001D01*
X96506551Y-77452511D01*
G37*
G04 #@! TD.AperFunction*
M02*
