M48
; DRILL file {KiCad (6.0.8)} date Sat Nov 26 10:27:07 2022
; FORMAT={-:-/ absolute / metric / decimal}
; #@! TF.CreationDate,2022-11-26T10:27:07-06:00
; #@! TF.GenerationSoftware,Kicad,Pcbnew,(6.0.8)
; #@! TF.FileFunction,Plated,1,2,PTH
FMAT,2
METRIC
; #@! TA.AperFunction,Plated,PTH,ViaDrill
T1C0.300
; #@! TA.AperFunction,Plated,PTH,ComponentDrill
T2C1.000
; #@! TA.AperFunction,Plated,PTH,ComponentDrill
T3C2.200
%
G90
G05
T1
X86.069Y-94.502
X87.078Y-69.732
X90.551Y-84.709
X91.313Y-77.851
X91.53Y-108.853
X91.948Y-84.709
X91.948Y-95.25
X92.075Y-91.821
X92.198Y-69.846
X92.329Y-104.267
X92.678Y-64.832
X92.71Y-77.851
X92.71Y-86.233
X92.71Y-98.933
X95.631Y-68.072
X95.631Y-77.216
X95.631Y-87.884
X95.631Y-100.076
X96.012Y-69.342
X96.012Y-102.616
X96.139Y-89.916
X96.266Y-79.248
X96.531Y-93.382
X96.828Y-69.555
X96.878Y-82.682
X96.878Y-84.632
X96.901Y-90.424
X96.928Y-96.432
X97.028Y-79.502
X97.028Y-102.616
X97.028Y-105.029
X98.044Y-66.421
X98.078Y-74.182
X98.171Y-79.502
X98.171Y-90.297
X100.278Y-85.032
X100.42Y-108.98
X101.278Y-73.832
X110.678Y-108.632
X110.998Y-68.072
X111.125Y-73.025
X111.125Y-78.105
X111.252Y-83.185
X111.252Y-88.265
X111.252Y-93.472
X111.252Y-98.425
X111.252Y-103.251
X112.649Y-67.818
X112.649Y-70.866
X112.776Y-82.232
X112.828Y-87.232
X112.828Y-92.232
X112.828Y-97.232
X112.828Y-102.232
X113.411Y-75.946
X116.168Y-72.15
X116.168Y-77.357
X116.168Y-81.675
X116.168Y-87.136
X116.168Y-97.423
X116.168Y-102.249
X116.295Y-92.978
X117.983Y-106.172
X118.999Y-102.232
X119.126Y-67.437
X119.126Y-71.374
X119.126Y-76.581
X119.126Y-81.661
X119.126Y-86.614
X119.126Y-92.075
X119.126Y-97.155
X120.178Y-77.832
X120.478Y-82.132
X120.478Y-97.832
X120.528Y-87.682
X120.528Y-92.982
X120.728Y-72.082
X120.728Y-102.682
X124.128Y-108.432
X125.185Y-67.07
X125.185Y-77.23
X125.312Y-72.15
X125.312Y-82.437
X125.312Y-87.644
X125.312Y-92.978
X125.312Y-97.931
X125.312Y-103.011
X129.032Y-67.945
X129.032Y-72.898
X129.032Y-75.946
X129.032Y-78.359
X129.286Y-82.423
X129.286Y-87.63
X129.286Y-92.964
X129.286Y-97.917
X129.286Y-102.87
X130.937Y-106.172
X131.191Y-101.346
X131.318Y-66.548
X131.318Y-75.946
X131.318Y-78.486
X131.318Y-81.28
X131.318Y-86.233
X131.318Y-91.694
X131.445Y-70.739
X131.445Y-96.52
X134.202Y-72.15
X134.202Y-87.517
X134.202Y-103.265
X134.329Y-67.197
X134.329Y-93.105
X134.329Y-98.312
X136.652Y-91.694
X136.652Y-96.774
X136.652Y-101.727
X136.779Y-81.28
X136.779Y-86.36
X137.033Y-75.819
X137.033Y-78.613
X137.16Y-70.612
X137.287Y-66.802
X138.078Y-92.982
X138.228Y-87.632
X138.278Y-72.332
X138.328Y-97.832
X138.528Y-82.282
X140.208Y-75.946
X140.462Y-96.393
X142.24Y-98.044
X142.875Y-72.136
X143.51Y-66.294
X143.51Y-87.884
X143.51Y-90.043
X143.51Y-91.44
X143.637Y-82.296
X143.637Y-86.106
X143.764Y-73.279
X144.018Y-97.155
X144.145Y-81.153
X144.278Y-107.882
X144.78Y-80.645
X145.034Y-73.279
X145.034Y-101.981
X145.542Y-97.155
X146.478Y-64.782
X147.447Y-104.394
X148.528Y-68.682
X149.928Y-99.532
T2
X88.925Y-77.343
X88.925Y-79.883
X88.925Y-82.423
X88.925Y-84.963
X88.925Y-87.503
X88.925Y-90.043
X88.925Y-92.583
X88.925Y-96.794
X88.925Y-99.334
X147.975Y-75.58
X147.975Y-78.12
X147.975Y-80.66
X147.975Y-83.2
X147.975Y-85.74
X147.975Y-88.28
X147.975Y-90.82
X147.975Y-93.36
X150.515Y-75.58
X150.515Y-78.12
X150.515Y-80.66
X150.515Y-83.2
X150.515Y-85.74
X150.515Y-88.28
X150.515Y-90.82
X150.515Y-93.36
T3
X88.011Y-106.807
X88.392Y-65.913
X150.368Y-65.659
X150.622Y-106.807
T0
M30
