G04 #@! TF.GenerationSoftware,KiCad,Pcbnew,(6.0.8)*
G04 #@! TF.CreationDate,2022-11-26T10:26:50-06:00*
G04 #@! TF.ProjectId,photo_switching,70686f74-6f5f-4737-9769-746368696e67,rev?*
G04 #@! TF.SameCoordinates,Original*
G04 #@! TF.FileFunction,Paste,Top*
G04 #@! TF.FilePolarity,Positive*
%FSLAX46Y46*%
G04 Gerber Fmt 4.6, Leading zero omitted, Abs format (unit mm)*
G04 Created by KiCad (PCBNEW (6.0.8)) date 2022-11-26 10:26:50*
%MOMM*%
%LPD*%
G01*
G04 APERTURE LIST*
G04 Aperture macros list*
%AMRoundRect*
0 Rectangle with rounded corners*
0 $1 Rounding radius*
0 $2 $3 $4 $5 $6 $7 $8 $9 X,Y pos of 4 corners*
0 Add a 4 corners polygon primitive as box body*
4,1,4,$2,$3,$4,$5,$6,$7,$8,$9,$2,$3,0*
0 Add four circle primitives for the rounded corners*
1,1,$1+$1,$2,$3*
1,1,$1+$1,$4,$5*
1,1,$1+$1,$6,$7*
1,1,$1+$1,$8,$9*
0 Add four rect primitives between the rounded corners*
20,1,$1+$1,$2,$3,$4,$5,0*
20,1,$1+$1,$4,$5,$6,$7,0*
20,1,$1+$1,$6,$7,$8,$9,0*
20,1,$1+$1,$8,$9,$2,$3,0*%
G04 Aperture macros list end*
%ADD10RoundRect,0.200000X-0.200000X-0.275000X0.200000X-0.275000X0.200000X0.275000X-0.200000X0.275000X0*%
%ADD11RoundRect,0.225000X-0.225000X-0.250000X0.225000X-0.250000X0.225000X0.250000X-0.225000X0.250000X0*%
%ADD12R,1.200000X0.800000*%
%ADD13RoundRect,0.100000X0.637500X0.100000X-0.637500X0.100000X-0.637500X-0.100000X0.637500X-0.100000X0*%
G04 APERTURE END LIST*
D10*
X104878000Y-86913888D03*
X103228000Y-86913888D03*
X104878000Y-88551880D03*
X103228000Y-88551880D03*
X104878000Y-98379832D03*
X103228000Y-98379832D03*
X104878000Y-100017824D03*
X103228000Y-100017824D03*
X104878000Y-90189872D03*
X103228000Y-90189872D03*
X104878000Y-91827864D03*
X103228000Y-91827864D03*
X104878000Y-101655816D03*
X103228000Y-101655816D03*
X104878000Y-103293808D03*
X103228000Y-103293808D03*
X104878000Y-93465856D03*
X103228000Y-93465856D03*
X104878000Y-95103848D03*
X103228000Y-95103848D03*
X104878000Y-104931800D03*
X103228000Y-104931800D03*
X104878000Y-106569792D03*
X103228000Y-106569792D03*
X104878000Y-96741840D03*
X103228000Y-96741840D03*
X104878000Y-108207790D03*
X103228000Y-108207790D03*
X100553000Y-93532000D03*
X98903000Y-93532000D03*
X99003000Y-105682000D03*
X100653000Y-105682000D03*
X104878000Y-75447944D03*
X103228000Y-75447944D03*
X104878000Y-77085936D03*
X103228000Y-77085936D03*
X104878000Y-78723928D03*
X103228000Y-78723928D03*
X104878000Y-80361920D03*
X103228000Y-80361920D03*
X104878000Y-81999912D03*
X103228000Y-81999912D03*
X104878000Y-83637904D03*
X103228000Y-83637904D03*
X104878000Y-85275896D03*
X103228000Y-85275896D03*
X100483000Y-82732000D03*
X98833000Y-82732000D03*
X104878000Y-63982000D03*
X103228000Y-63982000D03*
X103228000Y-65619992D03*
X104878000Y-65619992D03*
X104878000Y-67257984D03*
X103228000Y-67257984D03*
X103228000Y-68895976D03*
X104878000Y-68895976D03*
X103228000Y-70533968D03*
X104878000Y-70533968D03*
X103228000Y-72171960D03*
X104878000Y-72171960D03*
X103228000Y-73809952D03*
X104878000Y-73809952D03*
X99078000Y-72432000D03*
X100728000Y-72432000D03*
D11*
X95528000Y-105382000D03*
X93978000Y-105382000D03*
X95528000Y-93382000D03*
X93978000Y-93382000D03*
X95478000Y-82682000D03*
X93928000Y-82682000D03*
X95578000Y-72482000D03*
X94028000Y-72482000D03*
D12*
X123927000Y-99314000D03*
X123927000Y-96774000D03*
X117627000Y-96774000D03*
X117627000Y-99314000D03*
X108356000Y-86360000D03*
X108356000Y-88900000D03*
X114656000Y-88900000D03*
X114656000Y-86360000D03*
X126517000Y-70866000D03*
X126517000Y-73406000D03*
X132817000Y-73406000D03*
X132817000Y-70866000D03*
X141961000Y-88900000D03*
X141961000Y-86360000D03*
X135661000Y-86360000D03*
X135661000Y-88900000D03*
X123927000Y-104267000D03*
X123927000Y-101727000D03*
X117627000Y-101727000D03*
X117627000Y-104267000D03*
D13*
X94292500Y-104002000D03*
X94292500Y-103352000D03*
X94292500Y-102702000D03*
X94292500Y-102052000D03*
X94292500Y-101402000D03*
X94292500Y-100752000D03*
X94292500Y-100102000D03*
X94292500Y-99452000D03*
X100017500Y-99452000D03*
X100017500Y-100102000D03*
X100017500Y-100752000D03*
X100017500Y-101402000D03*
X100017500Y-102052000D03*
X100017500Y-102702000D03*
X100017500Y-103352000D03*
X100017500Y-104002000D03*
D12*
X141961000Y-68453000D03*
X141961000Y-65913000D03*
X135661000Y-65913000D03*
X135661000Y-68453000D03*
X123927000Y-88900000D03*
X123927000Y-86360000D03*
X117627000Y-86360000D03*
X117627000Y-88900000D03*
X123927000Y-94234000D03*
X123927000Y-91694000D03*
X117627000Y-91694000D03*
X117627000Y-94234000D03*
X123927000Y-73406000D03*
X123927000Y-70866000D03*
X117627000Y-70866000D03*
X117627000Y-73406000D03*
X123927000Y-68453000D03*
X123927000Y-65913000D03*
X117627000Y-65913000D03*
X117627000Y-68453000D03*
X141961000Y-73406000D03*
X141961000Y-70866000D03*
X135661000Y-70866000D03*
X135661000Y-73406000D03*
X126517000Y-76073000D03*
X126517000Y-78613000D03*
X132817000Y-78613000D03*
X132817000Y-76073000D03*
X126517000Y-101727000D03*
X126517000Y-104267000D03*
X132817000Y-104267000D03*
X132817000Y-101727000D03*
X108356000Y-91694000D03*
X108356000Y-94234000D03*
X114656000Y-94234000D03*
X114656000Y-91694000D03*
X141961000Y-94234000D03*
X141961000Y-91694000D03*
X135661000Y-91694000D03*
X135661000Y-94234000D03*
X141961000Y-78613000D03*
X141961000Y-76073000D03*
X135661000Y-76073000D03*
X135661000Y-78613000D03*
X141961000Y-99314000D03*
X141961000Y-96774000D03*
X135661000Y-96774000D03*
X135661000Y-99314000D03*
X123927000Y-83693000D03*
X123927000Y-81153000D03*
X117627000Y-81153000D03*
X117627000Y-83693000D03*
X141961000Y-83693000D03*
X141961000Y-81153000D03*
X135661000Y-81153000D03*
X135661000Y-83693000D03*
D13*
X94292500Y-91810000D03*
X94292500Y-91160000D03*
X94292500Y-90510000D03*
X94292500Y-89860000D03*
X94292500Y-89210000D03*
X94292500Y-88560000D03*
X94292500Y-87910000D03*
X94292500Y-87260000D03*
X100017500Y-87260000D03*
X100017500Y-87910000D03*
X100017500Y-88560000D03*
X100017500Y-89210000D03*
X100017500Y-89860000D03*
X100017500Y-90510000D03*
X100017500Y-91160000D03*
X100017500Y-91810000D03*
D12*
X126517000Y-65913000D03*
X126517000Y-68453000D03*
X132817000Y-68453000D03*
X132817000Y-65913000D03*
X117627000Y-78613000D03*
X117627000Y-76073000D03*
X123927000Y-76073000D03*
X123927000Y-78613000D03*
X108356000Y-81153000D03*
X108356000Y-83693000D03*
X114656000Y-83693000D03*
X114656000Y-81153000D03*
X126517000Y-96774000D03*
X126517000Y-99314000D03*
X132817000Y-99314000D03*
X132817000Y-96774000D03*
X126517000Y-86360000D03*
X126517000Y-88900000D03*
X132817000Y-88900000D03*
X132817000Y-86360000D03*
X141961000Y-104267000D03*
X141961000Y-101727000D03*
X135661000Y-101727000D03*
X135661000Y-104267000D03*
X108356000Y-65913000D03*
X108356000Y-68453000D03*
X114656000Y-68453000D03*
X114656000Y-65913000D03*
X126517000Y-91694000D03*
X126517000Y-94234000D03*
X132817000Y-94234000D03*
X132817000Y-91694000D03*
X108356000Y-76073000D03*
X108356000Y-78613000D03*
X114656000Y-78613000D03*
X114656000Y-76073000D03*
X108356000Y-101727000D03*
X108356000Y-104267000D03*
X114656000Y-104267000D03*
X114656000Y-101727000D03*
D13*
X100017500Y-81142000D03*
X100017500Y-80492000D03*
X100017500Y-79842000D03*
X100017500Y-79192000D03*
X100017500Y-78542000D03*
X100017500Y-77892000D03*
X100017500Y-77242000D03*
X100017500Y-76592000D03*
X94292500Y-76592000D03*
X94292500Y-77242000D03*
X94292500Y-77892000D03*
X94292500Y-78542000D03*
X94292500Y-79192000D03*
X94292500Y-79842000D03*
X94292500Y-80492000D03*
X94292500Y-81142000D03*
D12*
X108356000Y-96774000D03*
X108356000Y-99314000D03*
X114656000Y-99314000D03*
X114656000Y-96774000D03*
X126517000Y-81153000D03*
X126517000Y-83693000D03*
X132817000Y-83693000D03*
X132817000Y-81153000D03*
D13*
X94292500Y-70855000D03*
X94292500Y-70205000D03*
X94292500Y-69555000D03*
X94292500Y-68905000D03*
X94292500Y-68255000D03*
X94292500Y-67605000D03*
X94292500Y-66955000D03*
X94292500Y-66305000D03*
X100017500Y-66305000D03*
X100017500Y-66955000D03*
X100017500Y-67605000D03*
X100017500Y-68255000D03*
X100017500Y-68905000D03*
X100017500Y-69555000D03*
X100017500Y-70205000D03*
X100017500Y-70855000D03*
D12*
X108356000Y-70866000D03*
X108356000Y-73406000D03*
X114656000Y-73406000D03*
X114656000Y-70866000D03*
M02*
