G04 #@! TF.GenerationSoftware,KiCad,Pcbnew,(6.0.8)*
G04 #@! TF.CreationDate,2022-11-26T10:26:50-06:00*
G04 #@! TF.ProjectId,photo_switching,70686f74-6f5f-4737-9769-746368696e67,rev?*
G04 #@! TF.SameCoordinates,Original*
G04 #@! TF.FileFunction,Legend,Top*
G04 #@! TF.FilePolarity,Positive*
%FSLAX46Y46*%
G04 Gerber Fmt 4.6, Leading zero omitted, Abs format (unit mm)*
G04 Created by KiCad (PCBNEW (6.0.8)) date 2022-11-26 10:26:50*
%MOMM*%
%LPD*%
G01*
G04 APERTURE LIST*
G04 Aperture macros list*
%AMRoundRect*
0 Rectangle with rounded corners*
0 $1 Rounding radius*
0 $2 $3 $4 $5 $6 $7 $8 $9 X,Y pos of 4 corners*
0 Add a 4 corners polygon primitive as box body*
4,1,4,$2,$3,$4,$5,$6,$7,$8,$9,$2,$3,0*
0 Add four circle primitives for the rounded corners*
1,1,$1+$1,$2,$3*
1,1,$1+$1,$4,$5*
1,1,$1+$1,$6,$7*
1,1,$1+$1,$8,$9*
0 Add four rect primitives between the rounded corners*
20,1,$1+$1,$2,$3,$4,$5,0*
20,1,$1+$1,$4,$5,$6,$7,0*
20,1,$1+$1,$6,$7,$8,$9,0*
20,1,$1+$1,$8,$9,$2,$3,0*%
G04 Aperture macros list end*
%ADD10C,0.200000*%
%ADD11C,0.150000*%
%ADD12C,0.120000*%
%ADD13RoundRect,0.200000X-0.200000X-0.275000X0.200000X-0.275000X0.200000X0.275000X-0.200000X0.275000X0*%
%ADD14RoundRect,0.225000X-0.225000X-0.250000X0.225000X-0.250000X0.225000X0.250000X-0.225000X0.250000X0*%
%ADD15R,1.200000X0.800000*%
%ADD16O,1.700000X1.700000*%
%ADD17R,1.700000X1.700000*%
%ADD18C,2.200000*%
%ADD19RoundRect,0.100000X0.637500X0.100000X-0.637500X0.100000X-0.637500X-0.100000X0.637500X-0.100000X0*%
G04 APERTURE END LIST*
D10*
X150337523Y-96279380D02*
X149766095Y-96279380D01*
X150051809Y-96279380D02*
X150051809Y-95279380D01*
X149956571Y-95422238D01*
X149861333Y-95517476D01*
X149766095Y-95565095D01*
X151194666Y-95279380D02*
X151004190Y-95279380D01*
X150908952Y-95327000D01*
X150861333Y-95374619D01*
X150766095Y-95517476D01*
X150718476Y-95707952D01*
X150718476Y-96088904D01*
X150766095Y-96184142D01*
X150813714Y-96231761D01*
X150908952Y-96279380D01*
X151099428Y-96279380D01*
X151194666Y-96231761D01*
X151242285Y-96184142D01*
X151289904Y-96088904D01*
X151289904Y-95850809D01*
X151242285Y-95755571D01*
X151194666Y-95707952D01*
X151099428Y-95660333D01*
X150908952Y-95660333D01*
X150813714Y-95707952D01*
X150766095Y-95755571D01*
X150718476Y-95850809D01*
X148113714Y-73434380D02*
X147542285Y-73434380D01*
X147828000Y-73434380D02*
X147828000Y-72434380D01*
X147732761Y-72577238D01*
X147637523Y-72672476D01*
X147542285Y-72720095D01*
X85823000Y-80345380D02*
X85823000Y-79345380D01*
X86061095Y-79345380D01*
X86203952Y-79393000D01*
X86299190Y-79488238D01*
X86346809Y-79583476D01*
X86394428Y-79773952D01*
X86394428Y-79916809D01*
X86346809Y-80107285D01*
X86299190Y-80202523D01*
X86203952Y-80297761D01*
X86061095Y-80345380D01*
X85823000Y-80345380D01*
X86823000Y-80345380D02*
X86823000Y-79345380D01*
X86132523Y-81955380D02*
X85799190Y-81479190D01*
X85561095Y-81955380D02*
X85561095Y-80955380D01*
X85942047Y-80955380D01*
X86037285Y-81003000D01*
X86084904Y-81050619D01*
X86132523Y-81145857D01*
X86132523Y-81288714D01*
X86084904Y-81383952D01*
X86037285Y-81431571D01*
X85942047Y-81479190D01*
X85561095Y-81479190D01*
X87132523Y-81860142D02*
X87084904Y-81907761D01*
X86942047Y-81955380D01*
X86846809Y-81955380D01*
X86703952Y-81907761D01*
X86608714Y-81812523D01*
X86561095Y-81717285D01*
X86513476Y-81526809D01*
X86513476Y-81383952D01*
X86561095Y-81193476D01*
X86608714Y-81098238D01*
X86703952Y-81003000D01*
X86846809Y-80955380D01*
X86942047Y-80955380D01*
X87084904Y-81003000D01*
X87132523Y-81050619D01*
X86227761Y-83470142D02*
X86180142Y-83517761D01*
X86037285Y-83565380D01*
X85942047Y-83565380D01*
X85799190Y-83517761D01*
X85703952Y-83422523D01*
X85656333Y-83327285D01*
X85608714Y-83136809D01*
X85608714Y-82993952D01*
X85656333Y-82803476D01*
X85703952Y-82708238D01*
X85799190Y-82613000D01*
X85942047Y-82565380D01*
X86037285Y-82565380D01*
X86180142Y-82613000D01*
X86227761Y-82660619D01*
X87132523Y-83565380D02*
X86656333Y-83565380D01*
X86656333Y-82565380D01*
X86132523Y-84175380D02*
X85656333Y-84175380D01*
X85608714Y-84651571D01*
X85656333Y-84603952D01*
X85751571Y-84556333D01*
X85989666Y-84556333D01*
X86084904Y-84603952D01*
X86132523Y-84651571D01*
X86180142Y-84746809D01*
X86180142Y-84984904D01*
X86132523Y-85080142D01*
X86084904Y-85127761D01*
X85989666Y-85175380D01*
X85751571Y-85175380D01*
X85656333Y-85127761D01*
X85608714Y-85080142D01*
X86465857Y-84175380D02*
X86799190Y-85175380D01*
X87132523Y-84175380D01*
X86084904Y-85833000D02*
X85989666Y-85785380D01*
X85846809Y-85785380D01*
X85703952Y-85833000D01*
X85608714Y-85928238D01*
X85561095Y-86023476D01*
X85513476Y-86213952D01*
X85513476Y-86356809D01*
X85561095Y-86547285D01*
X85608714Y-86642523D01*
X85703952Y-86737761D01*
X85846809Y-86785380D01*
X85942047Y-86785380D01*
X86084904Y-86737761D01*
X86132523Y-86690142D01*
X86132523Y-86356809D01*
X85942047Y-86356809D01*
X86561095Y-86785380D02*
X86561095Y-85785380D01*
X86799190Y-85785380D01*
X86942047Y-85833000D01*
X87037285Y-85928238D01*
X87084904Y-86023476D01*
X87132523Y-86213952D01*
X87132523Y-86356809D01*
X87084904Y-86547285D01*
X87037285Y-86642523D01*
X86942047Y-86737761D01*
X86799190Y-86785380D01*
X86561095Y-86785380D01*
X86132523Y-88300142D02*
X86084904Y-88347761D01*
X85942047Y-88395380D01*
X85846809Y-88395380D01*
X85703952Y-88347761D01*
X85608714Y-88252523D01*
X85561095Y-88157285D01*
X85513476Y-87966809D01*
X85513476Y-87823952D01*
X85561095Y-87633476D01*
X85608714Y-87538238D01*
X85703952Y-87443000D01*
X85846809Y-87395380D01*
X85942047Y-87395380D01*
X86084904Y-87443000D01*
X86132523Y-87490619D01*
X86561095Y-88395380D02*
X86561095Y-87395380D01*
X87132523Y-88395380D02*
X86703952Y-87823952D01*
X87132523Y-87395380D02*
X86561095Y-87966809D01*
X85537285Y-90005380D02*
X85537285Y-89005380D01*
X85775380Y-89005380D01*
X85918238Y-89053000D01*
X86013476Y-89148238D01*
X86061095Y-89243476D01*
X86108714Y-89433952D01*
X86108714Y-89576809D01*
X86061095Y-89767285D01*
X86013476Y-89862523D01*
X85918238Y-89957761D01*
X85775380Y-90005380D01*
X85537285Y-90005380D01*
X86727761Y-89005380D02*
X86918238Y-89005380D01*
X87013476Y-89053000D01*
X87108714Y-89148238D01*
X87156333Y-89338714D01*
X87156333Y-89672047D01*
X87108714Y-89862523D01*
X87013476Y-89957761D01*
X86918238Y-90005380D01*
X86727761Y-90005380D01*
X86632523Y-89957761D01*
X86537285Y-89862523D01*
X86489666Y-89672047D01*
X86489666Y-89338714D01*
X86537285Y-89148238D01*
X86632523Y-89053000D01*
X86727761Y-89005380D01*
X147837523Y-96284380D02*
X147266095Y-96284380D01*
X147551809Y-96284380D02*
X147551809Y-95284380D01*
X147456571Y-95427238D01*
X147361333Y-95522476D01*
X147266095Y-95570095D01*
X148742285Y-95284380D02*
X148266095Y-95284380D01*
X148218476Y-95760571D01*
X148266095Y-95712952D01*
X148361333Y-95665333D01*
X148599428Y-95665333D01*
X148694666Y-95712952D01*
X148742285Y-95760571D01*
X148789904Y-95855809D01*
X148789904Y-96093904D01*
X148742285Y-96189142D01*
X148694666Y-96236761D01*
X148599428Y-96284380D01*
X148361333Y-96284380D01*
X148266095Y-96236761D01*
X148218476Y-96189142D01*
X150192285Y-72629619D02*
X150239904Y-72582000D01*
X150335142Y-72534380D01*
X150573238Y-72534380D01*
X150668476Y-72582000D01*
X150716095Y-72629619D01*
X150763714Y-72724857D01*
X150763714Y-72820095D01*
X150716095Y-72962952D01*
X150144666Y-73534380D01*
X150763714Y-73534380D01*
X85280619Y-96691380D02*
X85613952Y-97691380D01*
X85947285Y-96691380D01*
X86280619Y-97310428D02*
X87042523Y-97310428D01*
X85280619Y-98301380D02*
X85613952Y-99301380D01*
X85947285Y-98301380D01*
X86280619Y-98920428D02*
X87042523Y-98920428D01*
X86661571Y-99301380D02*
X86661571Y-98539476D01*
D11*
X80135142Y-87316268D02*
X79801809Y-86840078D01*
X79563714Y-87316268D02*
X79563714Y-86316268D01*
X79944666Y-86316268D01*
X80039904Y-86363888D01*
X80087523Y-86411507D01*
X80135142Y-86506745D01*
X80135142Y-86649602D01*
X80087523Y-86744840D01*
X80039904Y-86792459D01*
X79944666Y-86840078D01*
X79563714Y-86840078D01*
X80468476Y-86316268D02*
X81087523Y-86316268D01*
X80754190Y-86697221D01*
X80897047Y-86697221D01*
X80992285Y-86744840D01*
X81039904Y-86792459D01*
X81087523Y-86887697D01*
X81087523Y-87125792D01*
X81039904Y-87221030D01*
X80992285Y-87268649D01*
X80897047Y-87316268D01*
X80611333Y-87316268D01*
X80516095Y-87268649D01*
X80468476Y-87221030D01*
X81468476Y-86411507D02*
X81516095Y-86363888D01*
X81611333Y-86316268D01*
X81849428Y-86316268D01*
X81944666Y-86363888D01*
X81992285Y-86411507D01*
X82039904Y-86506745D01*
X82039904Y-86601983D01*
X81992285Y-86744840D01*
X81420857Y-87316268D01*
X82039904Y-87316268D01*
X80135142Y-88954260D02*
X79801809Y-88478070D01*
X79563714Y-88954260D02*
X79563714Y-87954260D01*
X79944666Y-87954260D01*
X80039904Y-88001880D01*
X80087523Y-88049499D01*
X80135142Y-88144737D01*
X80135142Y-88287594D01*
X80087523Y-88382832D01*
X80039904Y-88430451D01*
X79944666Y-88478070D01*
X79563714Y-88478070D01*
X80468476Y-87954260D02*
X81087523Y-87954260D01*
X80754190Y-88335213D01*
X80897047Y-88335213D01*
X80992285Y-88382832D01*
X81039904Y-88430451D01*
X81087523Y-88525689D01*
X81087523Y-88763784D01*
X81039904Y-88859022D01*
X80992285Y-88906641D01*
X80897047Y-88954260D01*
X80611333Y-88954260D01*
X80516095Y-88906641D01*
X80468476Y-88859022D01*
X82039904Y-88954260D02*
X81468476Y-88954260D01*
X81754190Y-88954260D02*
X81754190Y-87954260D01*
X81658952Y-88097118D01*
X81563714Y-88192356D01*
X81468476Y-88239975D01*
X80135142Y-98782212D02*
X79801809Y-98306022D01*
X79563714Y-98782212D02*
X79563714Y-97782212D01*
X79944666Y-97782212D01*
X80039904Y-97829832D01*
X80087523Y-97877451D01*
X80135142Y-97972689D01*
X80135142Y-98115546D01*
X80087523Y-98210784D01*
X80039904Y-98258403D01*
X79944666Y-98306022D01*
X79563714Y-98306022D01*
X80468476Y-97782212D02*
X81087523Y-97782212D01*
X80754190Y-98163165D01*
X80897047Y-98163165D01*
X80992285Y-98210784D01*
X81039904Y-98258403D01*
X81087523Y-98353641D01*
X81087523Y-98591736D01*
X81039904Y-98686974D01*
X80992285Y-98734593D01*
X80897047Y-98782212D01*
X80611333Y-98782212D01*
X80516095Y-98734593D01*
X80468476Y-98686974D01*
X81706571Y-97782212D02*
X81801809Y-97782212D01*
X81897047Y-97829832D01*
X81944666Y-97877451D01*
X81992285Y-97972689D01*
X82039904Y-98163165D01*
X82039904Y-98401260D01*
X81992285Y-98591736D01*
X81944666Y-98686974D01*
X81897047Y-98734593D01*
X81801809Y-98782212D01*
X81706571Y-98782212D01*
X81611333Y-98734593D01*
X81563714Y-98686974D01*
X81516095Y-98591736D01*
X81468476Y-98401260D01*
X81468476Y-98163165D01*
X81516095Y-97972689D01*
X81563714Y-97877451D01*
X81611333Y-97829832D01*
X81706571Y-97782212D01*
X80135142Y-100420204D02*
X79801809Y-99944014D01*
X79563714Y-100420204D02*
X79563714Y-99420204D01*
X79944666Y-99420204D01*
X80039904Y-99467824D01*
X80087523Y-99515443D01*
X80135142Y-99610681D01*
X80135142Y-99753538D01*
X80087523Y-99848776D01*
X80039904Y-99896395D01*
X79944666Y-99944014D01*
X79563714Y-99944014D01*
X80516095Y-99515443D02*
X80563714Y-99467824D01*
X80658952Y-99420204D01*
X80897047Y-99420204D01*
X80992285Y-99467824D01*
X81039904Y-99515443D01*
X81087523Y-99610681D01*
X81087523Y-99705919D01*
X81039904Y-99848776D01*
X80468476Y-100420204D01*
X81087523Y-100420204D01*
X81563714Y-100420204D02*
X81754190Y-100420204D01*
X81849428Y-100372585D01*
X81897047Y-100324966D01*
X81992285Y-100182109D01*
X82039904Y-99991633D01*
X82039904Y-99610681D01*
X81992285Y-99515443D01*
X81944666Y-99467824D01*
X81849428Y-99420204D01*
X81658952Y-99420204D01*
X81563714Y-99467824D01*
X81516095Y-99515443D01*
X81468476Y-99610681D01*
X81468476Y-99848776D01*
X81516095Y-99944014D01*
X81563714Y-99991633D01*
X81658952Y-100039252D01*
X81849428Y-100039252D01*
X81944666Y-99991633D01*
X81992285Y-99944014D01*
X82039904Y-99848776D01*
X80135142Y-90592252D02*
X79801809Y-90116062D01*
X79563714Y-90592252D02*
X79563714Y-89592252D01*
X79944666Y-89592252D01*
X80039904Y-89639872D01*
X80087523Y-89687491D01*
X80135142Y-89782729D01*
X80135142Y-89925586D01*
X80087523Y-90020824D01*
X80039904Y-90068443D01*
X79944666Y-90116062D01*
X79563714Y-90116062D01*
X80516095Y-89687491D02*
X80563714Y-89639872D01*
X80658952Y-89592252D01*
X80897047Y-89592252D01*
X80992285Y-89639872D01*
X81039904Y-89687491D01*
X81087523Y-89782729D01*
X81087523Y-89877967D01*
X81039904Y-90020824D01*
X80468476Y-90592252D01*
X81087523Y-90592252D01*
X81658952Y-90020824D02*
X81563714Y-89973205D01*
X81516095Y-89925586D01*
X81468476Y-89830348D01*
X81468476Y-89782729D01*
X81516095Y-89687491D01*
X81563714Y-89639872D01*
X81658952Y-89592252D01*
X81849428Y-89592252D01*
X81944666Y-89639872D01*
X81992285Y-89687491D01*
X82039904Y-89782729D01*
X82039904Y-89830348D01*
X81992285Y-89925586D01*
X81944666Y-89973205D01*
X81849428Y-90020824D01*
X81658952Y-90020824D01*
X81563714Y-90068443D01*
X81516095Y-90116062D01*
X81468476Y-90211300D01*
X81468476Y-90401776D01*
X81516095Y-90497014D01*
X81563714Y-90544633D01*
X81658952Y-90592252D01*
X81849428Y-90592252D01*
X81944666Y-90544633D01*
X81992285Y-90497014D01*
X82039904Y-90401776D01*
X82039904Y-90211300D01*
X81992285Y-90116062D01*
X81944666Y-90068443D01*
X81849428Y-90020824D01*
X80135142Y-92230244D02*
X79801809Y-91754054D01*
X79563714Y-92230244D02*
X79563714Y-91230244D01*
X79944666Y-91230244D01*
X80039904Y-91277864D01*
X80087523Y-91325483D01*
X80135142Y-91420721D01*
X80135142Y-91563578D01*
X80087523Y-91658816D01*
X80039904Y-91706435D01*
X79944666Y-91754054D01*
X79563714Y-91754054D01*
X80516095Y-91325483D02*
X80563714Y-91277864D01*
X80658952Y-91230244D01*
X80897047Y-91230244D01*
X80992285Y-91277864D01*
X81039904Y-91325483D01*
X81087523Y-91420721D01*
X81087523Y-91515959D01*
X81039904Y-91658816D01*
X80468476Y-92230244D01*
X81087523Y-92230244D01*
X81420857Y-91230244D02*
X82087523Y-91230244D01*
X81658952Y-92230244D01*
X80135142Y-102058196D02*
X79801809Y-101582006D01*
X79563714Y-102058196D02*
X79563714Y-101058196D01*
X79944666Y-101058196D01*
X80039904Y-101105816D01*
X80087523Y-101153435D01*
X80135142Y-101248673D01*
X80135142Y-101391530D01*
X80087523Y-101486768D01*
X80039904Y-101534387D01*
X79944666Y-101582006D01*
X79563714Y-101582006D01*
X80516095Y-101153435D02*
X80563714Y-101105816D01*
X80658952Y-101058196D01*
X80897047Y-101058196D01*
X80992285Y-101105816D01*
X81039904Y-101153435D01*
X81087523Y-101248673D01*
X81087523Y-101343911D01*
X81039904Y-101486768D01*
X80468476Y-102058196D01*
X81087523Y-102058196D01*
X81944666Y-101058196D02*
X81754190Y-101058196D01*
X81658952Y-101105816D01*
X81611333Y-101153435D01*
X81516095Y-101296292D01*
X81468476Y-101486768D01*
X81468476Y-101867720D01*
X81516095Y-101962958D01*
X81563714Y-102010577D01*
X81658952Y-102058196D01*
X81849428Y-102058196D01*
X81944666Y-102010577D01*
X81992285Y-101962958D01*
X82039904Y-101867720D01*
X82039904Y-101629625D01*
X81992285Y-101534387D01*
X81944666Y-101486768D01*
X81849428Y-101439149D01*
X81658952Y-101439149D01*
X81563714Y-101486768D01*
X81516095Y-101534387D01*
X81468476Y-101629625D01*
X80135142Y-103696188D02*
X79801809Y-103219998D01*
X79563714Y-103696188D02*
X79563714Y-102696188D01*
X79944666Y-102696188D01*
X80039904Y-102743808D01*
X80087523Y-102791427D01*
X80135142Y-102886665D01*
X80135142Y-103029522D01*
X80087523Y-103124760D01*
X80039904Y-103172379D01*
X79944666Y-103219998D01*
X79563714Y-103219998D01*
X80516095Y-102791427D02*
X80563714Y-102743808D01*
X80658952Y-102696188D01*
X80897047Y-102696188D01*
X80992285Y-102743808D01*
X81039904Y-102791427D01*
X81087523Y-102886665D01*
X81087523Y-102981903D01*
X81039904Y-103124760D01*
X80468476Y-103696188D01*
X81087523Y-103696188D01*
X81992285Y-102696188D02*
X81516095Y-102696188D01*
X81468476Y-103172379D01*
X81516095Y-103124760D01*
X81611333Y-103077141D01*
X81849428Y-103077141D01*
X81944666Y-103124760D01*
X81992285Y-103172379D01*
X82039904Y-103267617D01*
X82039904Y-103505712D01*
X81992285Y-103600950D01*
X81944666Y-103648569D01*
X81849428Y-103696188D01*
X81611333Y-103696188D01*
X81516095Y-103648569D01*
X81468476Y-103600950D01*
X80135142Y-93868236D02*
X79801809Y-93392046D01*
X79563714Y-93868236D02*
X79563714Y-92868236D01*
X79944666Y-92868236D01*
X80039904Y-92915856D01*
X80087523Y-92963475D01*
X80135142Y-93058713D01*
X80135142Y-93201570D01*
X80087523Y-93296808D01*
X80039904Y-93344427D01*
X79944666Y-93392046D01*
X79563714Y-93392046D01*
X80516095Y-92963475D02*
X80563714Y-92915856D01*
X80658952Y-92868236D01*
X80897047Y-92868236D01*
X80992285Y-92915856D01*
X81039904Y-92963475D01*
X81087523Y-93058713D01*
X81087523Y-93153951D01*
X81039904Y-93296808D01*
X80468476Y-93868236D01*
X81087523Y-93868236D01*
X81944666Y-93201570D02*
X81944666Y-93868236D01*
X81706571Y-92820617D02*
X81468476Y-93534903D01*
X82087523Y-93534903D01*
X80135142Y-95506228D02*
X79801809Y-95030038D01*
X79563714Y-95506228D02*
X79563714Y-94506228D01*
X79944666Y-94506228D01*
X80039904Y-94553848D01*
X80087523Y-94601467D01*
X80135142Y-94696705D01*
X80135142Y-94839562D01*
X80087523Y-94934800D01*
X80039904Y-94982419D01*
X79944666Y-95030038D01*
X79563714Y-95030038D01*
X80516095Y-94601467D02*
X80563714Y-94553848D01*
X80658952Y-94506228D01*
X80897047Y-94506228D01*
X80992285Y-94553848D01*
X81039904Y-94601467D01*
X81087523Y-94696705D01*
X81087523Y-94791943D01*
X81039904Y-94934800D01*
X80468476Y-95506228D01*
X81087523Y-95506228D01*
X81420857Y-94506228D02*
X82039904Y-94506228D01*
X81706571Y-94887181D01*
X81849428Y-94887181D01*
X81944666Y-94934800D01*
X81992285Y-94982419D01*
X82039904Y-95077657D01*
X82039904Y-95315752D01*
X81992285Y-95410990D01*
X81944666Y-95458609D01*
X81849428Y-95506228D01*
X81563714Y-95506228D01*
X81468476Y-95458609D01*
X81420857Y-95410990D01*
X80135142Y-105334180D02*
X79801809Y-104857990D01*
X79563714Y-105334180D02*
X79563714Y-104334180D01*
X79944666Y-104334180D01*
X80039904Y-104381800D01*
X80087523Y-104429419D01*
X80135142Y-104524657D01*
X80135142Y-104667514D01*
X80087523Y-104762752D01*
X80039904Y-104810371D01*
X79944666Y-104857990D01*
X79563714Y-104857990D01*
X80516095Y-104429419D02*
X80563714Y-104381800D01*
X80658952Y-104334180D01*
X80897047Y-104334180D01*
X80992285Y-104381800D01*
X81039904Y-104429419D01*
X81087523Y-104524657D01*
X81087523Y-104619895D01*
X81039904Y-104762752D01*
X80468476Y-105334180D01*
X81087523Y-105334180D01*
X81468476Y-104429419D02*
X81516095Y-104381800D01*
X81611333Y-104334180D01*
X81849428Y-104334180D01*
X81944666Y-104381800D01*
X81992285Y-104429419D01*
X82039904Y-104524657D01*
X82039904Y-104619895D01*
X81992285Y-104762752D01*
X81420857Y-105334180D01*
X82039904Y-105334180D01*
X80135142Y-106972172D02*
X79801809Y-106495982D01*
X79563714Y-106972172D02*
X79563714Y-105972172D01*
X79944666Y-105972172D01*
X80039904Y-106019792D01*
X80087523Y-106067411D01*
X80135142Y-106162649D01*
X80135142Y-106305506D01*
X80087523Y-106400744D01*
X80039904Y-106448363D01*
X79944666Y-106495982D01*
X79563714Y-106495982D01*
X80516095Y-106067411D02*
X80563714Y-106019792D01*
X80658952Y-105972172D01*
X80897047Y-105972172D01*
X80992285Y-106019792D01*
X81039904Y-106067411D01*
X81087523Y-106162649D01*
X81087523Y-106257887D01*
X81039904Y-106400744D01*
X80468476Y-106972172D01*
X81087523Y-106972172D01*
X82039904Y-106972172D02*
X81468476Y-106972172D01*
X81754190Y-106972172D02*
X81754190Y-105972172D01*
X81658952Y-106115030D01*
X81563714Y-106210268D01*
X81468476Y-106257887D01*
X80135142Y-97144220D02*
X79801809Y-96668030D01*
X79563714Y-97144220D02*
X79563714Y-96144220D01*
X79944666Y-96144220D01*
X80039904Y-96191840D01*
X80087523Y-96239459D01*
X80135142Y-96334697D01*
X80135142Y-96477554D01*
X80087523Y-96572792D01*
X80039904Y-96620411D01*
X79944666Y-96668030D01*
X79563714Y-96668030D01*
X80516095Y-96239459D02*
X80563714Y-96191840D01*
X80658952Y-96144220D01*
X80897047Y-96144220D01*
X80992285Y-96191840D01*
X81039904Y-96239459D01*
X81087523Y-96334697D01*
X81087523Y-96429935D01*
X81039904Y-96572792D01*
X80468476Y-97144220D01*
X81087523Y-97144220D01*
X81706571Y-96144220D02*
X81801809Y-96144220D01*
X81897047Y-96191840D01*
X81944666Y-96239459D01*
X81992285Y-96334697D01*
X82039904Y-96525173D01*
X82039904Y-96763268D01*
X81992285Y-96953744D01*
X81944666Y-97048982D01*
X81897047Y-97096601D01*
X81801809Y-97144220D01*
X81706571Y-97144220D01*
X81611333Y-97096601D01*
X81563714Y-97048982D01*
X81516095Y-96953744D01*
X81468476Y-96763268D01*
X81468476Y-96525173D01*
X81516095Y-96334697D01*
X81563714Y-96239459D01*
X81611333Y-96191840D01*
X81706571Y-96144220D01*
X80135142Y-108610170D02*
X79801809Y-108133980D01*
X79563714Y-108610170D02*
X79563714Y-107610170D01*
X79944666Y-107610170D01*
X80039904Y-107657790D01*
X80087523Y-107705409D01*
X80135142Y-107800647D01*
X80135142Y-107943504D01*
X80087523Y-108038742D01*
X80039904Y-108086361D01*
X79944666Y-108133980D01*
X79563714Y-108133980D01*
X81087523Y-108610170D02*
X80516095Y-108610170D01*
X80801809Y-108610170D02*
X80801809Y-107610170D01*
X80706571Y-107753028D01*
X80611333Y-107848266D01*
X80516095Y-107895885D01*
X81563714Y-108610170D02*
X81754190Y-108610170D01*
X81849428Y-108562551D01*
X81897047Y-108514932D01*
X81992285Y-108372075D01*
X82039904Y-108181599D01*
X82039904Y-107800647D01*
X81992285Y-107705409D01*
X81944666Y-107657790D01*
X81849428Y-107610170D01*
X81658952Y-107610170D01*
X81563714Y-107657790D01*
X81516095Y-107705409D01*
X81468476Y-107800647D01*
X81468476Y-108038742D01*
X81516095Y-108133980D01*
X81563714Y-108181599D01*
X81658952Y-108229218D01*
X81849428Y-108229218D01*
X81944666Y-108181599D01*
X81992285Y-108133980D01*
X82039904Y-108038742D01*
X99085142Y-95589380D02*
X98751809Y-95113190D01*
X98513714Y-95589380D02*
X98513714Y-94589380D01*
X98894666Y-94589380D01*
X98989904Y-94637000D01*
X99037523Y-94684619D01*
X99085142Y-94779857D01*
X99085142Y-94922714D01*
X99037523Y-95017952D01*
X98989904Y-95065571D01*
X98894666Y-95113190D01*
X98513714Y-95113190D01*
X100037523Y-95589380D02*
X99466095Y-95589380D01*
X99751809Y-95589380D02*
X99751809Y-94589380D01*
X99656571Y-94732238D01*
X99561333Y-94827476D01*
X99466095Y-94875095D01*
X100608952Y-95017952D02*
X100513714Y-94970333D01*
X100466095Y-94922714D01*
X100418476Y-94827476D01*
X100418476Y-94779857D01*
X100466095Y-94684619D01*
X100513714Y-94637000D01*
X100608952Y-94589380D01*
X100799428Y-94589380D01*
X100894666Y-94637000D01*
X100942285Y-94684619D01*
X100989904Y-94779857D01*
X100989904Y-94827476D01*
X100942285Y-94922714D01*
X100894666Y-94970333D01*
X100799428Y-95017952D01*
X100608952Y-95017952D01*
X100513714Y-95065571D01*
X100466095Y-95113190D01*
X100418476Y-95208428D01*
X100418476Y-95398904D01*
X100466095Y-95494142D01*
X100513714Y-95541761D01*
X100608952Y-95589380D01*
X100799428Y-95589380D01*
X100894666Y-95541761D01*
X100942285Y-95494142D01*
X100989904Y-95398904D01*
X100989904Y-95208428D01*
X100942285Y-95113190D01*
X100894666Y-95065571D01*
X100799428Y-95017952D01*
X99185142Y-107781380D02*
X98851809Y-107305190D01*
X98613714Y-107781380D02*
X98613714Y-106781380D01*
X98994666Y-106781380D01*
X99089904Y-106829000D01*
X99137523Y-106876619D01*
X99185142Y-106971857D01*
X99185142Y-107114714D01*
X99137523Y-107209952D01*
X99089904Y-107257571D01*
X98994666Y-107305190D01*
X98613714Y-107305190D01*
X100137523Y-107781380D02*
X99566095Y-107781380D01*
X99851809Y-107781380D02*
X99851809Y-106781380D01*
X99756571Y-106924238D01*
X99661333Y-107019476D01*
X99566095Y-107067095D01*
X100470857Y-106781380D02*
X101137523Y-106781380D01*
X100708952Y-107781380D01*
X80135142Y-75850324D02*
X79801809Y-75374134D01*
X79563714Y-75850324D02*
X79563714Y-74850324D01*
X79944666Y-74850324D01*
X80039904Y-74897944D01*
X80087523Y-74945563D01*
X80135142Y-75040801D01*
X80135142Y-75183658D01*
X80087523Y-75278896D01*
X80039904Y-75326515D01*
X79944666Y-75374134D01*
X79563714Y-75374134D01*
X81087523Y-75850324D02*
X80516095Y-75850324D01*
X80801809Y-75850324D02*
X80801809Y-74850324D01*
X80706571Y-74993182D01*
X80611333Y-75088420D01*
X80516095Y-75136039D01*
X81944666Y-74850324D02*
X81754190Y-74850324D01*
X81658952Y-74897944D01*
X81611333Y-74945563D01*
X81516095Y-75088420D01*
X81468476Y-75278896D01*
X81468476Y-75659848D01*
X81516095Y-75755086D01*
X81563714Y-75802705D01*
X81658952Y-75850324D01*
X81849428Y-75850324D01*
X81944666Y-75802705D01*
X81992285Y-75755086D01*
X82039904Y-75659848D01*
X82039904Y-75421753D01*
X81992285Y-75326515D01*
X81944666Y-75278896D01*
X81849428Y-75231277D01*
X81658952Y-75231277D01*
X81563714Y-75278896D01*
X81516095Y-75326515D01*
X81468476Y-75421753D01*
X80135142Y-77488316D02*
X79801809Y-77012126D01*
X79563714Y-77488316D02*
X79563714Y-76488316D01*
X79944666Y-76488316D01*
X80039904Y-76535936D01*
X80087523Y-76583555D01*
X80135142Y-76678793D01*
X80135142Y-76821650D01*
X80087523Y-76916888D01*
X80039904Y-76964507D01*
X79944666Y-77012126D01*
X79563714Y-77012126D01*
X81087523Y-77488316D02*
X80516095Y-77488316D01*
X80801809Y-77488316D02*
X80801809Y-76488316D01*
X80706571Y-76631174D01*
X80611333Y-76726412D01*
X80516095Y-76774031D01*
X81992285Y-76488316D02*
X81516095Y-76488316D01*
X81468476Y-76964507D01*
X81516095Y-76916888D01*
X81611333Y-76869269D01*
X81849428Y-76869269D01*
X81944666Y-76916888D01*
X81992285Y-76964507D01*
X82039904Y-77059745D01*
X82039904Y-77297840D01*
X81992285Y-77393078D01*
X81944666Y-77440697D01*
X81849428Y-77488316D01*
X81611333Y-77488316D01*
X81516095Y-77440697D01*
X81468476Y-77393078D01*
X80135142Y-79126308D02*
X79801809Y-78650118D01*
X79563714Y-79126308D02*
X79563714Y-78126308D01*
X79944666Y-78126308D01*
X80039904Y-78173928D01*
X80087523Y-78221547D01*
X80135142Y-78316785D01*
X80135142Y-78459642D01*
X80087523Y-78554880D01*
X80039904Y-78602499D01*
X79944666Y-78650118D01*
X79563714Y-78650118D01*
X81087523Y-79126308D02*
X80516095Y-79126308D01*
X80801809Y-79126308D02*
X80801809Y-78126308D01*
X80706571Y-78269166D01*
X80611333Y-78364404D01*
X80516095Y-78412023D01*
X81944666Y-78459642D02*
X81944666Y-79126308D01*
X81706571Y-78078689D02*
X81468476Y-78792975D01*
X82087523Y-78792975D01*
X80135142Y-80764300D02*
X79801809Y-80288110D01*
X79563714Y-80764300D02*
X79563714Y-79764300D01*
X79944666Y-79764300D01*
X80039904Y-79811920D01*
X80087523Y-79859539D01*
X80135142Y-79954777D01*
X80135142Y-80097634D01*
X80087523Y-80192872D01*
X80039904Y-80240491D01*
X79944666Y-80288110D01*
X79563714Y-80288110D01*
X81087523Y-80764300D02*
X80516095Y-80764300D01*
X80801809Y-80764300D02*
X80801809Y-79764300D01*
X80706571Y-79907158D01*
X80611333Y-80002396D01*
X80516095Y-80050015D01*
X81420857Y-79764300D02*
X82039904Y-79764300D01*
X81706571Y-80145253D01*
X81849428Y-80145253D01*
X81944666Y-80192872D01*
X81992285Y-80240491D01*
X82039904Y-80335729D01*
X82039904Y-80573824D01*
X81992285Y-80669062D01*
X81944666Y-80716681D01*
X81849428Y-80764300D01*
X81563714Y-80764300D01*
X81468476Y-80716681D01*
X81420857Y-80669062D01*
X80135142Y-82402292D02*
X79801809Y-81926102D01*
X79563714Y-82402292D02*
X79563714Y-81402292D01*
X79944666Y-81402292D01*
X80039904Y-81449912D01*
X80087523Y-81497531D01*
X80135142Y-81592769D01*
X80135142Y-81735626D01*
X80087523Y-81830864D01*
X80039904Y-81878483D01*
X79944666Y-81926102D01*
X79563714Y-81926102D01*
X81087523Y-82402292D02*
X80516095Y-82402292D01*
X80801809Y-82402292D02*
X80801809Y-81402292D01*
X80706571Y-81545150D01*
X80611333Y-81640388D01*
X80516095Y-81688007D01*
X81468476Y-81497531D02*
X81516095Y-81449912D01*
X81611333Y-81402292D01*
X81849428Y-81402292D01*
X81944666Y-81449912D01*
X81992285Y-81497531D01*
X82039904Y-81592769D01*
X82039904Y-81688007D01*
X81992285Y-81830864D01*
X81420857Y-82402292D01*
X82039904Y-82402292D01*
X80135142Y-84040284D02*
X79801809Y-83564094D01*
X79563714Y-84040284D02*
X79563714Y-83040284D01*
X79944666Y-83040284D01*
X80039904Y-83087904D01*
X80087523Y-83135523D01*
X80135142Y-83230761D01*
X80135142Y-83373618D01*
X80087523Y-83468856D01*
X80039904Y-83516475D01*
X79944666Y-83564094D01*
X79563714Y-83564094D01*
X81087523Y-84040284D02*
X80516095Y-84040284D01*
X80801809Y-84040284D02*
X80801809Y-83040284D01*
X80706571Y-83183142D01*
X80611333Y-83278380D01*
X80516095Y-83325999D01*
X82039904Y-84040284D02*
X81468476Y-84040284D01*
X81754190Y-84040284D02*
X81754190Y-83040284D01*
X81658952Y-83183142D01*
X81563714Y-83278380D01*
X81468476Y-83325999D01*
X80135142Y-85678276D02*
X79801809Y-85202086D01*
X79563714Y-85678276D02*
X79563714Y-84678276D01*
X79944666Y-84678276D01*
X80039904Y-84725896D01*
X80087523Y-84773515D01*
X80135142Y-84868753D01*
X80135142Y-85011610D01*
X80087523Y-85106848D01*
X80039904Y-85154467D01*
X79944666Y-85202086D01*
X79563714Y-85202086D01*
X81087523Y-85678276D02*
X80516095Y-85678276D01*
X80801809Y-85678276D02*
X80801809Y-84678276D01*
X80706571Y-84821134D01*
X80611333Y-84916372D01*
X80516095Y-84963991D01*
X81706571Y-84678276D02*
X81801809Y-84678276D01*
X81897047Y-84725896D01*
X81944666Y-84773515D01*
X81992285Y-84868753D01*
X82039904Y-85059229D01*
X82039904Y-85297324D01*
X81992285Y-85487800D01*
X81944666Y-85583038D01*
X81897047Y-85630657D01*
X81801809Y-85678276D01*
X81706571Y-85678276D01*
X81611333Y-85630657D01*
X81563714Y-85583038D01*
X81516095Y-85487800D01*
X81468476Y-85297324D01*
X81468476Y-85059229D01*
X81516095Y-84868753D01*
X81563714Y-84773515D01*
X81611333Y-84725896D01*
X81706571Y-84678276D01*
X99202333Y-84667380D02*
X98869000Y-84191190D01*
X98630904Y-84667380D02*
X98630904Y-83667380D01*
X99011857Y-83667380D01*
X99107095Y-83715000D01*
X99154714Y-83762619D01*
X99202333Y-83857857D01*
X99202333Y-84000714D01*
X99154714Y-84095952D01*
X99107095Y-84143571D01*
X99011857Y-84191190D01*
X98630904Y-84191190D01*
X99678523Y-84667380D02*
X99869000Y-84667380D01*
X99964238Y-84619761D01*
X100011857Y-84572142D01*
X100107095Y-84429285D01*
X100154714Y-84238809D01*
X100154714Y-83857857D01*
X100107095Y-83762619D01*
X100059476Y-83715000D01*
X99964238Y-83667380D01*
X99773761Y-83667380D01*
X99678523Y-83715000D01*
X99630904Y-83762619D01*
X99583285Y-83857857D01*
X99583285Y-84095952D01*
X99630904Y-84191190D01*
X99678523Y-84238809D01*
X99773761Y-84286428D01*
X99964238Y-84286428D01*
X100059476Y-84238809D01*
X100107095Y-84191190D01*
X100154714Y-84095952D01*
X80611333Y-64384380D02*
X80278000Y-63908190D01*
X80039904Y-64384380D02*
X80039904Y-63384380D01*
X80420857Y-63384380D01*
X80516095Y-63432000D01*
X80563714Y-63479619D01*
X80611333Y-63574857D01*
X80611333Y-63717714D01*
X80563714Y-63812952D01*
X80516095Y-63860571D01*
X80420857Y-63908190D01*
X80039904Y-63908190D01*
X81182761Y-63812952D02*
X81087523Y-63765333D01*
X81039904Y-63717714D01*
X80992285Y-63622476D01*
X80992285Y-63574857D01*
X81039904Y-63479619D01*
X81087523Y-63432000D01*
X81182761Y-63384380D01*
X81373238Y-63384380D01*
X81468476Y-63432000D01*
X81516095Y-63479619D01*
X81563714Y-63574857D01*
X81563714Y-63622476D01*
X81516095Y-63717714D01*
X81468476Y-63765333D01*
X81373238Y-63812952D01*
X81182761Y-63812952D01*
X81087523Y-63860571D01*
X81039904Y-63908190D01*
X80992285Y-64003428D01*
X80992285Y-64193904D01*
X81039904Y-64289142D01*
X81087523Y-64336761D01*
X81182761Y-64384380D01*
X81373238Y-64384380D01*
X81468476Y-64336761D01*
X81516095Y-64289142D01*
X81563714Y-64193904D01*
X81563714Y-64003428D01*
X81516095Y-63908190D01*
X81468476Y-63860571D01*
X81373238Y-63812952D01*
X80611333Y-66022372D02*
X80278000Y-65546182D01*
X80039904Y-66022372D02*
X80039904Y-65022372D01*
X80420857Y-65022372D01*
X80516095Y-65069992D01*
X80563714Y-65117611D01*
X80611333Y-65212849D01*
X80611333Y-65355706D01*
X80563714Y-65450944D01*
X80516095Y-65498563D01*
X80420857Y-65546182D01*
X80039904Y-65546182D01*
X80944666Y-65022372D02*
X81611333Y-65022372D01*
X81182761Y-66022372D01*
X80611333Y-67660364D02*
X80278000Y-67184174D01*
X80039904Y-67660364D02*
X80039904Y-66660364D01*
X80420857Y-66660364D01*
X80516095Y-66707984D01*
X80563714Y-66755603D01*
X80611333Y-66850841D01*
X80611333Y-66993698D01*
X80563714Y-67088936D01*
X80516095Y-67136555D01*
X80420857Y-67184174D01*
X80039904Y-67184174D01*
X81468476Y-66660364D02*
X81278000Y-66660364D01*
X81182761Y-66707984D01*
X81135142Y-66755603D01*
X81039904Y-66898460D01*
X80992285Y-67088936D01*
X80992285Y-67469888D01*
X81039904Y-67565126D01*
X81087523Y-67612745D01*
X81182761Y-67660364D01*
X81373238Y-67660364D01*
X81468476Y-67612745D01*
X81516095Y-67565126D01*
X81563714Y-67469888D01*
X81563714Y-67231793D01*
X81516095Y-67136555D01*
X81468476Y-67088936D01*
X81373238Y-67041317D01*
X81182761Y-67041317D01*
X81087523Y-67088936D01*
X81039904Y-67136555D01*
X80992285Y-67231793D01*
X80611333Y-69298356D02*
X80278000Y-68822166D01*
X80039904Y-69298356D02*
X80039904Y-68298356D01*
X80420857Y-68298356D01*
X80516095Y-68345976D01*
X80563714Y-68393595D01*
X80611333Y-68488833D01*
X80611333Y-68631690D01*
X80563714Y-68726928D01*
X80516095Y-68774547D01*
X80420857Y-68822166D01*
X80039904Y-68822166D01*
X81516095Y-68298356D02*
X81039904Y-68298356D01*
X80992285Y-68774547D01*
X81039904Y-68726928D01*
X81135142Y-68679309D01*
X81373238Y-68679309D01*
X81468476Y-68726928D01*
X81516095Y-68774547D01*
X81563714Y-68869785D01*
X81563714Y-69107880D01*
X81516095Y-69203118D01*
X81468476Y-69250737D01*
X81373238Y-69298356D01*
X81135142Y-69298356D01*
X81039904Y-69250737D01*
X80992285Y-69203118D01*
X80611333Y-70936348D02*
X80278000Y-70460158D01*
X80039904Y-70936348D02*
X80039904Y-69936348D01*
X80420857Y-69936348D01*
X80516095Y-69983968D01*
X80563714Y-70031587D01*
X80611333Y-70126825D01*
X80611333Y-70269682D01*
X80563714Y-70364920D01*
X80516095Y-70412539D01*
X80420857Y-70460158D01*
X80039904Y-70460158D01*
X81468476Y-70269682D02*
X81468476Y-70936348D01*
X81230380Y-69888729D02*
X80992285Y-70603015D01*
X81611333Y-70603015D01*
X80611333Y-72574340D02*
X80278000Y-72098150D01*
X80039904Y-72574340D02*
X80039904Y-71574340D01*
X80420857Y-71574340D01*
X80516095Y-71621960D01*
X80563714Y-71669579D01*
X80611333Y-71764817D01*
X80611333Y-71907674D01*
X80563714Y-72002912D01*
X80516095Y-72050531D01*
X80420857Y-72098150D01*
X80039904Y-72098150D01*
X80944666Y-71574340D02*
X81563714Y-71574340D01*
X81230380Y-71955293D01*
X81373238Y-71955293D01*
X81468476Y-72002912D01*
X81516095Y-72050531D01*
X81563714Y-72145769D01*
X81563714Y-72383864D01*
X81516095Y-72479102D01*
X81468476Y-72526721D01*
X81373238Y-72574340D01*
X81087523Y-72574340D01*
X80992285Y-72526721D01*
X80944666Y-72479102D01*
X80611333Y-74212332D02*
X80278000Y-73736142D01*
X80039904Y-74212332D02*
X80039904Y-73212332D01*
X80420857Y-73212332D01*
X80516095Y-73259952D01*
X80563714Y-73307571D01*
X80611333Y-73402809D01*
X80611333Y-73545666D01*
X80563714Y-73640904D01*
X80516095Y-73688523D01*
X80420857Y-73736142D01*
X80039904Y-73736142D01*
X80992285Y-73307571D02*
X81039904Y-73259952D01*
X81135142Y-73212332D01*
X81373238Y-73212332D01*
X81468476Y-73259952D01*
X81516095Y-73307571D01*
X81563714Y-73402809D01*
X81563714Y-73498047D01*
X81516095Y-73640904D01*
X80944666Y-74212332D01*
X81563714Y-74212332D01*
X99618333Y-74507380D02*
X99285000Y-74031190D01*
X99046904Y-74507380D02*
X99046904Y-73507380D01*
X99427857Y-73507380D01*
X99523095Y-73555000D01*
X99570714Y-73602619D01*
X99618333Y-73697857D01*
X99618333Y-73840714D01*
X99570714Y-73935952D01*
X99523095Y-73983571D01*
X99427857Y-74031190D01*
X99046904Y-74031190D01*
X100570714Y-74507380D02*
X99999285Y-74507380D01*
X100285000Y-74507380D02*
X100285000Y-73507380D01*
X100189761Y-73650238D01*
X100094523Y-73745476D01*
X99999285Y-73793095D01*
X94586333Y-107305142D02*
X94538714Y-107352761D01*
X94395857Y-107400380D01*
X94300619Y-107400380D01*
X94157761Y-107352761D01*
X94062523Y-107257523D01*
X94014904Y-107162285D01*
X93967285Y-106971809D01*
X93967285Y-106828952D01*
X94014904Y-106638476D01*
X94062523Y-106543238D01*
X94157761Y-106448000D01*
X94300619Y-106400380D01*
X94395857Y-106400380D01*
X94538714Y-106448000D01*
X94586333Y-106495619D01*
X95443476Y-106733714D02*
X95443476Y-107400380D01*
X95205380Y-106352761D02*
X94967285Y-107067047D01*
X95586333Y-107067047D01*
X93776333Y-95367142D02*
X93728714Y-95414761D01*
X93585857Y-95462380D01*
X93490619Y-95462380D01*
X93347761Y-95414761D01*
X93252523Y-95319523D01*
X93204904Y-95224285D01*
X93157285Y-95033809D01*
X93157285Y-94890952D01*
X93204904Y-94700476D01*
X93252523Y-94605238D01*
X93347761Y-94510000D01*
X93490619Y-94462380D01*
X93585857Y-94462380D01*
X93728714Y-94510000D01*
X93776333Y-94557619D01*
X94109666Y-94462380D02*
X94728714Y-94462380D01*
X94395380Y-94843333D01*
X94538238Y-94843333D01*
X94633476Y-94890952D01*
X94681095Y-94938571D01*
X94728714Y-95033809D01*
X94728714Y-95271904D01*
X94681095Y-95367142D01*
X94633476Y-95414761D01*
X94538238Y-95462380D01*
X94252523Y-95462380D01*
X94157285Y-95414761D01*
X94109666Y-95367142D01*
X94395753Y-84826142D02*
X94348134Y-84873761D01*
X94205277Y-84921380D01*
X94110039Y-84921380D01*
X93967181Y-84873761D01*
X93871943Y-84778523D01*
X93824324Y-84683285D01*
X93776705Y-84492809D01*
X93776705Y-84349952D01*
X93824324Y-84159476D01*
X93871943Y-84064238D01*
X93967181Y-83969000D01*
X94110039Y-83921380D01*
X94205277Y-83921380D01*
X94348134Y-83969000D01*
X94395753Y-84016619D01*
X94776705Y-84016619D02*
X94824324Y-83969000D01*
X94919562Y-83921380D01*
X95157658Y-83921380D01*
X95252896Y-83969000D01*
X95300515Y-84016619D01*
X95348134Y-84111857D01*
X95348134Y-84207095D01*
X95300515Y-84349952D01*
X94729086Y-84921380D01*
X95348134Y-84921380D01*
X94411333Y-74539142D02*
X94363714Y-74586761D01*
X94220857Y-74634380D01*
X94125619Y-74634380D01*
X93982761Y-74586761D01*
X93887523Y-74491523D01*
X93839904Y-74396285D01*
X93792285Y-74205809D01*
X93792285Y-74062952D01*
X93839904Y-73872476D01*
X93887523Y-73777238D01*
X93982761Y-73682000D01*
X94125619Y-73634380D01*
X94220857Y-73634380D01*
X94363714Y-73682000D01*
X94411333Y-73729619D01*
X95363714Y-74634380D02*
X94792285Y-74634380D01*
X95078000Y-74634380D02*
X95078000Y-73634380D01*
X94982761Y-73777238D01*
X94887523Y-73872476D01*
X94792285Y-73920095D01*
X122777095Y-99734619D02*
X122777095Y-98925095D01*
X122729476Y-98829857D01*
X122681857Y-98782238D01*
X122586619Y-98734619D01*
X122396142Y-98734619D01*
X122300904Y-98782238D01*
X122253285Y-98829857D01*
X122205666Y-98925095D01*
X122205666Y-99734619D01*
X121824714Y-99734619D02*
X121205666Y-99734619D01*
X121539000Y-99353666D01*
X121396142Y-99353666D01*
X121300904Y-99306047D01*
X121253285Y-99258428D01*
X121205666Y-99163190D01*
X121205666Y-98925095D01*
X121253285Y-98829857D01*
X121300904Y-98782238D01*
X121396142Y-98734619D01*
X121681857Y-98734619D01*
X121777095Y-98782238D01*
X121824714Y-98829857D01*
X120586619Y-99734619D02*
X120491380Y-99734619D01*
X120396142Y-99687000D01*
X120348523Y-99639380D01*
X120300904Y-99544142D01*
X120253285Y-99353666D01*
X120253285Y-99115571D01*
X120300904Y-98925095D01*
X120348523Y-98829857D01*
X120396142Y-98782238D01*
X120491380Y-98734619D01*
X120586619Y-98734619D01*
X120681857Y-98782238D01*
X120729476Y-98829857D01*
X120777095Y-98925095D01*
X120824714Y-99115571D01*
X120824714Y-99353666D01*
X120777095Y-99544142D01*
X120729476Y-99639380D01*
X120681857Y-99687000D01*
X120586619Y-99734619D01*
X109505904Y-86066380D02*
X109505904Y-86875904D01*
X109553523Y-86971142D01*
X109601142Y-87018761D01*
X109696380Y-87066380D01*
X109886857Y-87066380D01*
X109982095Y-87018761D01*
X110029714Y-86971142D01*
X110077333Y-86875904D01*
X110077333Y-86066380D01*
X110458285Y-86066380D02*
X111077333Y-86066380D01*
X110744000Y-86447333D01*
X110886857Y-86447333D01*
X110982095Y-86494952D01*
X111029714Y-86542571D01*
X111077333Y-86637809D01*
X111077333Y-86875904D01*
X111029714Y-86971142D01*
X110982095Y-87018761D01*
X110886857Y-87066380D01*
X110601142Y-87066380D01*
X110505904Y-87018761D01*
X110458285Y-86971142D01*
X112029714Y-87066380D02*
X111458285Y-87066380D01*
X111744000Y-87066380D02*
X111744000Y-86066380D01*
X111648761Y-86209238D01*
X111553523Y-86304476D01*
X111458285Y-86352095D01*
X77136666Y-74509380D02*
X77136666Y-75223666D01*
X77089047Y-75366523D01*
X76993809Y-75461761D01*
X76850952Y-75509380D01*
X76755714Y-75509380D01*
X78136666Y-75509380D02*
X77565238Y-75509380D01*
X77850952Y-75509380D02*
X77850952Y-74509380D01*
X77755714Y-74652238D01*
X77660476Y-74747476D01*
X77565238Y-74795095D01*
X127889095Y-70445380D02*
X127889095Y-71254904D01*
X127936714Y-71350142D01*
X127984333Y-71397761D01*
X128079571Y-71445380D01*
X128270047Y-71445380D01*
X128365285Y-71397761D01*
X128412904Y-71350142D01*
X128460523Y-71254904D01*
X128460523Y-70445380D01*
X129365285Y-70778714D02*
X129365285Y-71445380D01*
X129127190Y-70397761D02*
X128889095Y-71112047D01*
X129508142Y-71112047D01*
X139287095Y-89320619D02*
X139287095Y-88511095D01*
X139239476Y-88415857D01*
X139191857Y-88368238D01*
X139096619Y-88320619D01*
X138906142Y-88320619D01*
X138810904Y-88368238D01*
X138763285Y-88415857D01*
X138715666Y-88511095D01*
X138715666Y-89320619D01*
X138334714Y-89320619D02*
X137715666Y-89320619D01*
X138049000Y-88939666D01*
X137906142Y-88939666D01*
X137810904Y-88892047D01*
X137763285Y-88844428D01*
X137715666Y-88749190D01*
X137715666Y-88511095D01*
X137763285Y-88415857D01*
X137810904Y-88368238D01*
X137906142Y-88320619D01*
X138191857Y-88320619D01*
X138287095Y-88368238D01*
X138334714Y-88415857D01*
X136858523Y-89320619D02*
X137049000Y-89320619D01*
X137144238Y-89273000D01*
X137191857Y-89225380D01*
X137287095Y-89082523D01*
X137334714Y-88892047D01*
X137334714Y-88511095D01*
X137287095Y-88415857D01*
X137239476Y-88368238D01*
X137144238Y-88320619D01*
X136953761Y-88320619D01*
X136858523Y-88368238D01*
X136810904Y-88415857D01*
X136763285Y-88511095D01*
X136763285Y-88749190D01*
X136810904Y-88844428D01*
X136858523Y-88892047D01*
X136953761Y-88939666D01*
X137144238Y-88939666D01*
X137239476Y-88892047D01*
X137287095Y-88844428D01*
X137334714Y-88749190D01*
X149544666Y-112384380D02*
X149211333Y-111908190D01*
X148973238Y-112384380D02*
X148973238Y-111384380D01*
X149354190Y-111384380D01*
X149449428Y-111432000D01*
X149497047Y-111479619D01*
X149544666Y-111574857D01*
X149544666Y-111717714D01*
X149497047Y-111812952D01*
X149449428Y-111860571D01*
X149354190Y-111908190D01*
X148973238Y-111908190D01*
X149973238Y-111860571D02*
X150306571Y-111860571D01*
X150449428Y-112384380D02*
X149973238Y-112384380D01*
X149973238Y-111384380D01*
X150449428Y-111384380D01*
X151211333Y-111860571D02*
X150878000Y-111860571D01*
X150878000Y-112384380D02*
X150878000Y-111384380D01*
X151354190Y-111384380D01*
X151878000Y-111384380D02*
X151878000Y-111622476D01*
X151639904Y-111527238D02*
X151878000Y-111622476D01*
X152116095Y-111527238D01*
X151735142Y-111812952D02*
X151878000Y-111622476D01*
X152020857Y-111812952D01*
X152639904Y-111384380D02*
X152639904Y-111622476D01*
X152401809Y-111527238D02*
X152639904Y-111622476D01*
X152878000Y-111527238D01*
X152497047Y-111812952D02*
X152639904Y-111622476D01*
X152782761Y-111812952D01*
X122777095Y-104560619D02*
X122777095Y-103751095D01*
X122729476Y-103655857D01*
X122681857Y-103608238D01*
X122586619Y-103560619D01*
X122396142Y-103560619D01*
X122300904Y-103608238D01*
X122253285Y-103655857D01*
X122205666Y-103751095D01*
X122205666Y-104560619D01*
X121777095Y-104465380D02*
X121729476Y-104513000D01*
X121634238Y-104560619D01*
X121396142Y-104560619D01*
X121300904Y-104513000D01*
X121253285Y-104465380D01*
X121205666Y-104370142D01*
X121205666Y-104274904D01*
X121253285Y-104132047D01*
X121824714Y-103560619D01*
X121205666Y-103560619D01*
X120824714Y-104465380D02*
X120777095Y-104513000D01*
X120681857Y-104560619D01*
X120443761Y-104560619D01*
X120348523Y-104513000D01*
X120300904Y-104465380D01*
X120253285Y-104370142D01*
X120253285Y-104274904D01*
X120300904Y-104132047D01*
X120872333Y-103560619D01*
X120253285Y-103560619D01*
X95916904Y-100685380D02*
X95916904Y-101494904D01*
X95964523Y-101590142D01*
X96012142Y-101637761D01*
X96107380Y-101685380D01*
X96297857Y-101685380D01*
X96393095Y-101637761D01*
X96440714Y-101590142D01*
X96488333Y-101494904D01*
X96488333Y-100685380D01*
X96916904Y-100780619D02*
X96964523Y-100733000D01*
X97059761Y-100685380D01*
X97297857Y-100685380D01*
X97393095Y-100733000D01*
X97440714Y-100780619D01*
X97488333Y-100875857D01*
X97488333Y-100971095D01*
X97440714Y-101113952D01*
X96869285Y-101685380D01*
X97488333Y-101685380D01*
X98107380Y-100685380D02*
X98202619Y-100685380D01*
X98297857Y-100733000D01*
X98345476Y-100780619D01*
X98393095Y-100875857D01*
X98440714Y-101066333D01*
X98440714Y-101304428D01*
X98393095Y-101494904D01*
X98345476Y-101590142D01*
X98297857Y-101637761D01*
X98202619Y-101685380D01*
X98107380Y-101685380D01*
X98012142Y-101637761D01*
X97964523Y-101590142D01*
X97916904Y-101494904D01*
X97869285Y-101304428D01*
X97869285Y-101066333D01*
X97916904Y-100875857D01*
X97964523Y-100780619D01*
X98012142Y-100733000D01*
X98107380Y-100685380D01*
X140588904Y-68619619D02*
X140588904Y-67810095D01*
X140541285Y-67714857D01*
X140493666Y-67667238D01*
X140398428Y-67619619D01*
X140207952Y-67619619D01*
X140112714Y-67667238D01*
X140065095Y-67714857D01*
X140017476Y-67810095D01*
X140017476Y-68619619D01*
X139493666Y-67619619D02*
X139303190Y-67619619D01*
X139207952Y-67667238D01*
X139160333Y-67714857D01*
X139065095Y-67857714D01*
X139017476Y-68048190D01*
X139017476Y-68429142D01*
X139065095Y-68524380D01*
X139112714Y-68572000D01*
X139207952Y-68619619D01*
X139398428Y-68619619D01*
X139493666Y-68572000D01*
X139541285Y-68524380D01*
X139588904Y-68429142D01*
X139588904Y-68191047D01*
X139541285Y-68095809D01*
X139493666Y-68048190D01*
X139398428Y-68000571D01*
X139207952Y-68000571D01*
X139112714Y-68048190D01*
X139065095Y-68095809D01*
X139017476Y-68191047D01*
X122777095Y-89447619D02*
X122777095Y-88638095D01*
X122729476Y-88542857D01*
X122681857Y-88495238D01*
X122586619Y-88447619D01*
X122396142Y-88447619D01*
X122300904Y-88495238D01*
X122253285Y-88542857D01*
X122205666Y-88638095D01*
X122205666Y-89447619D01*
X121824714Y-89447619D02*
X121205666Y-89447619D01*
X121539000Y-89066666D01*
X121396142Y-89066666D01*
X121300904Y-89019047D01*
X121253285Y-88971428D01*
X121205666Y-88876190D01*
X121205666Y-88638095D01*
X121253285Y-88542857D01*
X121300904Y-88495238D01*
X121396142Y-88447619D01*
X121681857Y-88447619D01*
X121777095Y-88495238D01*
X121824714Y-88542857D01*
X120824714Y-89352380D02*
X120777095Y-89400000D01*
X120681857Y-89447619D01*
X120443761Y-89447619D01*
X120348523Y-89400000D01*
X120300904Y-89352380D01*
X120253285Y-89257142D01*
X120253285Y-89161904D01*
X120300904Y-89019047D01*
X120872333Y-88447619D01*
X120253285Y-88447619D01*
X122777095Y-94654619D02*
X122777095Y-93845095D01*
X122729476Y-93749857D01*
X122681857Y-93702238D01*
X122586619Y-93654619D01*
X122396142Y-93654619D01*
X122300904Y-93702238D01*
X122253285Y-93749857D01*
X122205666Y-93845095D01*
X122205666Y-94654619D01*
X121777095Y-94559380D02*
X121729476Y-94607000D01*
X121634238Y-94654619D01*
X121396142Y-94654619D01*
X121300904Y-94607000D01*
X121253285Y-94559380D01*
X121205666Y-94464142D01*
X121205666Y-94368904D01*
X121253285Y-94226047D01*
X121824714Y-93654619D01*
X121205666Y-93654619D01*
X120348523Y-94321285D02*
X120348523Y-93654619D01*
X120586619Y-94702238D02*
X120824714Y-93987952D01*
X120205666Y-93987952D01*
X122808904Y-73826619D02*
X122808904Y-73017095D01*
X122761285Y-72921857D01*
X122713666Y-72874238D01*
X122618428Y-72826619D01*
X122427952Y-72826619D01*
X122332714Y-72874238D01*
X122285095Y-72921857D01*
X122237476Y-73017095D01*
X122237476Y-73826619D01*
X121856523Y-73826619D02*
X121237476Y-73826619D01*
X121570809Y-73445666D01*
X121427952Y-73445666D01*
X121332714Y-73398047D01*
X121285095Y-73350428D01*
X121237476Y-73255190D01*
X121237476Y-73017095D01*
X121285095Y-72921857D01*
X121332714Y-72874238D01*
X121427952Y-72826619D01*
X121713666Y-72826619D01*
X121808904Y-72874238D01*
X121856523Y-72921857D01*
X122681904Y-68619619D02*
X122681904Y-67810095D01*
X122634285Y-67714857D01*
X122586666Y-67667238D01*
X122491428Y-67619619D01*
X122300952Y-67619619D01*
X122205714Y-67667238D01*
X122158095Y-67714857D01*
X122110476Y-67810095D01*
X122110476Y-68619619D01*
X121729523Y-68619619D02*
X121062857Y-68619619D01*
X121491428Y-67619619D01*
X140715904Y-72937619D02*
X140715904Y-72128095D01*
X140668285Y-72032857D01*
X140620666Y-71985238D01*
X140525428Y-71937619D01*
X140334952Y-71937619D01*
X140239714Y-71985238D01*
X140192095Y-72032857D01*
X140144476Y-72128095D01*
X140144476Y-72937619D01*
X139192095Y-72937619D02*
X139668285Y-72937619D01*
X139715904Y-72461428D01*
X139668285Y-72509047D01*
X139573047Y-72556666D01*
X139334952Y-72556666D01*
X139239714Y-72509047D01*
X139192095Y-72461428D01*
X139144476Y-72366190D01*
X139144476Y-72128095D01*
X139192095Y-72032857D01*
X139239714Y-71985238D01*
X139334952Y-71937619D01*
X139573047Y-71937619D01*
X139668285Y-71985238D01*
X139715904Y-72032857D01*
X127793904Y-76541380D02*
X127793904Y-77350904D01*
X127841523Y-77446142D01*
X127889142Y-77493761D01*
X127984380Y-77541380D01*
X128174857Y-77541380D01*
X128270095Y-77493761D01*
X128317714Y-77446142D01*
X128365333Y-77350904D01*
X128365333Y-76541380D01*
X129365333Y-77541380D02*
X128793904Y-77541380D01*
X129079619Y-77541380D02*
X129079619Y-76541380D01*
X128984380Y-76684238D01*
X128889142Y-76779476D01*
X128793904Y-76827095D01*
X129698666Y-76541380D02*
X130365333Y-76541380D01*
X129936761Y-77541380D01*
X155194666Y-73184380D02*
X155194666Y-73898666D01*
X155147047Y-74041523D01*
X155051809Y-74136761D01*
X154908952Y-74184380D01*
X154813714Y-74184380D01*
X155623238Y-73279619D02*
X155670857Y-73232000D01*
X155766095Y-73184380D01*
X156004190Y-73184380D01*
X156099428Y-73232000D01*
X156147047Y-73279619D01*
X156194666Y-73374857D01*
X156194666Y-73470095D01*
X156147047Y-73612952D01*
X155575619Y-74184380D01*
X156194666Y-74184380D01*
X127793904Y-101560380D02*
X127793904Y-102369904D01*
X127841523Y-102465142D01*
X127889142Y-102512761D01*
X127984380Y-102560380D01*
X128174857Y-102560380D01*
X128270095Y-102512761D01*
X128317714Y-102465142D01*
X128365333Y-102369904D01*
X128365333Y-101560380D01*
X128793904Y-101655619D02*
X128841523Y-101608000D01*
X128936761Y-101560380D01*
X129174857Y-101560380D01*
X129270095Y-101608000D01*
X129317714Y-101655619D01*
X129365333Y-101750857D01*
X129365333Y-101846095D01*
X129317714Y-101988952D01*
X128746285Y-102560380D01*
X129365333Y-102560380D01*
X130270095Y-101560380D02*
X129793904Y-101560380D01*
X129746285Y-102036571D01*
X129793904Y-101988952D01*
X129889142Y-101941333D01*
X130127238Y-101941333D01*
X130222476Y-101988952D01*
X130270095Y-102036571D01*
X130317714Y-102131809D01*
X130317714Y-102369904D01*
X130270095Y-102465142D01*
X130222476Y-102512761D01*
X130127238Y-102560380D01*
X129889142Y-102560380D01*
X129793904Y-102512761D01*
X129746285Y-102465142D01*
X149194666Y-61634380D02*
X148861333Y-61158190D01*
X148623238Y-61634380D02*
X148623238Y-60634380D01*
X149004190Y-60634380D01*
X149099428Y-60682000D01*
X149147047Y-60729619D01*
X149194666Y-60824857D01*
X149194666Y-60967714D01*
X149147047Y-61062952D01*
X149099428Y-61110571D01*
X149004190Y-61158190D01*
X148623238Y-61158190D01*
X149623238Y-61110571D02*
X149956571Y-61110571D01*
X150099428Y-61634380D02*
X149623238Y-61634380D01*
X149623238Y-60634380D01*
X150099428Y-60634380D01*
X150861333Y-61110571D02*
X150528000Y-61110571D01*
X150528000Y-61634380D02*
X150528000Y-60634380D01*
X151004190Y-60634380D01*
X151528000Y-60634380D02*
X151528000Y-60872476D01*
X151289904Y-60777238D02*
X151528000Y-60872476D01*
X151766095Y-60777238D01*
X151385142Y-61062952D02*
X151528000Y-60872476D01*
X151670857Y-61062952D01*
X152289904Y-60634380D02*
X152289904Y-60872476D01*
X152051809Y-60777238D02*
X152289904Y-60872476D01*
X152528000Y-60777238D01*
X152147047Y-61062952D02*
X152289904Y-60872476D01*
X152432761Y-61062952D01*
X109632904Y-91400380D02*
X109632904Y-92209904D01*
X109680523Y-92305142D01*
X109728142Y-92352761D01*
X109823380Y-92400380D01*
X110013857Y-92400380D01*
X110109095Y-92352761D01*
X110156714Y-92305142D01*
X110204333Y-92209904D01*
X110204333Y-91400380D01*
X110632904Y-91495619D02*
X110680523Y-91448000D01*
X110775761Y-91400380D01*
X111013857Y-91400380D01*
X111109095Y-91448000D01*
X111156714Y-91495619D01*
X111204333Y-91590857D01*
X111204333Y-91686095D01*
X111156714Y-91828952D01*
X110585285Y-92400380D01*
X111204333Y-92400380D01*
X111537666Y-91400380D02*
X112156714Y-91400380D01*
X111823380Y-91781333D01*
X111966238Y-91781333D01*
X112061476Y-91828952D01*
X112109095Y-91876571D01*
X112156714Y-91971809D01*
X112156714Y-92209904D01*
X112109095Y-92305142D01*
X112061476Y-92352761D01*
X111966238Y-92400380D01*
X111680523Y-92400380D01*
X111585285Y-92352761D01*
X111537666Y-92305142D01*
X140430095Y-94654619D02*
X140430095Y-93845095D01*
X140382476Y-93749857D01*
X140334857Y-93702238D01*
X140239619Y-93654619D01*
X140049142Y-93654619D01*
X139953904Y-93702238D01*
X139906285Y-93749857D01*
X139858666Y-93845095D01*
X139858666Y-94654619D01*
X139430095Y-94559380D02*
X139382476Y-94607000D01*
X139287238Y-94654619D01*
X139049142Y-94654619D01*
X138953904Y-94607000D01*
X138906285Y-94559380D01*
X138858666Y-94464142D01*
X138858666Y-94368904D01*
X138906285Y-94226047D01*
X139477714Y-93654619D01*
X138858666Y-93654619D01*
X138287238Y-94226047D02*
X138382476Y-94273666D01*
X138430095Y-94321285D01*
X138477714Y-94416523D01*
X138477714Y-94464142D01*
X138430095Y-94559380D01*
X138382476Y-94607000D01*
X138287238Y-94654619D01*
X138096761Y-94654619D01*
X138001523Y-94607000D01*
X137953904Y-94559380D01*
X137906285Y-94464142D01*
X137906285Y-94416523D01*
X137953904Y-94321285D01*
X138001523Y-94273666D01*
X138096761Y-94226047D01*
X138287238Y-94226047D01*
X138382476Y-94178428D01*
X138430095Y-94130809D01*
X138477714Y-94035571D01*
X138477714Y-93845095D01*
X138430095Y-93749857D01*
X138382476Y-93702238D01*
X138287238Y-93654619D01*
X138096761Y-93654619D01*
X138001523Y-93702238D01*
X137953904Y-93749857D01*
X137906285Y-93845095D01*
X137906285Y-94035571D01*
X137953904Y-94130809D01*
X138001523Y-94178428D01*
X138096761Y-94226047D01*
X140430095Y-77763619D02*
X140430095Y-76954095D01*
X140382476Y-76858857D01*
X140334857Y-76811238D01*
X140239619Y-76763619D01*
X140049142Y-76763619D01*
X139953904Y-76811238D01*
X139906285Y-76858857D01*
X139858666Y-76954095D01*
X139858666Y-77763619D01*
X138858666Y-76763619D02*
X139430095Y-76763619D01*
X139144380Y-76763619D02*
X139144380Y-77763619D01*
X139239619Y-77620761D01*
X139334857Y-77525523D01*
X139430095Y-77477904D01*
X138287238Y-77335047D02*
X138382476Y-77382666D01*
X138430095Y-77430285D01*
X138477714Y-77525523D01*
X138477714Y-77573142D01*
X138430095Y-77668380D01*
X138382476Y-77716000D01*
X138287238Y-77763619D01*
X138096761Y-77763619D01*
X138001523Y-77716000D01*
X137953904Y-77668380D01*
X137906285Y-77573142D01*
X137906285Y-77525523D01*
X137953904Y-77430285D01*
X138001523Y-77382666D01*
X138096761Y-77335047D01*
X138287238Y-77335047D01*
X138382476Y-77287428D01*
X138430095Y-77239809D01*
X138477714Y-77144571D01*
X138477714Y-76954095D01*
X138430095Y-76858857D01*
X138382476Y-76811238D01*
X138287238Y-76763619D01*
X138096761Y-76763619D01*
X138001523Y-76811238D01*
X137953904Y-76858857D01*
X137906285Y-76954095D01*
X137906285Y-77144571D01*
X137953904Y-77239809D01*
X138001523Y-77287428D01*
X138096761Y-77335047D01*
X87794666Y-112434380D02*
X87461333Y-111958190D01*
X87223238Y-112434380D02*
X87223238Y-111434380D01*
X87604190Y-111434380D01*
X87699428Y-111482000D01*
X87747047Y-111529619D01*
X87794666Y-111624857D01*
X87794666Y-111767714D01*
X87747047Y-111862952D01*
X87699428Y-111910571D01*
X87604190Y-111958190D01*
X87223238Y-111958190D01*
X88223238Y-111910571D02*
X88556571Y-111910571D01*
X88699428Y-112434380D02*
X88223238Y-112434380D01*
X88223238Y-111434380D01*
X88699428Y-111434380D01*
X89461333Y-111910571D02*
X89128000Y-111910571D01*
X89128000Y-112434380D02*
X89128000Y-111434380D01*
X89604190Y-111434380D01*
X90128000Y-111434380D02*
X90128000Y-111672476D01*
X89889904Y-111577238D02*
X90128000Y-111672476D01*
X90366095Y-111577238D01*
X89985142Y-111862952D02*
X90128000Y-111672476D01*
X90270857Y-111862952D01*
X90889904Y-111434380D02*
X90889904Y-111672476D01*
X90651809Y-111577238D02*
X90889904Y-111672476D01*
X91128000Y-111577238D01*
X90747047Y-111862952D02*
X90889904Y-111672476D01*
X91032761Y-111862952D01*
X140684095Y-99480619D02*
X140684095Y-98671095D01*
X140636476Y-98575857D01*
X140588857Y-98528238D01*
X140493619Y-98480619D01*
X140303142Y-98480619D01*
X140207904Y-98528238D01*
X140160285Y-98575857D01*
X140112666Y-98671095D01*
X140112666Y-99480619D01*
X139731714Y-99480619D02*
X139112666Y-99480619D01*
X139446000Y-99099666D01*
X139303142Y-99099666D01*
X139207904Y-99052047D01*
X139160285Y-99004428D01*
X139112666Y-98909190D01*
X139112666Y-98671095D01*
X139160285Y-98575857D01*
X139207904Y-98528238D01*
X139303142Y-98480619D01*
X139588857Y-98480619D01*
X139684095Y-98528238D01*
X139731714Y-98575857D01*
X138255523Y-99147285D02*
X138255523Y-98480619D01*
X138493619Y-99528238D02*
X138731714Y-98813952D01*
X138112666Y-98813952D01*
X122777095Y-84113619D02*
X122777095Y-83304095D01*
X122729476Y-83208857D01*
X122681857Y-83161238D01*
X122586619Y-83113619D01*
X122396142Y-83113619D01*
X122300904Y-83161238D01*
X122253285Y-83208857D01*
X122205666Y-83304095D01*
X122205666Y-84113619D01*
X121205666Y-83113619D02*
X121777095Y-83113619D01*
X121491380Y-83113619D02*
X121491380Y-84113619D01*
X121586619Y-83970761D01*
X121681857Y-83875523D01*
X121777095Y-83827904D01*
X120824714Y-84018380D02*
X120777095Y-84066000D01*
X120681857Y-84113619D01*
X120443761Y-84113619D01*
X120348523Y-84066000D01*
X120300904Y-84018380D01*
X120253285Y-83923142D01*
X120253285Y-83827904D01*
X120300904Y-83685047D01*
X120872333Y-83113619D01*
X120253285Y-83113619D01*
X140938095Y-83859619D02*
X140938095Y-83050095D01*
X140890476Y-82954857D01*
X140842857Y-82907238D01*
X140747619Y-82859619D01*
X140557142Y-82859619D01*
X140461904Y-82907238D01*
X140414285Y-82954857D01*
X140366666Y-83050095D01*
X140366666Y-83859619D01*
X139366666Y-82859619D02*
X139938095Y-82859619D01*
X139652380Y-82859619D02*
X139652380Y-83859619D01*
X139747619Y-83716761D01*
X139842857Y-83621523D01*
X139938095Y-83573904D01*
X138509523Y-83526285D02*
X138509523Y-82859619D01*
X138747619Y-83907238D02*
X138985714Y-83192952D01*
X138366666Y-83192952D01*
X95752904Y-91033380D02*
X95752904Y-91842904D01*
X95800523Y-91938142D01*
X95848142Y-91985761D01*
X95943380Y-92033380D01*
X96133857Y-92033380D01*
X96229095Y-91985761D01*
X96276714Y-91938142D01*
X96324333Y-91842904D01*
X96324333Y-91033380D01*
X97324333Y-92033380D02*
X96752904Y-92033380D01*
X97038619Y-92033380D02*
X97038619Y-91033380D01*
X96943380Y-91176238D01*
X96848142Y-91271476D01*
X96752904Y-91319095D01*
X97800523Y-92033380D02*
X97991000Y-92033380D01*
X98086238Y-91985761D01*
X98133857Y-91938142D01*
X98229095Y-91795285D01*
X98276714Y-91604809D01*
X98276714Y-91223857D01*
X98229095Y-91128619D01*
X98181476Y-91081000D01*
X98086238Y-91033380D01*
X97895761Y-91033380D01*
X97800523Y-91081000D01*
X97752904Y-91128619D01*
X97705285Y-91223857D01*
X97705285Y-91461952D01*
X97752904Y-91557190D01*
X97800523Y-91604809D01*
X97895761Y-91652428D01*
X98086238Y-91652428D01*
X98181476Y-91604809D01*
X98229095Y-91557190D01*
X98276714Y-91461952D01*
X127635095Y-66000380D02*
X127635095Y-66809904D01*
X127682714Y-66905142D01*
X127730333Y-66952761D01*
X127825571Y-67000380D01*
X128016047Y-67000380D01*
X128111285Y-66952761D01*
X128158904Y-66905142D01*
X128206523Y-66809904D01*
X128206523Y-66000380D01*
X128825571Y-66428952D02*
X128730333Y-66381333D01*
X128682714Y-66333714D01*
X128635095Y-66238476D01*
X128635095Y-66190857D01*
X128682714Y-66095619D01*
X128730333Y-66048000D01*
X128825571Y-66000380D01*
X129016047Y-66000380D01*
X129111285Y-66048000D01*
X129158904Y-66095619D01*
X129206523Y-66190857D01*
X129206523Y-66238476D01*
X129158904Y-66333714D01*
X129111285Y-66381333D01*
X129016047Y-66428952D01*
X128825571Y-66428952D01*
X128730333Y-66476571D01*
X128682714Y-66524190D01*
X128635095Y-66619428D01*
X128635095Y-66809904D01*
X128682714Y-66905142D01*
X128730333Y-66952761D01*
X128825571Y-67000380D01*
X129016047Y-67000380D01*
X129111285Y-66952761D01*
X129158904Y-66905142D01*
X129206523Y-66809904D01*
X129206523Y-66619428D01*
X129158904Y-66524190D01*
X129111285Y-66476571D01*
X129016047Y-66428952D01*
X122777095Y-79033619D02*
X122777095Y-78224095D01*
X122729476Y-78128857D01*
X122681857Y-78081238D01*
X122586619Y-78033619D01*
X122396142Y-78033619D01*
X122300904Y-78081238D01*
X122253285Y-78128857D01*
X122205666Y-78224095D01*
X122205666Y-79033619D01*
X121205666Y-78033619D02*
X121777095Y-78033619D01*
X121491380Y-78033619D02*
X121491380Y-79033619D01*
X121586619Y-78890761D01*
X121681857Y-78795523D01*
X121777095Y-78747904D01*
X120348523Y-79033619D02*
X120539000Y-79033619D01*
X120634238Y-78986000D01*
X120681857Y-78938380D01*
X120777095Y-78795523D01*
X120824714Y-78605047D01*
X120824714Y-78224095D01*
X120777095Y-78128857D01*
X120729476Y-78081238D01*
X120634238Y-78033619D01*
X120443761Y-78033619D01*
X120348523Y-78081238D01*
X120300904Y-78128857D01*
X120253285Y-78224095D01*
X120253285Y-78462190D01*
X120300904Y-78557428D01*
X120348523Y-78605047D01*
X120443761Y-78652666D01*
X120634238Y-78652666D01*
X120729476Y-78605047D01*
X120777095Y-78557428D01*
X120824714Y-78462190D01*
X109505904Y-80986380D02*
X109505904Y-81795904D01*
X109553523Y-81891142D01*
X109601142Y-81938761D01*
X109696380Y-81986380D01*
X109886857Y-81986380D01*
X109982095Y-81938761D01*
X110029714Y-81891142D01*
X110077333Y-81795904D01*
X110077333Y-80986380D01*
X111077333Y-81986380D02*
X110505904Y-81986380D01*
X110791619Y-81986380D02*
X110791619Y-80986380D01*
X110696380Y-81129238D01*
X110601142Y-81224476D01*
X110505904Y-81272095D01*
X112029714Y-81986380D02*
X111458285Y-81986380D01*
X111744000Y-81986380D02*
X111744000Y-80986380D01*
X111648761Y-81129238D01*
X111553523Y-81224476D01*
X111458285Y-81272095D01*
X127793904Y-96353380D02*
X127793904Y-97162904D01*
X127841523Y-97258142D01*
X127889142Y-97305761D01*
X127984380Y-97353380D01*
X128174857Y-97353380D01*
X128270095Y-97305761D01*
X128317714Y-97258142D01*
X128365333Y-97162904D01*
X128365333Y-96353380D01*
X128746285Y-96353380D02*
X129365333Y-96353380D01*
X129032000Y-96734333D01*
X129174857Y-96734333D01*
X129270095Y-96781952D01*
X129317714Y-96829571D01*
X129365333Y-96924809D01*
X129365333Y-97162904D01*
X129317714Y-97258142D01*
X129270095Y-97305761D01*
X129174857Y-97353380D01*
X128889142Y-97353380D01*
X128793904Y-97305761D01*
X128746285Y-97258142D01*
X129698666Y-96353380D02*
X130317714Y-96353380D01*
X129984380Y-96734333D01*
X130127238Y-96734333D01*
X130222476Y-96781952D01*
X130270095Y-96829571D01*
X130317714Y-96924809D01*
X130317714Y-97162904D01*
X130270095Y-97258142D01*
X130222476Y-97305761D01*
X130127238Y-97353380D01*
X129841523Y-97353380D01*
X129746285Y-97305761D01*
X129698666Y-97258142D01*
X127793904Y-85939380D02*
X127793904Y-86748904D01*
X127841523Y-86844142D01*
X127889142Y-86891761D01*
X127984380Y-86939380D01*
X128174857Y-86939380D01*
X128270095Y-86891761D01*
X128317714Y-86844142D01*
X128365333Y-86748904D01*
X128365333Y-85939380D01*
X128746285Y-85939380D02*
X129365333Y-85939380D01*
X129032000Y-86320333D01*
X129174857Y-86320333D01*
X129270095Y-86367952D01*
X129317714Y-86415571D01*
X129365333Y-86510809D01*
X129365333Y-86748904D01*
X129317714Y-86844142D01*
X129270095Y-86891761D01*
X129174857Y-86939380D01*
X128889142Y-86939380D01*
X128793904Y-86891761D01*
X128746285Y-86844142D01*
X130270095Y-85939380D02*
X129793904Y-85939380D01*
X129746285Y-86415571D01*
X129793904Y-86367952D01*
X129889142Y-86320333D01*
X130127238Y-86320333D01*
X130222476Y-86367952D01*
X130270095Y-86415571D01*
X130317714Y-86510809D01*
X130317714Y-86748904D01*
X130270095Y-86844142D01*
X130222476Y-86891761D01*
X130127238Y-86939380D01*
X129889142Y-86939380D01*
X129793904Y-86891761D01*
X129746285Y-86844142D01*
X140811095Y-104814619D02*
X140811095Y-104005095D01*
X140763476Y-103909857D01*
X140715857Y-103862238D01*
X140620619Y-103814619D01*
X140430142Y-103814619D01*
X140334904Y-103862238D01*
X140287285Y-103909857D01*
X140239666Y-104005095D01*
X140239666Y-104814619D01*
X139811095Y-104719380D02*
X139763476Y-104767000D01*
X139668238Y-104814619D01*
X139430142Y-104814619D01*
X139334904Y-104767000D01*
X139287285Y-104719380D01*
X139239666Y-104624142D01*
X139239666Y-104528904D01*
X139287285Y-104386047D01*
X139858714Y-103814619D01*
X139239666Y-103814619D01*
X138382523Y-104814619D02*
X138573000Y-104814619D01*
X138668238Y-104767000D01*
X138715857Y-104719380D01*
X138811095Y-104576523D01*
X138858714Y-104386047D01*
X138858714Y-104005095D01*
X138811095Y-103909857D01*
X138763476Y-103862238D01*
X138668238Y-103814619D01*
X138477761Y-103814619D01*
X138382523Y-103862238D01*
X138334904Y-103909857D01*
X138287285Y-104005095D01*
X138287285Y-104243190D01*
X138334904Y-104338428D01*
X138382523Y-104386047D01*
X138477761Y-104433666D01*
X138668238Y-104433666D01*
X138763476Y-104386047D01*
X138811095Y-104338428D01*
X138858714Y-104243190D01*
X89294666Y-61234380D02*
X88961333Y-60758190D01*
X88723238Y-61234380D02*
X88723238Y-60234380D01*
X89104190Y-60234380D01*
X89199428Y-60282000D01*
X89247047Y-60329619D01*
X89294666Y-60424857D01*
X89294666Y-60567714D01*
X89247047Y-60662952D01*
X89199428Y-60710571D01*
X89104190Y-60758190D01*
X88723238Y-60758190D01*
X89723238Y-60710571D02*
X90056571Y-60710571D01*
X90199428Y-61234380D02*
X89723238Y-61234380D01*
X89723238Y-60234380D01*
X90199428Y-60234380D01*
X90961333Y-60710571D02*
X90628000Y-60710571D01*
X90628000Y-61234380D02*
X90628000Y-60234380D01*
X91104190Y-60234380D01*
X91628000Y-60234380D02*
X91628000Y-60472476D01*
X91389904Y-60377238D02*
X91628000Y-60472476D01*
X91866095Y-60377238D01*
X91485142Y-60662952D02*
X91628000Y-60472476D01*
X91770857Y-60662952D01*
X92389904Y-60234380D02*
X92389904Y-60472476D01*
X92151809Y-60377238D02*
X92389904Y-60472476D01*
X92628000Y-60377238D01*
X92247047Y-60662952D02*
X92389904Y-60472476D01*
X92532761Y-60662952D01*
X109728095Y-65619380D02*
X109728095Y-66428904D01*
X109775714Y-66524142D01*
X109823333Y-66571761D01*
X109918571Y-66619380D01*
X110109047Y-66619380D01*
X110204285Y-66571761D01*
X110251904Y-66524142D01*
X110299523Y-66428904D01*
X110299523Y-65619380D01*
X111204285Y-65619380D02*
X111013809Y-65619380D01*
X110918571Y-65667000D01*
X110870952Y-65714619D01*
X110775714Y-65857476D01*
X110728095Y-66047952D01*
X110728095Y-66428904D01*
X110775714Y-66524142D01*
X110823333Y-66571761D01*
X110918571Y-66619380D01*
X111109047Y-66619380D01*
X111204285Y-66571761D01*
X111251904Y-66524142D01*
X111299523Y-66428904D01*
X111299523Y-66190809D01*
X111251904Y-66095571D01*
X111204285Y-66047952D01*
X111109047Y-66000333D01*
X110918571Y-66000333D01*
X110823333Y-66047952D01*
X110775714Y-66095571D01*
X110728095Y-66190809D01*
X127793904Y-91527380D02*
X127793904Y-92336904D01*
X127841523Y-92432142D01*
X127889142Y-92479761D01*
X127984380Y-92527380D01*
X128174857Y-92527380D01*
X128270095Y-92479761D01*
X128317714Y-92432142D01*
X128365333Y-92336904D01*
X128365333Y-91527380D01*
X128793904Y-91622619D02*
X128841523Y-91575000D01*
X128936761Y-91527380D01*
X129174857Y-91527380D01*
X129270095Y-91575000D01*
X129317714Y-91622619D01*
X129365333Y-91717857D01*
X129365333Y-91813095D01*
X129317714Y-91955952D01*
X128746285Y-92527380D01*
X129365333Y-92527380D01*
X129698666Y-91527380D02*
X130365333Y-91527380D01*
X129936761Y-92527380D01*
X109759904Y-75779380D02*
X109759904Y-76588904D01*
X109807523Y-76684142D01*
X109855142Y-76731761D01*
X109950380Y-76779380D01*
X110140857Y-76779380D01*
X110236095Y-76731761D01*
X110283714Y-76684142D01*
X110331333Y-76588904D01*
X110331333Y-75779380D01*
X111331333Y-76779380D02*
X110759904Y-76779380D01*
X111045619Y-76779380D02*
X111045619Y-75779380D01*
X110950380Y-75922238D01*
X110855142Y-76017476D01*
X110759904Y-76065095D01*
X112236095Y-75779380D02*
X111759904Y-75779380D01*
X111712285Y-76255571D01*
X111759904Y-76207952D01*
X111855142Y-76160333D01*
X112093238Y-76160333D01*
X112188476Y-76207952D01*
X112236095Y-76255571D01*
X112283714Y-76350809D01*
X112283714Y-76588904D01*
X112236095Y-76684142D01*
X112188476Y-76731761D01*
X112093238Y-76779380D01*
X111855142Y-76779380D01*
X111759904Y-76731761D01*
X111712285Y-76684142D01*
X82444666Y-109084380D02*
X82444666Y-109798666D01*
X82397047Y-109941523D01*
X82301809Y-110036761D01*
X82158952Y-110084380D01*
X82063714Y-110084380D01*
X82825619Y-109084380D02*
X83444666Y-109084380D01*
X83111333Y-109465333D01*
X83254190Y-109465333D01*
X83349428Y-109512952D01*
X83397047Y-109560571D01*
X83444666Y-109655809D01*
X83444666Y-109893904D01*
X83397047Y-109989142D01*
X83349428Y-110036761D01*
X83254190Y-110084380D01*
X82968476Y-110084380D01*
X82873238Y-110036761D01*
X82825619Y-109989142D01*
X109632904Y-101560380D02*
X109632904Y-102369904D01*
X109680523Y-102465142D01*
X109728142Y-102512761D01*
X109823380Y-102560380D01*
X110013857Y-102560380D01*
X110109095Y-102512761D01*
X110156714Y-102465142D01*
X110204333Y-102369904D01*
X110204333Y-101560380D01*
X110632904Y-101655619D02*
X110680523Y-101608000D01*
X110775761Y-101560380D01*
X111013857Y-101560380D01*
X111109095Y-101608000D01*
X111156714Y-101655619D01*
X111204333Y-101750857D01*
X111204333Y-101846095D01*
X111156714Y-101988952D01*
X110585285Y-102560380D01*
X111204333Y-102560380D01*
X112156714Y-102560380D02*
X111585285Y-102560380D01*
X111871000Y-102560380D02*
X111871000Y-101560380D01*
X111775761Y-101703238D01*
X111680523Y-101798476D01*
X111585285Y-101846095D01*
X96006904Y-80238380D02*
X96006904Y-81047904D01*
X96054523Y-81143142D01*
X96102142Y-81190761D01*
X96197380Y-81238380D01*
X96387857Y-81238380D01*
X96483095Y-81190761D01*
X96530714Y-81143142D01*
X96578333Y-81047904D01*
X96578333Y-80238380D01*
X97578333Y-81238380D02*
X97006904Y-81238380D01*
X97292619Y-81238380D02*
X97292619Y-80238380D01*
X97197380Y-80381238D01*
X97102142Y-80476476D01*
X97006904Y-80524095D01*
X98197380Y-80238380D02*
X98292619Y-80238380D01*
X98387857Y-80286000D01*
X98435476Y-80333619D01*
X98483095Y-80428857D01*
X98530714Y-80619333D01*
X98530714Y-80857428D01*
X98483095Y-81047904D01*
X98435476Y-81143142D01*
X98387857Y-81190761D01*
X98292619Y-81238380D01*
X98197380Y-81238380D01*
X98102142Y-81190761D01*
X98054523Y-81143142D01*
X98006904Y-81047904D01*
X97959285Y-80857428D01*
X97959285Y-80619333D01*
X98006904Y-80428857D01*
X98054523Y-80333619D01*
X98102142Y-80286000D01*
X98197380Y-80238380D01*
X109505904Y-96607380D02*
X109505904Y-97416904D01*
X109553523Y-97512142D01*
X109601142Y-97559761D01*
X109696380Y-97607380D01*
X109886857Y-97607380D01*
X109982095Y-97559761D01*
X110029714Y-97512142D01*
X110077333Y-97416904D01*
X110077333Y-96607380D01*
X110505904Y-96702619D02*
X110553523Y-96655000D01*
X110648761Y-96607380D01*
X110886857Y-96607380D01*
X110982095Y-96655000D01*
X111029714Y-96702619D01*
X111077333Y-96797857D01*
X111077333Y-96893095D01*
X111029714Y-97035952D01*
X110458285Y-97607380D01*
X111077333Y-97607380D01*
X111553523Y-97607380D02*
X111744000Y-97607380D01*
X111839238Y-97559761D01*
X111886857Y-97512142D01*
X111982095Y-97369285D01*
X112029714Y-97178809D01*
X112029714Y-96797857D01*
X111982095Y-96702619D01*
X111934476Y-96655000D01*
X111839238Y-96607380D01*
X111648761Y-96607380D01*
X111553523Y-96655000D01*
X111505904Y-96702619D01*
X111458285Y-96797857D01*
X111458285Y-97035952D01*
X111505904Y-97131190D01*
X111553523Y-97178809D01*
X111648761Y-97226428D01*
X111839238Y-97226428D01*
X111934476Y-97178809D01*
X111982095Y-97131190D01*
X112029714Y-97035952D01*
X127666904Y-80859380D02*
X127666904Y-81668904D01*
X127714523Y-81764142D01*
X127762142Y-81811761D01*
X127857380Y-81859380D01*
X128047857Y-81859380D01*
X128143095Y-81811761D01*
X128190714Y-81764142D01*
X128238333Y-81668904D01*
X128238333Y-80859380D01*
X129238333Y-81859380D02*
X128666904Y-81859380D01*
X128952619Y-81859380D02*
X128952619Y-80859380D01*
X128857380Y-81002238D01*
X128762142Y-81097476D01*
X128666904Y-81145095D01*
X129571666Y-80859380D02*
X130190714Y-80859380D01*
X129857380Y-81240333D01*
X130000238Y-81240333D01*
X130095476Y-81287952D01*
X130143095Y-81335571D01*
X130190714Y-81430809D01*
X130190714Y-81668904D01*
X130143095Y-81764142D01*
X130095476Y-81811761D01*
X130000238Y-81859380D01*
X129714523Y-81859380D01*
X129619285Y-81811761D01*
X129571666Y-81764142D01*
X96393095Y-71482380D02*
X96393095Y-72291904D01*
X96440714Y-72387142D01*
X96488333Y-72434761D01*
X96583571Y-72482380D01*
X96774047Y-72482380D01*
X96869285Y-72434761D01*
X96916904Y-72387142D01*
X96964523Y-72291904D01*
X96964523Y-71482380D01*
X97964523Y-72482380D02*
X97393095Y-72482380D01*
X97678809Y-72482380D02*
X97678809Y-71482380D01*
X97583571Y-71625238D01*
X97488333Y-71720476D01*
X97393095Y-71768095D01*
X109855095Y-71080380D02*
X109855095Y-71889904D01*
X109902714Y-71985142D01*
X109950333Y-72032761D01*
X110045571Y-72080380D01*
X110236047Y-72080380D01*
X110331285Y-72032761D01*
X110378904Y-71985142D01*
X110426523Y-71889904D01*
X110426523Y-71080380D01*
X110855095Y-71175619D02*
X110902714Y-71128000D01*
X110997952Y-71080380D01*
X111236047Y-71080380D01*
X111331285Y-71128000D01*
X111378904Y-71175619D01*
X111426523Y-71270857D01*
X111426523Y-71366095D01*
X111378904Y-71508952D01*
X110807476Y-72080380D01*
X111426523Y-72080380D01*
D12*
X103815742Y-86391388D02*
X104290258Y-86391388D01*
X103815742Y-87436388D02*
X104290258Y-87436388D01*
X103815742Y-88029380D02*
X104290258Y-88029380D01*
X103815742Y-89074380D02*
X104290258Y-89074380D01*
X103815742Y-97857332D02*
X104290258Y-97857332D01*
X103815742Y-98902332D02*
X104290258Y-98902332D01*
X103815742Y-99495324D02*
X104290258Y-99495324D01*
X103815742Y-100540324D02*
X104290258Y-100540324D01*
X103815742Y-89667372D02*
X104290258Y-89667372D01*
X103815742Y-90712372D02*
X104290258Y-90712372D01*
X103815742Y-91305364D02*
X104290258Y-91305364D01*
X103815742Y-92350364D02*
X104290258Y-92350364D01*
X103815742Y-101133316D02*
X104290258Y-101133316D01*
X103815742Y-102178316D02*
X104290258Y-102178316D01*
X103815742Y-102771308D02*
X104290258Y-102771308D01*
X103815742Y-103816308D02*
X104290258Y-103816308D01*
X103815742Y-92943356D02*
X104290258Y-92943356D01*
X103815742Y-93988356D02*
X104290258Y-93988356D01*
X103815742Y-94581348D02*
X104290258Y-94581348D01*
X103815742Y-95626348D02*
X104290258Y-95626348D01*
X103815742Y-104409300D02*
X104290258Y-104409300D01*
X103815742Y-105454300D02*
X104290258Y-105454300D01*
X103815742Y-106047292D02*
X104290258Y-106047292D01*
X103815742Y-107092292D02*
X104290258Y-107092292D01*
X103815742Y-96219340D02*
X104290258Y-96219340D01*
X103815742Y-97264340D02*
X104290258Y-97264340D01*
X103815742Y-107685290D02*
X104290258Y-107685290D01*
X103815742Y-108730290D02*
X104290258Y-108730290D01*
X99490742Y-93009500D02*
X99965258Y-93009500D01*
X99490742Y-94054500D02*
X99965258Y-94054500D01*
X99590742Y-106204500D02*
X100065258Y-106204500D01*
X99590742Y-105159500D02*
X100065258Y-105159500D01*
X103815742Y-74925444D02*
X104290258Y-74925444D01*
X103815742Y-75970444D02*
X104290258Y-75970444D01*
X103815742Y-76563436D02*
X104290258Y-76563436D01*
X103815742Y-77608436D02*
X104290258Y-77608436D01*
X103815742Y-78201428D02*
X104290258Y-78201428D01*
X103815742Y-79246428D02*
X104290258Y-79246428D01*
X103815742Y-79839420D02*
X104290258Y-79839420D01*
X103815742Y-80884420D02*
X104290258Y-80884420D01*
X103815742Y-81477412D02*
X104290258Y-81477412D01*
X103815742Y-82522412D02*
X104290258Y-82522412D01*
X103815742Y-83115404D02*
X104290258Y-83115404D01*
X103815742Y-84160404D02*
X104290258Y-84160404D01*
X103815742Y-84753396D02*
X104290258Y-84753396D01*
X103815742Y-85798396D02*
X104290258Y-85798396D01*
X99420742Y-82209500D02*
X99895258Y-82209500D01*
X99420742Y-83254500D02*
X99895258Y-83254500D01*
X103815742Y-63459500D02*
X104290258Y-63459500D01*
X103815742Y-64504500D02*
X104290258Y-64504500D01*
X103815742Y-66142492D02*
X104290258Y-66142492D01*
X103815742Y-65097492D02*
X104290258Y-65097492D01*
X103815742Y-66735484D02*
X104290258Y-66735484D01*
X103815742Y-67780484D02*
X104290258Y-67780484D01*
X103815742Y-69418476D02*
X104290258Y-69418476D01*
X103815742Y-68373476D02*
X104290258Y-68373476D01*
X103815742Y-71056468D02*
X104290258Y-71056468D01*
X103815742Y-70011468D02*
X104290258Y-70011468D01*
X103815742Y-72694460D02*
X104290258Y-72694460D01*
X103815742Y-71649460D02*
X104290258Y-71649460D01*
X103815742Y-74332452D02*
X104290258Y-74332452D01*
X103815742Y-73287452D02*
X104290258Y-73287452D01*
X99665742Y-72954500D02*
X100140258Y-72954500D01*
X99665742Y-71909500D02*
X100140258Y-71909500D01*
X94612420Y-104872000D02*
X94893580Y-104872000D01*
X94612420Y-105892000D02*
X94893580Y-105892000D01*
X94612420Y-92872000D02*
X94893580Y-92872000D01*
X94612420Y-93892000D02*
X94893580Y-93892000D01*
X94562420Y-82172000D02*
X94843580Y-82172000D01*
X94562420Y-83192000D02*
X94843580Y-83192000D01*
X94662420Y-71972000D02*
X94943580Y-71972000D01*
X94662420Y-72992000D02*
X94943580Y-72992000D01*
X123087000Y-100104000D02*
X118467000Y-100104000D01*
X118467000Y-100104000D02*
X118467000Y-95984000D01*
X118467000Y-95984000D02*
X123087000Y-95984000D01*
X123087000Y-95984000D02*
X123087000Y-100104000D01*
X109196000Y-85570000D02*
X113816000Y-85570000D01*
X113816000Y-85570000D02*
X113816000Y-89690000D01*
X113816000Y-89690000D02*
X109196000Y-89690000D01*
X109196000Y-89690000D02*
X109196000Y-85570000D01*
X90255000Y-78613000D02*
X90255000Y-93913000D01*
X87595000Y-78613000D02*
X90255000Y-78613000D01*
X88925000Y-76013000D02*
X90255000Y-76013000D01*
X87595000Y-78613000D02*
X87595000Y-93913000D01*
X90255000Y-76013000D02*
X90255000Y-77343000D01*
X87595000Y-93913000D02*
X90255000Y-93913000D01*
X127357000Y-70076000D02*
X131977000Y-70076000D01*
X131977000Y-70076000D02*
X131977000Y-74196000D01*
X131977000Y-74196000D02*
X127357000Y-74196000D01*
X127357000Y-74196000D02*
X127357000Y-70076000D01*
X141121000Y-89690000D02*
X136501000Y-89690000D01*
X136501000Y-89690000D02*
X136501000Y-85570000D01*
X136501000Y-85570000D02*
X141121000Y-85570000D01*
X141121000Y-85570000D02*
X141121000Y-89690000D01*
X123087000Y-105057000D02*
X118467000Y-105057000D01*
X118467000Y-105057000D02*
X118467000Y-100937000D01*
X118467000Y-100937000D02*
X123087000Y-100937000D01*
X123087000Y-100937000D02*
X123087000Y-105057000D01*
X97155000Y-98992000D02*
X94955000Y-98992000D01*
X97155000Y-104462000D02*
X94955000Y-104462000D01*
X97155000Y-104462000D02*
X100755000Y-104462000D01*
X97155000Y-98992000D02*
X99355000Y-98992000D01*
X141121000Y-69243000D02*
X136501000Y-69243000D01*
X136501000Y-69243000D02*
X136501000Y-65123000D01*
X136501000Y-65123000D02*
X141121000Y-65123000D01*
X141121000Y-65123000D02*
X141121000Y-69243000D01*
X123087000Y-89690000D02*
X118467000Y-89690000D01*
X118467000Y-89690000D02*
X118467000Y-85570000D01*
X118467000Y-85570000D02*
X123087000Y-85570000D01*
X123087000Y-85570000D02*
X123087000Y-89690000D01*
X123087000Y-95024000D02*
X118467000Y-95024000D01*
X118467000Y-95024000D02*
X118467000Y-90904000D01*
X118467000Y-90904000D02*
X123087000Y-90904000D01*
X123087000Y-90904000D02*
X123087000Y-95024000D01*
X123087000Y-74196000D02*
X118467000Y-74196000D01*
X118467000Y-74196000D02*
X118467000Y-70076000D01*
X118467000Y-70076000D02*
X123087000Y-70076000D01*
X123087000Y-70076000D02*
X123087000Y-74196000D01*
X123087000Y-69243000D02*
X118467000Y-69243000D01*
X118467000Y-69243000D02*
X118467000Y-65123000D01*
X118467000Y-65123000D02*
X123087000Y-65123000D01*
X123087000Y-65123000D02*
X123087000Y-69243000D01*
X141121000Y-74196000D02*
X136501000Y-74196000D01*
X136501000Y-74196000D02*
X136501000Y-70076000D01*
X136501000Y-70076000D02*
X141121000Y-70076000D01*
X141121000Y-70076000D02*
X141121000Y-74196000D01*
X127357000Y-75283000D02*
X131977000Y-75283000D01*
X131977000Y-75283000D02*
X131977000Y-79403000D01*
X131977000Y-79403000D02*
X127357000Y-79403000D01*
X127357000Y-79403000D02*
X127357000Y-75283000D01*
X146645000Y-94690000D02*
X151845000Y-94690000D01*
X150515000Y-74250000D02*
X151845000Y-74250000D01*
X146645000Y-74250000D02*
X146645000Y-94690000D01*
X151845000Y-74250000D02*
X151845000Y-75580000D01*
X151845000Y-76850000D02*
X151845000Y-94690000D01*
X149245000Y-74250000D02*
X149245000Y-76850000D01*
X146645000Y-74250000D02*
X149245000Y-74250000D01*
X149245000Y-76850000D02*
X151845000Y-76850000D01*
X127357000Y-100937000D02*
X131977000Y-100937000D01*
X131977000Y-100937000D02*
X131977000Y-105057000D01*
X131977000Y-105057000D02*
X127357000Y-105057000D01*
X127357000Y-105057000D02*
X127357000Y-100937000D01*
X109196000Y-90904000D02*
X113816000Y-90904000D01*
X113816000Y-90904000D02*
X113816000Y-95024000D01*
X113816000Y-95024000D02*
X109196000Y-95024000D01*
X109196000Y-95024000D02*
X109196000Y-90904000D01*
X141121000Y-95024000D02*
X136501000Y-95024000D01*
X136501000Y-95024000D02*
X136501000Y-90904000D01*
X136501000Y-90904000D02*
X141121000Y-90904000D01*
X141121000Y-90904000D02*
X141121000Y-95024000D01*
X141121000Y-79403000D02*
X136501000Y-79403000D01*
X136501000Y-79403000D02*
X136501000Y-75283000D01*
X136501000Y-75283000D02*
X141121000Y-75283000D01*
X141121000Y-75283000D02*
X141121000Y-79403000D01*
X141121000Y-100104000D02*
X136501000Y-100104000D01*
X136501000Y-100104000D02*
X136501000Y-95984000D01*
X136501000Y-95984000D02*
X141121000Y-95984000D01*
X141121000Y-95984000D02*
X141121000Y-100104000D01*
X123087000Y-84483000D02*
X118467000Y-84483000D01*
X118467000Y-84483000D02*
X118467000Y-80363000D01*
X118467000Y-80363000D02*
X123087000Y-80363000D01*
X123087000Y-80363000D02*
X123087000Y-84483000D01*
X141121000Y-84483000D02*
X136501000Y-84483000D01*
X136501000Y-84483000D02*
X136501000Y-80363000D01*
X136501000Y-80363000D02*
X141121000Y-80363000D01*
X141121000Y-80363000D02*
X141121000Y-84483000D01*
X97155000Y-92270000D02*
X100755000Y-92270000D01*
X97155000Y-92270000D02*
X94955000Y-92270000D01*
X97155000Y-86800000D02*
X99355000Y-86800000D01*
X97155000Y-86800000D02*
X94955000Y-86800000D01*
X127357000Y-65123000D02*
X131977000Y-65123000D01*
X131977000Y-65123000D02*
X131977000Y-69243000D01*
X131977000Y-69243000D02*
X127357000Y-69243000D01*
X127357000Y-69243000D02*
X127357000Y-65123000D01*
X123087000Y-79403000D02*
X118467000Y-79403000D01*
X118467000Y-79403000D02*
X118467000Y-75283000D01*
X118467000Y-75283000D02*
X123087000Y-75283000D01*
X123087000Y-75283000D02*
X123087000Y-79403000D01*
X109196000Y-80363000D02*
X113816000Y-80363000D01*
X113816000Y-80363000D02*
X113816000Y-84483000D01*
X113816000Y-84483000D02*
X109196000Y-84483000D01*
X109196000Y-84483000D02*
X109196000Y-80363000D01*
X127357000Y-95984000D02*
X131977000Y-95984000D01*
X131977000Y-95984000D02*
X131977000Y-100104000D01*
X131977000Y-100104000D02*
X127357000Y-100104000D01*
X127357000Y-100104000D02*
X127357000Y-95984000D01*
X127357000Y-85570000D02*
X131977000Y-85570000D01*
X131977000Y-85570000D02*
X131977000Y-89690000D01*
X131977000Y-89690000D02*
X127357000Y-89690000D01*
X127357000Y-89690000D02*
X127357000Y-85570000D01*
X141121000Y-105057000D02*
X136501000Y-105057000D01*
X136501000Y-105057000D02*
X136501000Y-100937000D01*
X136501000Y-100937000D02*
X141121000Y-100937000D01*
X141121000Y-100937000D02*
X141121000Y-105057000D01*
X109196000Y-65123000D02*
X113816000Y-65123000D01*
X113816000Y-65123000D02*
X113816000Y-69243000D01*
X113816000Y-69243000D02*
X109196000Y-69243000D01*
X109196000Y-69243000D02*
X109196000Y-65123000D01*
X127357000Y-90904000D02*
X131977000Y-90904000D01*
X131977000Y-90904000D02*
X131977000Y-95024000D01*
X131977000Y-95024000D02*
X127357000Y-95024000D01*
X127357000Y-95024000D02*
X127357000Y-90904000D01*
X109196000Y-75283000D02*
X113816000Y-75283000D01*
X113816000Y-75283000D02*
X113816000Y-79403000D01*
X113816000Y-79403000D02*
X109196000Y-79403000D01*
X109196000Y-79403000D02*
X109196000Y-75283000D01*
X87595000Y-98064000D02*
X90255000Y-98064000D01*
X87595000Y-100664000D02*
X90255000Y-100664000D01*
X88925000Y-95464000D02*
X90255000Y-95464000D01*
X90255000Y-95464000D02*
X90255000Y-96794000D01*
X87595000Y-98064000D02*
X87595000Y-100664000D01*
X90255000Y-98064000D02*
X90255000Y-100664000D01*
X109196000Y-100937000D02*
X113816000Y-100937000D01*
X113816000Y-100937000D02*
X113816000Y-105057000D01*
X113816000Y-105057000D02*
X109196000Y-105057000D01*
X109196000Y-105057000D02*
X109196000Y-100937000D01*
X97155000Y-76132000D02*
X94955000Y-76132000D01*
X97155000Y-76132000D02*
X99355000Y-76132000D01*
X97155000Y-81602000D02*
X100755000Y-81602000D01*
X97155000Y-81602000D02*
X94955000Y-81602000D01*
X109196000Y-95984000D02*
X113816000Y-95984000D01*
X113816000Y-95984000D02*
X113816000Y-100104000D01*
X113816000Y-100104000D02*
X109196000Y-100104000D01*
X109196000Y-100104000D02*
X109196000Y-95984000D01*
X127357000Y-80363000D02*
X131977000Y-80363000D01*
X131977000Y-80363000D02*
X131977000Y-84483000D01*
X131977000Y-84483000D02*
X127357000Y-84483000D01*
X127357000Y-84483000D02*
X127357000Y-80363000D01*
X97155000Y-65845000D02*
X94955000Y-65845000D01*
X97155000Y-71315000D02*
X100755000Y-71315000D01*
X97155000Y-71315000D02*
X94955000Y-71315000D01*
X97155000Y-65845000D02*
X99355000Y-65845000D01*
X109196000Y-70076000D02*
X113816000Y-70076000D01*
X113816000Y-70076000D02*
X113816000Y-74196000D01*
X113816000Y-74196000D02*
X109196000Y-74196000D01*
X109196000Y-74196000D02*
X109196000Y-70076000D01*
%LPC*%
D13*
X104878000Y-86913888D03*
X103228000Y-86913888D03*
X104878000Y-88551880D03*
X103228000Y-88551880D03*
X104878000Y-98379832D03*
X103228000Y-98379832D03*
X104878000Y-100017824D03*
X103228000Y-100017824D03*
X104878000Y-90189872D03*
X103228000Y-90189872D03*
X104878000Y-91827864D03*
X103228000Y-91827864D03*
X104878000Y-101655816D03*
X103228000Y-101655816D03*
X104878000Y-103293808D03*
X103228000Y-103293808D03*
X104878000Y-93465856D03*
X103228000Y-93465856D03*
X104878000Y-95103848D03*
X103228000Y-95103848D03*
X104878000Y-104931800D03*
X103228000Y-104931800D03*
X104878000Y-106569792D03*
X103228000Y-106569792D03*
X104878000Y-96741840D03*
X103228000Y-96741840D03*
X104878000Y-108207790D03*
X103228000Y-108207790D03*
X100553000Y-93532000D03*
X98903000Y-93532000D03*
X99003000Y-105682000D03*
X100653000Y-105682000D03*
X104878000Y-75447944D03*
X103228000Y-75447944D03*
X104878000Y-77085936D03*
X103228000Y-77085936D03*
X104878000Y-78723928D03*
X103228000Y-78723928D03*
X104878000Y-80361920D03*
X103228000Y-80361920D03*
X104878000Y-81999912D03*
X103228000Y-81999912D03*
X104878000Y-83637904D03*
X103228000Y-83637904D03*
X104878000Y-85275896D03*
X103228000Y-85275896D03*
X100483000Y-82732000D03*
X98833000Y-82732000D03*
X104878000Y-63982000D03*
X103228000Y-63982000D03*
X103228000Y-65619992D03*
X104878000Y-65619992D03*
X104878000Y-67257984D03*
X103228000Y-67257984D03*
X103228000Y-68895976D03*
X104878000Y-68895976D03*
X103228000Y-70533968D03*
X104878000Y-70533968D03*
X103228000Y-72171960D03*
X104878000Y-72171960D03*
X103228000Y-73809952D03*
X104878000Y-73809952D03*
X99078000Y-72432000D03*
X100728000Y-72432000D03*
D14*
X95528000Y-105382000D03*
X93978000Y-105382000D03*
X95528000Y-93382000D03*
X93978000Y-93382000D03*
X95478000Y-82682000D03*
X93928000Y-82682000D03*
X95578000Y-72482000D03*
X94028000Y-72482000D03*
D15*
X123927000Y-99314000D03*
X123927000Y-96774000D03*
X117627000Y-96774000D03*
X117627000Y-99314000D03*
X108356000Y-86360000D03*
X108356000Y-88900000D03*
X114656000Y-88900000D03*
X114656000Y-86360000D03*
D16*
X88925000Y-92583000D03*
X88925000Y-90043000D03*
X88925000Y-87503000D03*
X88925000Y-84963000D03*
X88925000Y-82423000D03*
X88925000Y-79883000D03*
D17*
X88925000Y-77343000D03*
D15*
X126517000Y-70866000D03*
X126517000Y-73406000D03*
X132817000Y-73406000D03*
X132817000Y-70866000D03*
X141961000Y-88900000D03*
X141961000Y-86360000D03*
X135661000Y-86360000D03*
X135661000Y-88900000D03*
D18*
X150622000Y-106807000D03*
D15*
X123927000Y-104267000D03*
X123927000Y-101727000D03*
X117627000Y-101727000D03*
X117627000Y-104267000D03*
D19*
X94292500Y-104002000D03*
X94292500Y-103352000D03*
X94292500Y-102702000D03*
X94292500Y-102052000D03*
X94292500Y-101402000D03*
X94292500Y-100752000D03*
X94292500Y-100102000D03*
X94292500Y-99452000D03*
X100017500Y-99452000D03*
X100017500Y-100102000D03*
X100017500Y-100752000D03*
X100017500Y-101402000D03*
X100017500Y-102052000D03*
X100017500Y-102702000D03*
X100017500Y-103352000D03*
X100017500Y-104002000D03*
D15*
X141961000Y-68453000D03*
X141961000Y-65913000D03*
X135661000Y-65913000D03*
X135661000Y-68453000D03*
X123927000Y-88900000D03*
X123927000Y-86360000D03*
X117627000Y-86360000D03*
X117627000Y-88900000D03*
X123927000Y-94234000D03*
X123927000Y-91694000D03*
X117627000Y-91694000D03*
X117627000Y-94234000D03*
X123927000Y-73406000D03*
X123927000Y-70866000D03*
X117627000Y-70866000D03*
X117627000Y-73406000D03*
X123927000Y-68453000D03*
X123927000Y-65913000D03*
X117627000Y-65913000D03*
X117627000Y-68453000D03*
X141961000Y-73406000D03*
X141961000Y-70866000D03*
X135661000Y-70866000D03*
X135661000Y-73406000D03*
X126517000Y-76073000D03*
X126517000Y-78613000D03*
X132817000Y-78613000D03*
X132817000Y-76073000D03*
D17*
X150515000Y-75580000D03*
D16*
X147975000Y-75580000D03*
X150515000Y-78120000D03*
X147975000Y-78120000D03*
X150515000Y-80660000D03*
X147975000Y-80660000D03*
X150515000Y-83200000D03*
X147975000Y-83200000D03*
X150515000Y-85740000D03*
X147975000Y-85740000D03*
X150515000Y-88280000D03*
X147975000Y-88280000D03*
X150515000Y-90820000D03*
X147975000Y-90820000D03*
X150515000Y-93360000D03*
X147975000Y-93360000D03*
D15*
X126517000Y-101727000D03*
X126517000Y-104267000D03*
X132817000Y-104267000D03*
X132817000Y-101727000D03*
D18*
X150368000Y-65659000D03*
D15*
X108356000Y-91694000D03*
X108356000Y-94234000D03*
X114656000Y-94234000D03*
X114656000Y-91694000D03*
X141961000Y-94234000D03*
X141961000Y-91694000D03*
X135661000Y-91694000D03*
X135661000Y-94234000D03*
X141961000Y-78613000D03*
X141961000Y-76073000D03*
X135661000Y-76073000D03*
X135661000Y-78613000D03*
D18*
X88011000Y-106807000D03*
D15*
X141961000Y-99314000D03*
X141961000Y-96774000D03*
X135661000Y-96774000D03*
X135661000Y-99314000D03*
X123927000Y-83693000D03*
X123927000Y-81153000D03*
X117627000Y-81153000D03*
X117627000Y-83693000D03*
X141961000Y-83693000D03*
X141961000Y-81153000D03*
X135661000Y-81153000D03*
X135661000Y-83693000D03*
D19*
X94292500Y-91810000D03*
X94292500Y-91160000D03*
X94292500Y-90510000D03*
X94292500Y-89860000D03*
X94292500Y-89210000D03*
X94292500Y-88560000D03*
X94292500Y-87910000D03*
X94292500Y-87260000D03*
X100017500Y-87260000D03*
X100017500Y-87910000D03*
X100017500Y-88560000D03*
X100017500Y-89210000D03*
X100017500Y-89860000D03*
X100017500Y-90510000D03*
X100017500Y-91160000D03*
X100017500Y-91810000D03*
D15*
X126517000Y-65913000D03*
X126517000Y-68453000D03*
X132817000Y-68453000D03*
X132817000Y-65913000D03*
X117627000Y-78613000D03*
X117627000Y-76073000D03*
X123927000Y-76073000D03*
X123927000Y-78613000D03*
X108356000Y-81153000D03*
X108356000Y-83693000D03*
X114656000Y-83693000D03*
X114656000Y-81153000D03*
X126517000Y-96774000D03*
X126517000Y-99314000D03*
X132817000Y-99314000D03*
X132817000Y-96774000D03*
X126517000Y-86360000D03*
X126517000Y-88900000D03*
X132817000Y-88900000D03*
X132817000Y-86360000D03*
X141961000Y-104267000D03*
X141961000Y-101727000D03*
X135661000Y-101727000D03*
X135661000Y-104267000D03*
D18*
X88392000Y-65913000D03*
D15*
X108356000Y-65913000D03*
X108356000Y-68453000D03*
X114656000Y-68453000D03*
X114656000Y-65913000D03*
X126517000Y-91694000D03*
X126517000Y-94234000D03*
X132817000Y-94234000D03*
X132817000Y-91694000D03*
X108356000Y-76073000D03*
X108356000Y-78613000D03*
X114656000Y-78613000D03*
X114656000Y-76073000D03*
D16*
X88925000Y-99334000D03*
D17*
X88925000Y-96794000D03*
D15*
X108356000Y-101727000D03*
X108356000Y-104267000D03*
X114656000Y-104267000D03*
X114656000Y-101727000D03*
D19*
X100017500Y-81142000D03*
X100017500Y-80492000D03*
X100017500Y-79842000D03*
X100017500Y-79192000D03*
X100017500Y-78542000D03*
X100017500Y-77892000D03*
X100017500Y-77242000D03*
X100017500Y-76592000D03*
X94292500Y-76592000D03*
X94292500Y-77242000D03*
X94292500Y-77892000D03*
X94292500Y-78542000D03*
X94292500Y-79192000D03*
X94292500Y-79842000D03*
X94292500Y-80492000D03*
X94292500Y-81142000D03*
D15*
X108356000Y-96774000D03*
X108356000Y-99314000D03*
X114656000Y-99314000D03*
X114656000Y-96774000D03*
X126517000Y-81153000D03*
X126517000Y-83693000D03*
X132817000Y-83693000D03*
X132817000Y-81153000D03*
D19*
X94292500Y-70855000D03*
X94292500Y-70205000D03*
X94292500Y-69555000D03*
X94292500Y-68905000D03*
X94292500Y-68255000D03*
X94292500Y-67605000D03*
X94292500Y-66955000D03*
X94292500Y-66305000D03*
X100017500Y-66305000D03*
X100017500Y-66955000D03*
X100017500Y-67605000D03*
X100017500Y-68255000D03*
X100017500Y-68905000D03*
X100017500Y-69555000D03*
X100017500Y-70205000D03*
X100017500Y-70855000D03*
D15*
X108356000Y-70866000D03*
X108356000Y-73406000D03*
X114656000Y-73406000D03*
X114656000Y-70866000D03*
M02*
