%TF.GenerationSoftware,KiCad,Pcbnew,(6.0.8)*%
%TF.CreationDate,2022-11-26T10:27:08-06:00*%
%TF.ProjectId,photo_switching,70686f74-6f5f-4737-9769-746368696e67,rev?*%
%TF.SameCoordinates,Original*%
%TF.FileFunction,Drillmap*%
%TF.FilePolarity,Positive*%
%FSLAX45Y45*%
G04 Gerber Fmt 4.5, Leading zero omitted, Abs format (unit mm)*
G04 Created by KiCad (PCBNEW (6.0.8)) date 2022-11-26 10:27:08*
%MOMM*%
%LPD*%
G01*
G04 APERTURE LIST*
%ADD10C,0.100000*%
%ADD11C,0.200000*%
G04 APERTURE END LIST*
D10*
X15382800Y-6423200D02*
G75*
G03*
X15182800Y-6223200I-200000J0D01*
G01*
X15182800Y-6223200D02*
X8682800Y-6223200D01*
X15382800Y-10823200D02*
X15382800Y-6423200D01*
X8482800Y-10823200D02*
G75*
G03*
X8682800Y-11023200I200000J0D01*
G01*
X8682800Y-11023200D02*
X15182800Y-11023200D01*
X8482800Y-6423200D02*
X8482800Y-10823200D01*
X15182800Y-11023200D02*
G75*
G03*
X15382800Y-10823200I0J200000D01*
G01*
X8682800Y-6223200D02*
G75*
G03*
X8482800Y-6423200I0J-200000D01*
G01*
D11*
X8735419Y-11338676D02*
X8735419Y-11138676D01*
X8783038Y-11138676D01*
X8811610Y-11148200D01*
X8830657Y-11167248D01*
X8840181Y-11186295D01*
X8849705Y-11224390D01*
X8849705Y-11252962D01*
X8840181Y-11291057D01*
X8830657Y-11310105D01*
X8811610Y-11329152D01*
X8783038Y-11338676D01*
X8735419Y-11338676D01*
X8935419Y-11338676D02*
X8935419Y-11205343D01*
X8935419Y-11243438D02*
X8944943Y-11224390D01*
X8954467Y-11214867D01*
X8973514Y-11205343D01*
X8992562Y-11205343D01*
X9059229Y-11338676D02*
X9059229Y-11205343D01*
X9059229Y-11138676D02*
X9049705Y-11148200D01*
X9059229Y-11157724D01*
X9068752Y-11148200D01*
X9059229Y-11138676D01*
X9059229Y-11157724D01*
X9183038Y-11338676D02*
X9163990Y-11329152D01*
X9154467Y-11310105D01*
X9154467Y-11138676D01*
X9287800Y-11338676D02*
X9268752Y-11329152D01*
X9259229Y-11310105D01*
X9259229Y-11138676D01*
X9516371Y-11338676D02*
X9516371Y-11138676D01*
X9583038Y-11281533D01*
X9649705Y-11138676D01*
X9649705Y-11338676D01*
X9830657Y-11338676D02*
X9830657Y-11233914D01*
X9821133Y-11214867D01*
X9802086Y-11205343D01*
X9763990Y-11205343D01*
X9744943Y-11214867D01*
X9830657Y-11329152D02*
X9811610Y-11338676D01*
X9763990Y-11338676D01*
X9744943Y-11329152D01*
X9735419Y-11310105D01*
X9735419Y-11291057D01*
X9744943Y-11272009D01*
X9763990Y-11262486D01*
X9811610Y-11262486D01*
X9830657Y-11252962D01*
X9925895Y-11205343D02*
X9925895Y-11405343D01*
X9925895Y-11214867D02*
X9944943Y-11205343D01*
X9983038Y-11205343D01*
X10002086Y-11214867D01*
X10011610Y-11224390D01*
X10021133Y-11243438D01*
X10021133Y-11300581D01*
X10011610Y-11319628D01*
X10002086Y-11329152D01*
X9983038Y-11338676D01*
X9944943Y-11338676D01*
X9925895Y-11329152D01*
X10106848Y-11319628D02*
X10116371Y-11329152D01*
X10106848Y-11338676D01*
X10097324Y-11329152D01*
X10106848Y-11319628D01*
X10106848Y-11338676D01*
X10106848Y-11214867D02*
X10116371Y-11224390D01*
X10106848Y-11233914D01*
X10097324Y-11224390D01*
X10106848Y-11214867D01*
X10106848Y-11233914D01*
M02*
