%TF.GenerationSoftware,KiCad,Pcbnew,(6.0.8)*%
%TF.CreationDate,2023-01-26T09:35:37-06:00*%
%TF.ProjectId,flexible_connector,666c6578-6962-46c6-955f-636f6e6e6563,rev?*%
%TF.SameCoordinates,Original*%
%TF.FileFunction,Drillmap*%
%TF.FilePolarity,Positive*%
%FSLAX45Y45*%
G04 Gerber Fmt 4.5, Leading zero omitted, Abs format (unit mm)*
G04 Created by KiCad (PCBNEW (6.0.8)) date 2023-01-26 09:35:37*
%MOMM*%
%LPD*%
G01*
G04 APERTURE LIST*
%ADD10C,0.100000*%
%ADD11C,0.200000*%
G04 APERTURE END LIST*
D10*
X18070000Y-9850000D02*
X18070000Y-5350000D01*
X18070000Y-5350000D02*
X15770000Y-5350000D01*
X15770000Y-5350000D02*
X15770000Y-9850000D01*
X15770000Y-9850000D02*
X18070000Y-9850000D01*
D11*
X16022619Y-10165476D02*
X16022619Y-9965476D01*
X16070238Y-9965476D01*
X16098809Y-9975000D01*
X16117857Y-9994048D01*
X16127381Y-10013095D01*
X16136905Y-10051190D01*
X16136905Y-10079762D01*
X16127381Y-10117857D01*
X16117857Y-10136905D01*
X16098809Y-10155952D01*
X16070238Y-10165476D01*
X16022619Y-10165476D01*
X16222619Y-10165476D02*
X16222619Y-10032143D01*
X16222619Y-10070238D02*
X16232143Y-10051190D01*
X16241667Y-10041667D01*
X16260714Y-10032143D01*
X16279762Y-10032143D01*
X16346428Y-10165476D02*
X16346428Y-10032143D01*
X16346428Y-9965476D02*
X16336905Y-9975000D01*
X16346428Y-9984524D01*
X16355952Y-9975000D01*
X16346428Y-9965476D01*
X16346428Y-9984524D01*
X16470238Y-10165476D02*
X16451190Y-10155952D01*
X16441667Y-10136905D01*
X16441667Y-9965476D01*
X16575000Y-10165476D02*
X16555952Y-10155952D01*
X16546428Y-10136905D01*
X16546428Y-9965476D01*
X16803571Y-10165476D02*
X16803571Y-9965476D01*
X16870238Y-10108333D01*
X16936905Y-9965476D01*
X16936905Y-10165476D01*
X17117857Y-10165476D02*
X17117857Y-10060714D01*
X17108333Y-10041667D01*
X17089286Y-10032143D01*
X17051190Y-10032143D01*
X17032143Y-10041667D01*
X17117857Y-10155952D02*
X17098810Y-10165476D01*
X17051190Y-10165476D01*
X17032143Y-10155952D01*
X17022619Y-10136905D01*
X17022619Y-10117857D01*
X17032143Y-10098810D01*
X17051190Y-10089286D01*
X17098810Y-10089286D01*
X17117857Y-10079762D01*
X17213095Y-10032143D02*
X17213095Y-10232143D01*
X17213095Y-10041667D02*
X17232143Y-10032143D01*
X17270238Y-10032143D01*
X17289286Y-10041667D01*
X17298810Y-10051190D01*
X17308333Y-10070238D01*
X17308333Y-10127381D01*
X17298810Y-10146429D01*
X17289286Y-10155952D01*
X17270238Y-10165476D01*
X17232143Y-10165476D01*
X17213095Y-10155952D01*
X17394048Y-10146429D02*
X17403571Y-10155952D01*
X17394048Y-10165476D01*
X17384524Y-10155952D01*
X17394048Y-10146429D01*
X17394048Y-10165476D01*
X17394048Y-10041667D02*
X17403571Y-10051190D01*
X17394048Y-10060714D01*
X17384524Y-10051190D01*
X17394048Y-10041667D01*
X17394048Y-10060714D01*
M02*
