M48
; DRILL file {KiCad (6.0.8)} date Thu Jan 26 09:35:29 2023
; FORMAT={-:-/ absolute / metric / decimal}
; #@! TF.CreationDate,2023-01-26T09:35:29-06:00
; #@! TF.GenerationSoftware,Kicad,Pcbnew,(6.0.8)
; #@! TF.FileFunction,Plated,1,2,PTH
FMAT,2
METRIC
; #@! TA.AperFunction,Plated,PTH,ComponentDrill
T1C1.000
%
G90
G05
T1
X160.31Y-58.39
X160.31Y-60.93
X160.31Y-63.47
X160.31Y-66.01
X160.31Y-68.55
X160.31Y-71.09
X160.31Y-73.63
X160.31Y-76.17
X160.31Y-78.71
X160.31Y-81.25
X160.31Y-83.79
X160.31Y-86.33
X160.31Y-88.87
X160.31Y-91.41
X160.31Y-93.95
X162.85Y-58.39
X162.85Y-60.93
X162.85Y-63.47
X162.85Y-66.01
X162.85Y-68.55
X162.85Y-71.09
X162.85Y-73.63
X162.85Y-76.17
X162.85Y-78.71
X162.85Y-81.25
X162.85Y-83.79
X162.85Y-86.33
X162.85Y-88.87
X162.85Y-91.41
X162.85Y-93.95
T0
M30
