G04 #@! TF.GenerationSoftware,KiCad,Pcbnew,(6.0.8)*
G04 #@! TF.CreationDate,2023-01-26T09:35:14-06:00*
G04 #@! TF.ProjectId,flexible_connector,666c6578-6962-46c6-955f-636f6e6e6563,rev?*
G04 #@! TF.SameCoordinates,Original*
G04 #@! TF.FileFunction,Soldermask,Top*
G04 #@! TF.FilePolarity,Negative*
%FSLAX46Y46*%
G04 Gerber Fmt 4.6, Leading zero omitted, Abs format (unit mm)*
G04 Created by KiCad (PCBNEW (6.0.8)) date 2023-01-26 09:35:14*
%MOMM*%
%LPD*%
G01*
G04 APERTURE LIST*
%ADD10R,1.300000X0.300000*%
%ADD11R,2.200000X1.800000*%
%ADD12R,1.700000X1.700000*%
%ADD13O,1.700000X1.700000*%
G04 APERTURE END LIST*
D10*
X173450000Y-83450000D03*
X173450000Y-82950000D03*
X173450000Y-82450000D03*
X173450000Y-81950000D03*
X173450000Y-81450000D03*
X173450000Y-80950000D03*
X173450000Y-80450000D03*
X173450000Y-79950000D03*
X173450000Y-79450000D03*
X173450000Y-78950000D03*
X173450000Y-78450000D03*
X173450000Y-77950000D03*
X173450000Y-77450000D03*
X173450000Y-76950000D03*
X173450000Y-76450000D03*
X173450000Y-75950000D03*
X173450000Y-75450000D03*
X173450000Y-74950000D03*
X173450000Y-74450000D03*
X173450000Y-73950000D03*
X173450000Y-73450000D03*
X173450000Y-72950000D03*
X173450000Y-72450000D03*
X173450000Y-71950000D03*
X173450000Y-71450000D03*
X173450000Y-70950000D03*
X173450000Y-70450000D03*
X173450000Y-69950000D03*
X173450000Y-69450000D03*
X173450000Y-68950000D03*
D11*
X176700000Y-85350000D03*
X176700000Y-67050000D03*
D12*
X160310000Y-93950000D03*
D13*
X162850000Y-93950000D03*
X160310000Y-91410000D03*
X162850000Y-91410000D03*
X160310000Y-88870000D03*
X162850000Y-88870000D03*
X160310000Y-86330000D03*
X162850000Y-86330000D03*
X160310000Y-83790000D03*
X162850000Y-83790000D03*
X160310000Y-81250000D03*
X162850000Y-81250000D03*
X160310000Y-78710000D03*
X162850000Y-78710000D03*
X160310000Y-76170000D03*
X162850000Y-76170000D03*
X160310000Y-73630000D03*
X162850000Y-73630000D03*
X160310000Y-71090000D03*
X162850000Y-71090000D03*
X160310000Y-68550000D03*
X162850000Y-68550000D03*
X160310000Y-66010000D03*
X162850000Y-66010000D03*
X160310000Y-63470000D03*
X162850000Y-63470000D03*
X160310000Y-60930000D03*
X162850000Y-60930000D03*
X160310000Y-58390000D03*
X162850000Y-58390000D03*
M02*
