M48
; DRILL file {KiCad (6.0.8)} date Fri Feb 24 13:51:12 2023
; FORMAT={-:-/ absolute / inch / decimal}
; #@! TF.CreationDate,2023-02-24T13:51:12-06:00
; #@! TF.GenerationSoftware,Kicad,Pcbnew,(6.0.8)
; #@! TF.FileFunction,MixedPlating,1,2
FMAT,2
INCH
; #@! TA.AperFunction,Plated,PTH,ViaDrill
T1C0.0157
%
G90
G05
T1
X6.5276Y-3.315
X6.5276Y-3.6614
X6.5354Y-2.9213
X6.919Y-2.8927
X6.9213Y-3.2913
X6.9213Y-3.6801
X7.3101Y-2.8691
X7.315Y-3.2835
X7.315Y-3.6535
X7.7038Y-2.8455
X7.7087Y-3.2441
X7.7276Y-3.6122
X8.0965Y-3.2283
X8.0975Y-2.8218
X8.148Y-3.5856
X8.4912Y-2.815
X8.4916Y-3.2018
X8.5139Y-3.5749
X8.8849Y-2.815
X8.8849Y-3.2087
X8.8849Y-3.6024
X9.2786Y-2.815
X9.2786Y-3.2087
X9.2786Y-3.5827
X9.6723Y-2.815
X9.6723Y-3.2087
X9.692Y-3.6024
X10.066Y-2.815
X10.066Y-3.2087
X10.066Y-3.6024
T0
M30
