G04 #@! TF.GenerationSoftware,KiCad,Pcbnew,(6.0.8)*
G04 #@! TF.CreationDate,2023-02-24T13:50:23-06:00*
G04 #@! TF.ProjectId,comb_electrodes,636f6d62-5f65-46c6-9563-74726f646573,rev?*
G04 #@! TF.SameCoordinates,Original*
G04 #@! TF.FileFunction,Profile,NP*
%FSLAX46Y46*%
G04 Gerber Fmt 4.6, Leading zero omitted, Abs format (unit mm)*
G04 Created by KiCad (PCBNEW (6.0.8)) date 2023-02-24 13:50:23*
%MOMM*%
%LPD*%
G01*
G04 APERTURE LIST*
G04 #@! TA.AperFunction,Profile*
%ADD10C,0.100000*%
G04 #@! TD*
G04 APERTURE END LIST*
D10*
X258800000Y-76000000D02*
G75*
G03*
X260800000Y-74000000I0J2000000D01*
G01*
X260800000Y-68400000D02*
X260800000Y-74000000D01*
X258800000Y-85985800D02*
G75*
G03*
X260800000Y-83985786I0J2000000D01*
G01*
X260800000Y-68400000D02*
G75*
G03*
X258800000Y-66400000I-2000000J0D01*
G01*
X260800000Y-79000000D02*
G75*
G03*
X258800000Y-77000000I-2000000J0D01*
G01*
X258800000Y-76000000D02*
X162300000Y-76000000D01*
X160400000Y-96400000D02*
X258800000Y-96385786D01*
X156200000Y-92200000D02*
G75*
G03*
X160400000Y-96400000I4200000J0D01*
G01*
X258800000Y-96385800D02*
G75*
G03*
X260800000Y-94385786I0J2000000D01*
G01*
X162300000Y-86000000D02*
G75*
G03*
X162300000Y-87000000I0J-500000D01*
G01*
X59841214Y-89000000D02*
X154200000Y-89000000D01*
X156200000Y-91000000D02*
G75*
G03*
X154200000Y-89000000I-2000000J0D01*
G01*
X162300000Y-87000000D02*
X259800000Y-87000000D01*
X156200000Y-91000000D02*
X156200000Y-92200000D01*
X154177000Y-73500000D02*
G75*
G03*
X156200000Y-71500000I22869J2000000D01*
G01*
X160400000Y-66400000D02*
G75*
G03*
X156200000Y-70600000I0J-4200000D01*
G01*
X260800000Y-88000000D02*
G75*
G03*
X259800000Y-87000000I-1000000J0D01*
G01*
X260800000Y-88000000D02*
X260800000Y-94385786D01*
X258800000Y-66400000D02*
X160400000Y-66400000D01*
X59841214Y-73500000D02*
X154177000Y-73500000D01*
X258800000Y-85985786D02*
X162300000Y-86000000D01*
X260800000Y-79000000D02*
X260800000Y-83985786D01*
X162300000Y-76000000D02*
G75*
G03*
X162300000Y-77000000I0J-500000D01*
G01*
X156200000Y-71500000D02*
X156200000Y-70600000D01*
X162300000Y-77000000D02*
X258800000Y-77000000D01*
X56091214Y-73500000D02*
X56091214Y-89000000D01*
X56091214Y-89000000D02*
X59841214Y-89000000D01*
X59841214Y-73500000D02*
X56091214Y-73500000D01*
M02*
