M48
; DRILL file {KiCad (6.0.8)} date Mon Mar 13 18:59:35 2023
; FORMAT={-:-/ absolute / inch / decimal}
; #@! TF.CreationDate,2023-03-13T18:59:35-05:00
; #@! TF.GenerationSoftware,Kicad,Pcbnew,(6.0.8)
; #@! TF.FileFunction,MixedPlating,1,2
FMAT,2
INCH
; #@! TA.AperFunction,Plated,PTH,ViaDrill
T1C0.0157
%
G90
G05
T1
X8.4606Y-4.6063
X8.463Y-5.1752
X8.4646Y-3.3584
X8.4646Y-3.9368
X8.4685Y-2.248
X8.4685Y-2.811
X9.0512Y-4.5512
X9.0551Y-2.7362
X9.0551Y-3.3268
X9.0551Y-3.9173
X9.0591Y-2.1772
X9.0591Y-5.126
X9.6417Y-2.1299
X9.6457Y-2.7362
X9.6457Y-3.3268
X9.6457Y-3.9173
X9.6457Y-4.5079
X9.648Y-5.1043
X10.2362Y-2.1457
X10.2362Y-2.7362
X10.2362Y-3.3268
X10.2362Y-3.9173
X10.2362Y-4.5079
X10.2362Y-5.0984
X10.8268Y-2.1457
X10.8268Y-2.7362
X10.8268Y-3.3268
X10.8268Y-3.9173
X10.8268Y-4.5079
X10.8268Y-5.0984
T0
M30
