G04 #@! TF.GenerationSoftware,KiCad,Pcbnew,(6.0.8)*
G04 #@! TF.CreationDate,2023-03-13T18:59:32-05:00*
G04 #@! TF.ProjectId,comb_v2_electrodes_front,636f6d62-5f76-4325-9f65-6c656374726f,rev?*
G04 #@! TF.SameCoordinates,Original*
G04 #@! TF.FileFunction,Copper,L2,Bot*
G04 #@! TF.FilePolarity,Positive*
%FSLAX46Y46*%
G04 Gerber Fmt 4.6, Leading zero omitted, Abs format (unit mm)*
G04 Created by KiCad (PCBNEW (6.0.8)) date 2023-03-13 18:59:32*
%MOMM*%
%LPD*%
G01*
G04 APERTURE LIST*
G04 Aperture macros list*
%AMRoundRect*
0 Rectangle with rounded corners*
0 $1 Rounding radius*
0 $2 $3 $4 $5 $6 $7 $8 $9 X,Y pos of 4 corners*
0 Add a 4 corners polygon primitive as box body*
4,1,4,$2,$3,$4,$5,$6,$7,$8,$9,$2,$3,0*
0 Add four circle primitives for the rounded corners*
1,1,$1+$1,$2,$3*
1,1,$1+$1,$4,$5*
1,1,$1+$1,$6,$7*
1,1,$1+$1,$8,$9*
0 Add four rect primitives between the rounded corners*
20,1,$1+$1,$2,$3,$4,$5,0*
20,1,$1+$1,$4,$5,$6,$7,0*
20,1,$1+$1,$6,$7,$8,$9,0*
20,1,$1+$1,$8,$9,$2,$3,0*%
G04 Aperture macros list end*
G04 #@! TA.AperFunction,SMDPad,CuDef*
%ADD10RoundRect,0.087500X1.662500X-0.087500X1.662500X0.087500X-1.662500X0.087500X-1.662500X-0.087500X0*%
G04 #@! TD*
G04 #@! TA.AperFunction,ViaPad*
%ADD11C,0.800000*%
G04 #@! TD*
G04 #@! TA.AperFunction,Conductor*
%ADD12C,0.250000*%
G04 #@! TD*
G04 APERTURE END LIST*
D10*
X38500000Y-199500000D03*
X38500000Y-200000000D03*
X38500000Y-200500000D03*
X38500000Y-201000000D03*
X38500000Y-201500000D03*
X38500000Y-202000000D03*
X38500000Y-202500000D03*
X38500000Y-203000000D03*
X38500000Y-203500000D03*
X38500000Y-204000000D03*
X38500000Y-204500000D03*
X38500000Y-205000000D03*
X38500000Y-205500000D03*
X38500000Y-206000000D03*
X38500000Y-206500000D03*
X38500000Y-207000000D03*
X38500000Y-207500000D03*
X38500000Y-208000000D03*
X38500000Y-208500000D03*
X38500000Y-209000000D03*
X38500000Y-209500000D03*
X38500000Y-210000000D03*
X38500000Y-210500000D03*
X38500000Y-211000000D03*
X38500000Y-211500000D03*
X38500000Y-212000000D03*
X38500000Y-212500000D03*
X38500000Y-213000000D03*
X38500000Y-213500000D03*
X38500000Y-214000000D03*
D11*
X275000000Y-54500000D03*
X260000000Y-54500000D03*
X244900000Y-54100000D03*
X230100000Y-55300000D03*
X215100000Y-57100000D03*
X275000000Y-69500000D03*
X260000000Y-69500000D03*
X245000000Y-69500000D03*
X230000000Y-69500000D03*
X215100000Y-71400000D03*
X275000000Y-84500000D03*
X260000000Y-84500000D03*
X245000000Y-84500000D03*
X230000000Y-84500000D03*
X215000000Y-85304500D03*
X275000000Y-99500000D03*
X260000000Y-99500000D03*
X245000000Y-99500000D03*
X230000000Y-99500000D03*
X215000000Y-99994500D03*
X275000000Y-114500000D03*
X260000000Y-114500000D03*
X245000000Y-114500000D03*
X229900000Y-115600000D03*
X214900000Y-117000000D03*
X275000000Y-129500000D03*
X260000000Y-129500000D03*
X245060000Y-129650000D03*
X230100000Y-130200000D03*
X214960000Y-131450000D03*
D12*
X187160000Y-100550000D02*
X187217107Y-100492893D01*
X187924214Y-100200010D02*
G75*
G03*
X187217107Y-100492893I-14J-999990D01*
G01*
X187924214Y-100200000D02*
X214794500Y-100200000D01*
X214794500Y-100200000D02*
X215000000Y-99994500D01*
X189200000Y-132214214D02*
X189200000Y-208685786D01*
X189707107Y-131292893D02*
X189707107Y-131295622D01*
X183885786Y-213999990D02*
G75*
G03*
X184592893Y-213707107I14J999990D01*
G01*
X188907114Y-209392900D02*
G75*
G03*
X189200000Y-208685786I-707114J707100D01*
G01*
X188907107Y-209392893D02*
X184592893Y-213707107D01*
X189199992Y-132214214D02*
G75*
G02*
X189424748Y-131577981I1025308J-4386D01*
G01*
X189707107Y-131295622D02*
X189424748Y-131577981D01*
X183885786Y-214000000D02*
X38500000Y-214000000D01*
X174100000Y-198485786D02*
X174100000Y-54814214D01*
X177535535Y-51392893D02*
X268201230Y-51392893D01*
X174392893Y-54107107D02*
X176814214Y-51685786D01*
X38500000Y-199500000D02*
X173085786Y-199500000D01*
X173792893Y-199207107D02*
X173807107Y-199192893D01*
X176814214Y-51685786D02*
X176828428Y-51685786D01*
X274503294Y-54003294D02*
X275000000Y-54500000D01*
X173792900Y-199207114D02*
G75*
G02*
X173085786Y-199500000I-707100J707114D01*
G01*
X274503288Y-54003300D02*
G75*
G03*
X268201230Y-51392893I-6302088J-6302100D01*
G01*
X177535535Y-51392861D02*
G75*
G03*
X176828428Y-51685786I-35J-999839D01*
G01*
X174099961Y-198485786D02*
G75*
G02*
X173807107Y-199192893I-1000061J-14D01*
G01*
X174100010Y-54814214D02*
G75*
G02*
X174392893Y-54107107I999990J14D01*
G01*
X174307107Y-199692893D02*
X174292893Y-199707107D01*
X175000000Y-55100000D02*
X174892893Y-55207107D01*
X173585786Y-200000000D02*
X38500000Y-200000000D01*
X260000000Y-54500000D02*
X258192893Y-52692893D01*
X177407107Y-52692893D02*
X174992893Y-55107107D01*
X257485786Y-52400000D02*
X178114214Y-52400000D01*
X174600000Y-55914214D02*
X174600000Y-198985786D01*
X257485786Y-52400010D02*
G75*
G02*
X258192893Y-52692893I14J-999990D01*
G01*
X173585786Y-199999990D02*
G75*
G03*
X174292893Y-199707107I14J999990D01*
G01*
X177407100Y-52692886D02*
G75*
G02*
X178114214Y-52400000I707100J-707114D01*
G01*
X174892886Y-55207100D02*
G75*
G03*
X174600000Y-55914214I707114J-707100D01*
G01*
X174307114Y-199692900D02*
G75*
G03*
X174600000Y-198985786I-707114J707100D01*
G01*
X175492893Y-55907107D02*
X177007107Y-54392893D01*
X177714214Y-54100000D02*
X244900000Y-54100000D01*
X174792893Y-200207107D02*
X174907107Y-200092893D01*
X175200000Y-199385786D02*
X175200000Y-56614214D01*
X38500000Y-200500000D02*
X174085786Y-200500000D01*
X174792900Y-200207114D02*
G75*
G02*
X174085786Y-200500000I-707100J707114D01*
G01*
X175492886Y-55907100D02*
G75*
G03*
X175200000Y-56614214I707114J-707100D01*
G01*
X177007100Y-54392886D02*
G75*
G02*
X177714214Y-54100000I707100J-707114D01*
G01*
X174907114Y-200092900D02*
G75*
G03*
X175200000Y-199385786I-707114J707100D01*
G01*
X38500000Y-201000000D02*
X174150766Y-201000000D01*
X175800000Y-199350766D02*
X175800000Y-58452641D01*
X178952641Y-55300000D02*
X230100000Y-55300000D01*
X174857873Y-200707107D02*
X175507107Y-200057873D01*
X176092893Y-57745534D02*
X178245534Y-55592893D01*
X174857890Y-200707124D02*
G75*
G02*
X174150766Y-201000000I-707090J707124D01*
G01*
X175799976Y-199350766D02*
G75*
G02*
X175507107Y-200057873I-999976J-34D01*
G01*
X175800029Y-58452641D02*
G75*
G02*
X176092893Y-57745534I999971J41D01*
G01*
X178952641Y-55300029D02*
G75*
G03*
X178245534Y-55592893I-41J-999971D01*
G01*
X176300000Y-199720806D02*
X176300000Y-64672641D01*
X176592893Y-63965534D02*
X183165534Y-57392893D01*
X183872641Y-57100000D02*
X215100000Y-57100000D01*
X38500000Y-201500000D02*
X174520806Y-201500000D01*
X175227913Y-201207107D02*
X176007107Y-200427913D01*
X176300004Y-199720806D02*
G75*
G02*
X176007107Y-200427913I-1000004J6D01*
G01*
X183165514Y-57392873D02*
G75*
G02*
X183872641Y-57100000I707086J-707127D01*
G01*
X176592873Y-63965514D02*
G75*
G03*
X176300000Y-64672641I707127J-707086D01*
G01*
X175227910Y-201207104D02*
G75*
G02*
X174520806Y-201500000I-707110J707104D01*
G01*
X174585786Y-202000000D02*
X38500000Y-202000000D01*
X186525534Y-66292893D02*
X177292893Y-75525534D01*
X275000000Y-69500000D02*
X271792893Y-66292893D01*
X177000000Y-76232641D02*
X177000000Y-199585786D01*
X176707107Y-200292893D02*
X175292893Y-201707107D01*
X271085786Y-66000000D02*
X187232641Y-66000000D01*
X271085786Y-66000010D02*
G75*
G02*
X271792893Y-66292893I14J-999990D01*
G01*
X176999990Y-199585786D02*
G75*
G02*
X176707107Y-200292893I-999990J-14D01*
G01*
X174585786Y-201999990D02*
G75*
G03*
X175292893Y-201707107I14J999990D01*
G01*
X177000029Y-76232641D02*
G75*
G02*
X177292893Y-75525534I999971J41D01*
G01*
X187232641Y-66000029D02*
G75*
G03*
X186525534Y-66292893I-41J-999971D01*
G01*
X260000000Y-69500000D02*
X257792893Y-67292893D01*
X186745534Y-67292893D02*
X177928412Y-76110015D01*
X177342626Y-200657374D02*
X175792893Y-202207107D01*
X175085786Y-202500000D02*
X38500000Y-202500000D01*
X257085786Y-67000000D02*
X187452641Y-67000000D01*
X177635519Y-76817122D02*
X177635519Y-199950267D01*
X187452641Y-67000029D02*
G75*
G03*
X186745534Y-67292893I-41J-999971D01*
G01*
X177635529Y-76817122D02*
G75*
G02*
X177928412Y-76110015I999971J22D01*
G01*
X175792900Y-202207114D02*
G75*
G02*
X175085786Y-202500000I-707100J707114D01*
G01*
X257085786Y-67000010D02*
G75*
G02*
X257792893Y-67292893I14J-999990D01*
G01*
X177342646Y-200657394D02*
G75*
G03*
X177635519Y-199950267I-707146J707094D01*
G01*
X178100000Y-77702641D02*
X178100000Y-200220806D01*
X243825638Y-68339090D02*
X243716031Y-68254988D01*
X175320806Y-203000000D02*
X38500000Y-203000000D01*
X177807107Y-200927913D02*
X176027913Y-202707107D01*
X243131903Y-67966935D02*
X243005524Y-67933074D01*
X187215534Y-68172893D02*
X178392893Y-76995534D01*
X243376645Y-68059048D02*
X243255772Y-68008982D01*
X242544219Y-67880000D02*
X187922641Y-67880000D01*
X242877235Y-67907558D02*
X242740191Y-67889517D01*
X243960552Y-68460703D02*
X243913600Y-68415102D01*
X243607272Y-68182319D02*
X243493965Y-68116902D01*
X242624387Y-67881071D02*
X242558926Y-67880108D01*
X245000000Y-69500000D02*
X243970946Y-68470946D01*
X187922641Y-67880029D02*
G75*
G03*
X187215534Y-68172893I-41J-999971D01*
G01*
X177807104Y-200927910D02*
G75*
G03*
X178100000Y-200220806I-707104J707110D01*
G01*
X243493965Y-68116902D02*
G75*
G03*
X243376645Y-68059049I-500065J-866198D01*
G01*
X243960552Y-68460703D02*
G75*
G02*
X243970946Y-68470946I-681052J-701497D01*
G01*
X243131902Y-67966938D02*
G75*
G02*
X243255772Y-68008982I-258802J-965962D01*
G01*
X242544219Y-67880000D02*
G75*
G02*
X242558926Y-67880108I-19J-1001300D01*
G01*
X175320806Y-203000004D02*
G75*
G03*
X176027913Y-202707107I-6J1000004D01*
G01*
X178100029Y-77702641D02*
G75*
G02*
X178392893Y-76995534I999971J41D01*
G01*
X243607271Y-68182322D02*
G75*
G02*
X243716031Y-68254988I-499871J-865878D01*
G01*
X242624387Y-67881076D02*
G75*
G02*
X242740191Y-67889517I-14687J-1000024D01*
G01*
X243913598Y-68415104D02*
G75*
G03*
X243825638Y-68339090I-696698J-717296D01*
G01*
X243005522Y-67933080D02*
G75*
G03*
X242877235Y-67907558I-258822J-965820D01*
G01*
X175385786Y-203500000D02*
X38500000Y-203500000D01*
X178507107Y-200792893D02*
X176092893Y-203207107D01*
X178800000Y-78432641D02*
X178800000Y-200085786D01*
X230000000Y-69500000D02*
X229792893Y-69707107D01*
X186525534Y-70292893D02*
X179092893Y-77725534D01*
X229085786Y-70000000D02*
X187232641Y-70000000D01*
X229085786Y-69999990D02*
G75*
G03*
X229792893Y-69707107I14J999990D01*
G01*
X178800029Y-78432641D02*
G75*
G02*
X179092893Y-77725534I999971J41D01*
G01*
X178799990Y-200085786D02*
G75*
G02*
X178507107Y-200792893I-999990J-14D01*
G01*
X186525514Y-70292873D02*
G75*
G02*
X187232641Y-70000000I707086J-707127D01*
G01*
X175385786Y-203499990D02*
G75*
G03*
X176092893Y-203207107I14J999990D01*
G01*
X214900000Y-71600000D02*
X215100000Y-71400000D01*
X176492893Y-203707107D02*
X179007107Y-201192893D01*
X38500000Y-204000000D02*
X175785786Y-204000000D01*
X187612641Y-71600000D02*
X214900000Y-71600000D01*
X179592893Y-79205534D02*
X186905534Y-71892893D01*
X179300000Y-200485786D02*
X179300000Y-79912641D01*
X214875831Y-71400000D02*
X215100000Y-71400000D01*
X179592873Y-79205514D02*
G75*
G03*
X179300000Y-79912641I707127J-707086D01*
G01*
X179007114Y-201192900D02*
G75*
G03*
X179300000Y-200485786I-707114J707100D01*
G01*
X186905514Y-71892873D02*
G75*
G02*
X187612641Y-71600000I707086J-707127D01*
G01*
X175785786Y-203999990D02*
G75*
G03*
X176492893Y-203707107I14J999990D01*
G01*
X188202641Y-80500000D02*
X267162479Y-80500000D01*
X38500000Y-204500000D02*
X175985786Y-204500000D01*
X180092893Y-88195534D02*
X187495534Y-80792893D01*
X179800000Y-200685786D02*
X179800000Y-88902641D01*
X273713537Y-83213537D02*
X275000000Y-84500000D01*
X176692893Y-204207107D02*
X179507107Y-201392893D01*
X179799990Y-200685786D02*
G75*
G02*
X179507107Y-201392893I-999990J-14D01*
G01*
X187495514Y-80792873D02*
G75*
G02*
X188202641Y-80500000I707086J-707127D01*
G01*
X175985786Y-204499990D02*
G75*
G03*
X176692893Y-204207107I14J999990D01*
G01*
X273713548Y-83213526D02*
G75*
G03*
X267162479Y-80500000I-6551048J-6551074D01*
G01*
X179800029Y-88902641D02*
G75*
G02*
X180092893Y-88195534I999971J41D01*
G01*
X187245534Y-82112893D02*
X180692893Y-88665534D01*
X180400000Y-89372641D02*
X180400000Y-200985786D01*
X253529873Y-81820000D02*
X187952641Y-81820000D01*
X180107107Y-201692893D02*
X177092893Y-204707107D01*
X176385786Y-205000000D02*
X38500000Y-205000000D01*
X253529873Y-81820027D02*
G75*
G02*
X259999999Y-84500001I27J-9150173D01*
G01*
X180107114Y-201692900D02*
G75*
G03*
X180400000Y-200985786I-707114J707100D01*
G01*
X187245514Y-82112873D02*
G75*
G02*
X187952641Y-81820000I707086J-707127D01*
G01*
X177092900Y-204707114D02*
G75*
G02*
X176385786Y-205000000I-707100J707114D01*
G01*
X180692873Y-88665514D02*
G75*
G03*
X180400000Y-89372641I707127J-707086D01*
G01*
X242701573Y-83030000D02*
X188002641Y-83030000D01*
X180707107Y-201792893D02*
X177292893Y-205207107D01*
X245000000Y-84500000D02*
X244115787Y-83615787D01*
X181000000Y-90032641D02*
X181000000Y-201085786D01*
X176585786Y-205500000D02*
X38500000Y-205500000D01*
X187295534Y-83322893D02*
X181292893Y-89325534D01*
X242701573Y-83030020D02*
G75*
G02*
X244115786Y-83615788I27J-1999980D01*
G01*
X177292900Y-205207114D02*
G75*
G02*
X176585786Y-205500000I-707100J707114D01*
G01*
X180999990Y-201085786D02*
G75*
G02*
X180707107Y-201792893I-999990J-14D01*
G01*
X181000029Y-90032641D02*
G75*
G02*
X181292893Y-89325534I999971J41D01*
G01*
X188002641Y-83030029D02*
G75*
G03*
X187295534Y-83322893I-41J-999971D01*
G01*
X181500000Y-91177661D02*
X181500000Y-201525866D01*
X177025866Y-206000000D02*
X38500000Y-206000000D01*
X187470554Y-84792893D02*
X181792893Y-90470554D01*
X230000000Y-84500000D02*
X188177661Y-84500000D01*
X181207107Y-202232973D02*
X177732973Y-205707107D01*
X181499973Y-91177661D02*
G75*
G02*
X181792894Y-90470555I1000027J-39D01*
G01*
X177732990Y-205707124D02*
G75*
G02*
X177025866Y-206000000I-707090J707124D01*
G01*
X187470574Y-84792913D02*
G75*
G02*
X188177661Y-84500000I707126J-707087D01*
G01*
X181207124Y-202232990D02*
G75*
G03*
X181500000Y-201525866I-707124J707090D01*
G01*
X215000000Y-85304500D02*
X213697393Y-86607107D01*
X177285786Y-206500000D02*
X38500000Y-206500000D01*
X186565534Y-87192893D02*
X182192893Y-91565534D01*
X181607107Y-202592893D02*
X177992893Y-206207107D01*
X181900000Y-92272641D02*
X181900000Y-201885786D01*
X212990286Y-86900000D02*
X187272641Y-86900000D01*
X181607114Y-202592900D02*
G75*
G03*
X181900000Y-201885786I-707114J707100D01*
G01*
X186565514Y-87192873D02*
G75*
G02*
X187272641Y-86900000I707086J-707127D01*
G01*
X177992900Y-206207114D02*
G75*
G02*
X177285786Y-206500000I-707100J707114D01*
G01*
X182192873Y-91565514D02*
G75*
G03*
X181900000Y-92272641I707127J-707086D01*
G01*
X212990286Y-86899990D02*
G75*
G03*
X213697393Y-86607107I14J999990D01*
G01*
X38500000Y-207000000D02*
X177485786Y-207000000D01*
X187828427Y-95500000D02*
X268064096Y-95500000D01*
X182500000Y-201985786D02*
X182500000Y-100114214D01*
X273075997Y-97575997D02*
X275000000Y-99500000D01*
X187114214Y-95500000D02*
X187800000Y-95500000D01*
X178192893Y-206707107D02*
X182207107Y-202692893D01*
X182792893Y-99407107D02*
X186407107Y-95792893D01*
X182500010Y-100114214D02*
G75*
G02*
X182792893Y-99407107I999990J14D01*
G01*
X178192900Y-206707114D02*
G75*
G02*
X177485786Y-207000000I-707100J707114D01*
G01*
X182499990Y-201985786D02*
G75*
G02*
X182207107Y-202692893I-999990J-14D01*
G01*
X186407100Y-95792886D02*
G75*
G02*
X187114214Y-95500000I707100J-707114D01*
G01*
X268064096Y-95500004D02*
G75*
G02*
X273075996Y-97575998I4J-7087896D01*
G01*
X187968427Y-96910000D02*
X254746415Y-96910000D01*
X183000000Y-202085786D02*
X183000000Y-100914214D01*
X38500000Y-207500000D02*
X177585786Y-207500000D01*
X259293438Y-98793438D02*
X260000000Y-99500000D01*
X183292893Y-100207107D02*
X186307107Y-97192893D01*
X187014214Y-96900000D02*
X188000000Y-96900000D01*
X178292893Y-207207107D02*
X182707107Y-202792893D01*
X182707114Y-202792900D02*
G75*
G03*
X183000000Y-202085786I-707114J707100D01*
G01*
X187014214Y-96900010D02*
G75*
G03*
X186307107Y-97192893I-14J-999990D01*
G01*
X178292900Y-207207114D02*
G75*
G02*
X177585786Y-207500000I-707100J707114D01*
G01*
X183292886Y-100207100D02*
G75*
G03*
X183000000Y-100914214I707114J-707100D01*
G01*
X259293438Y-98793438D02*
G75*
G03*
X254746415Y-96910000I-4547038J-4547062D01*
G01*
X183400000Y-101314214D02*
X183400000Y-202585786D01*
X177985786Y-208000000D02*
X38500000Y-208000000D01*
X245000000Y-99500000D02*
X243945787Y-98445787D01*
X242531573Y-97860000D02*
X186854214Y-97860000D01*
X183107107Y-203292893D02*
X178692893Y-207707107D01*
X186147107Y-98152893D02*
X183692893Y-100607107D01*
X183692886Y-100607100D02*
G75*
G03*
X183400000Y-101314214I707114J-707100D01*
G01*
X183107114Y-203292900D02*
G75*
G03*
X183400000Y-202585786I-707114J707100D01*
G01*
X178692900Y-207707114D02*
G75*
G02*
X177985786Y-208000000I-707100J707114D01*
G01*
X186147100Y-98152886D02*
G75*
G02*
X186854214Y-97860000I707100J-707114D01*
G01*
X242531573Y-97860020D02*
G75*
G02*
X243945786Y-98445788I27J-1999980D01*
G01*
X230000000Y-99500000D02*
X229770000Y-99270000D01*
X185937107Y-99562893D02*
X184092394Y-101407606D01*
X183799501Y-102114713D02*
X183799501Y-203051265D01*
X183506608Y-203758372D02*
X179057873Y-208207107D01*
X229770000Y-99270000D02*
X186644214Y-99270000D01*
X178350766Y-208500000D02*
X38500000Y-208500000D01*
X183506625Y-203758389D02*
G75*
G03*
X183799501Y-203051265I-707125J707089D01*
G01*
X186644214Y-99270010D02*
G75*
G03*
X185937107Y-99562893I-14J-999990D01*
G01*
X179057890Y-208207124D02*
G75*
G02*
X178350766Y-208500000I-707090J707124D01*
G01*
X183799510Y-102114713D02*
G75*
G02*
X184092394Y-101407606I999990J13D01*
G01*
X184300000Y-203485786D02*
X184300000Y-103814214D01*
X38500000Y-209000000D02*
X178785786Y-209000000D01*
X179492893Y-208707107D02*
X184007107Y-204192893D01*
X184592893Y-103107107D02*
X187150000Y-100550000D01*
X178785786Y-208999990D02*
G75*
G03*
X179492893Y-208707107I14J999990D01*
G01*
X184007114Y-204192900D02*
G75*
G03*
X184300000Y-203485786I-707114J707100D01*
G01*
X184592886Y-103107100D02*
G75*
G03*
X184300000Y-103814214I707114J-707100D01*
G01*
X274096921Y-113596921D02*
X275000000Y-114500000D01*
X179692893Y-209207107D02*
X184507107Y-204392893D01*
X184800000Y-203685786D02*
X184800000Y-114714214D01*
X185092893Y-114007107D02*
X187707107Y-111392893D01*
X38500000Y-209500000D02*
X178985786Y-209500000D01*
X188414214Y-111100000D02*
X268068819Y-111100000D01*
X184800010Y-114714214D02*
G75*
G02*
X185092893Y-114007107I999990J14D01*
G01*
X179692900Y-209207114D02*
G75*
G02*
X178985786Y-209500000I-707100J707114D01*
G01*
X184507114Y-204392900D02*
G75*
G03*
X184800000Y-203685786I-707114J707100D01*
G01*
X268068819Y-111099980D02*
G75*
G02*
X274096920Y-113596922I-19J-8525020D01*
G01*
X188414214Y-111100010D02*
G75*
G03*
X187707107Y-111392893I-14J-999990D01*
G01*
X185200000Y-204185786D02*
X185200000Y-115414214D01*
X38500000Y-210000000D02*
X179385786Y-210000000D01*
X180092893Y-209707107D02*
X184907107Y-204892893D01*
X258392893Y-112892893D02*
X260000000Y-114500000D01*
X188014214Y-112600000D02*
X257685786Y-112600000D01*
X185492893Y-114707107D02*
X187307107Y-112892893D01*
X179385786Y-209999990D02*
G75*
G03*
X180092893Y-209707107I14J999990D01*
G01*
X188014214Y-112600010D02*
G75*
G03*
X187307107Y-112892893I-14J-999990D01*
G01*
X185199990Y-204185786D02*
G75*
G02*
X184907107Y-204892893I-999990J-14D01*
G01*
X257685786Y-112600010D02*
G75*
G02*
X258392893Y-112892893I14J-999990D01*
G01*
X185200010Y-115414214D02*
G75*
G02*
X185492893Y-114707107I999990J14D01*
G01*
X185700000Y-204985786D02*
X185700000Y-116514214D01*
X38500000Y-210500000D02*
X180185786Y-210500000D01*
X188114214Y-114100000D02*
X244185786Y-114100000D01*
X185992893Y-115807107D02*
X187407107Y-114392893D01*
X244892893Y-114392893D02*
X245000000Y-114500000D01*
X180892893Y-210207107D02*
X185407107Y-205692893D01*
X185700010Y-116514214D02*
G75*
G02*
X185992893Y-115807107I999990J14D01*
G01*
X180892900Y-210207114D02*
G75*
G02*
X180185786Y-210500000I-707100J707114D01*
G01*
X188114214Y-114100010D02*
G75*
G03*
X187407107Y-114392893I-14J-999990D01*
G01*
X185699990Y-204985786D02*
G75*
G02*
X185407107Y-205692893I-999990J-14D01*
G01*
X244185786Y-114100010D02*
G75*
G02*
X244892893Y-114392893I14J-999990D01*
G01*
X186492893Y-116307107D02*
X186907107Y-115892893D01*
X181292893Y-210707107D02*
X185907107Y-206092893D01*
X187614214Y-115600000D02*
X229900000Y-115600000D01*
X186200000Y-205385786D02*
X186200000Y-117014214D01*
X38500000Y-211000000D02*
X180585786Y-211000000D01*
X185907114Y-206092900D02*
G75*
G03*
X186200000Y-205385786I-707114J707100D01*
G01*
X187614214Y-115600010D02*
G75*
G03*
X186907107Y-115892893I-14J-999990D01*
G01*
X186200010Y-117014214D02*
G75*
G02*
X186492893Y-116307107I999990J14D01*
G01*
X180585786Y-210999990D02*
G75*
G03*
X181292893Y-210707107I14J999990D01*
G01*
X38500000Y-211500000D02*
X180985786Y-211500000D01*
X187614214Y-116400000D02*
X213885786Y-116400000D01*
X186700000Y-116900000D02*
X186907107Y-116692893D01*
X181692893Y-211207107D02*
X186407107Y-206492893D01*
X186700000Y-205785786D02*
X186700000Y-116900000D01*
X214592893Y-116692893D02*
X214900000Y-117000000D01*
X214592900Y-116692886D02*
G75*
G03*
X213885786Y-116400000I-707100J-707114D01*
G01*
X186907100Y-116692886D02*
G75*
G02*
X187614214Y-116400000I707100J-707114D01*
G01*
X181692900Y-211207114D02*
G75*
G02*
X180985786Y-211500000I-707100J707114D01*
G01*
X186699990Y-205785786D02*
G75*
G02*
X186407107Y-206492893I-999990J-14D01*
G01*
X181685786Y-212000000D02*
X38500000Y-212000000D01*
X187200000Y-127314214D02*
X187200000Y-206485786D01*
X186907107Y-207192893D02*
X182392893Y-211707107D01*
X187707107Y-126392893D02*
X187492893Y-126607107D01*
X269812576Y-126100000D02*
X188414214Y-126100000D01*
X275000000Y-129500000D02*
X272863899Y-127363899D01*
X272863906Y-127363892D02*
G75*
G03*
X269812576Y-126100000I-3051306J-3051308D01*
G01*
X187492886Y-126607100D02*
G75*
G03*
X187200000Y-127314214I707114J-707100D01*
G01*
X188414214Y-126100010D02*
G75*
G03*
X187707107Y-126392893I-14J-999990D01*
G01*
X182392900Y-211707114D02*
G75*
G02*
X181685786Y-212000000I-707100J707114D01*
G01*
X186907114Y-207192900D02*
G75*
G03*
X187200000Y-206485786I-707114J707100D01*
G01*
X183427913Y-212207107D02*
X187407107Y-208227913D01*
X187992893Y-128707107D02*
X189207107Y-127492893D01*
X187700000Y-207520806D02*
X187700000Y-129414214D01*
X189914214Y-127200000D02*
X257226346Y-127200000D01*
X38500000Y-212500000D02*
X182720806Y-212500000D01*
X257933453Y-127492893D02*
X259356441Y-128915881D01*
X259408680Y-128964518D02*
X259778038Y-129284574D01*
X259824197Y-129327182D02*
X260000000Y-129500000D01*
X259824198Y-129327181D02*
G75*
G03*
X259778038Y-129284574I-701698J-713919D01*
G01*
X187992886Y-128707100D02*
G75*
G03*
X187700000Y-129414214I707114J-707100D01*
G01*
X257226346Y-127199968D02*
G75*
G02*
X257933452Y-127492894I-46J-1000032D01*
G01*
X187407104Y-208227910D02*
G75*
G03*
X187700000Y-207520806I-707104J707110D01*
G01*
X259356439Y-128915883D02*
G75*
G03*
X259408680Y-128964518I706561J706583D01*
G01*
X189207100Y-127492886D02*
G75*
G02*
X189914214Y-127200000I707100J-707114D01*
G01*
X183427910Y-212207104D02*
G75*
G02*
X182720806Y-212500000I-707110J707104D01*
G01*
X188200000Y-207685786D02*
X188200000Y-130214214D01*
X183592893Y-212707107D02*
X187907107Y-208392893D01*
X190214214Y-128200000D02*
X243195786Y-128200000D01*
X243902893Y-128492893D02*
X245060000Y-129650000D01*
X188492893Y-129507107D02*
X189507107Y-128492893D01*
X38500000Y-213000000D02*
X182885786Y-213000000D01*
X243195786Y-128200010D02*
G75*
G02*
X243902893Y-128492893I14J-999990D01*
G01*
X183592900Y-212707114D02*
G75*
G02*
X182885786Y-213000000I-707100J707114D01*
G01*
X188492886Y-129507100D02*
G75*
G03*
X188200000Y-130214214I707114J-707100D01*
G01*
X188199990Y-207685786D02*
G75*
G02*
X187907107Y-208392893I-999990J-14D01*
G01*
X190214214Y-128200010D02*
G75*
G03*
X189507107Y-128492893I-14J-999990D01*
G01*
X38500000Y-213500000D02*
X183285786Y-213500000D01*
X188800000Y-207985786D02*
X188800000Y-131314214D01*
X183992893Y-213207107D02*
X188507107Y-208692893D01*
X189092893Y-130607107D02*
X189207107Y-130492893D01*
X189914214Y-130200000D02*
X230100000Y-130200000D01*
X183992900Y-213207114D02*
G75*
G02*
X183285786Y-213500000I-707100J707114D01*
G01*
X188799961Y-207985786D02*
G75*
G02*
X188507107Y-208692893I-1000061J-14D01*
G01*
X189207100Y-130492886D02*
G75*
G02*
X189914214Y-130200000I707100J-707114D01*
G01*
X188800010Y-131314214D02*
G75*
G02*
X189092893Y-130607107I999990J14D01*
G01*
X214960000Y-131450000D02*
X214802893Y-131292893D01*
X214095786Y-131000000D02*
X190414214Y-131000000D01*
X214802900Y-131292886D02*
G75*
G03*
X214095786Y-131000000I-707100J-707114D01*
G01*
X189707100Y-131292886D02*
G75*
G02*
X190414214Y-131000000I707100J-707114D01*
G01*
M02*
